<?xml version="1.0" encoding="UTF-8" standalone="no"?>
<svg
   xmlns:dc="http://purl.org/dc/elements/1.1/"
   xmlns:cc="http://creativecommons.org/ns#"
   xmlns:rdf="http://www.w3.org/1999/02/22-rdf-syntax-ns#"
   xmlns:svg="http://www.w3.org/2000/svg"
   xmlns="http://www.w3.org/2000/svg"
   xmlns:sodipodi="http://sodipodi.sourceforge.net/DTD/sodipodi-0.dtd"
   xmlns:inkscape="http://www.inkscape.org/namespaces/inkscape"
   width="5.01958in"
   height="4.92626in"
   viewBox="0 0 753 739"
   id="svg2"
   version="1.1"
   inkscape:version="0.48.5 r10040"
   sodipodi:docname="flag8sticker.svg"
   inkscape:export-filename="/Users/tess/Desktop/flag8.png"
   inkscape:export-xdpi="90"
   inkscape:export-ydpi="90">
  <metadata
     id="metadata9">
    <rdf:RDF>
      <cc:Work
         rdf:about="">
        <dc:format>image/svg+xml</dc:format>
        <dc:type
           rdf:resource="http://purl.org/dc/dcmitype/StillImage" />
        <dc:title></dc:title>
      </cc:Work>
    </rdf:RDF>
  </metadata>
  <defs
     id="defs7" />
  <sodipodi:namedview
     pagecolor="#ffffff"
     bordercolor="#666666"
     borderopacity="1"
     objecttolerance="10"
     gridtolerance="10"
     guidetolerance="10"
     inkscape:pageopacity="0"
     inkscape:pageshadow="2"
     inkscape:window-width="1440"
     inkscape:window-height="856"
     id="namedview5"
     showgrid="false"
     inkscape:zoom="1.5004829"
     inkscape:cx="201.32242"
     inkscape:cy="218.33846"
     inkscape:window-x="0"
     inkscape:window-y="0"
     inkscape:window-maximized="0"
     inkscape:current-layer="svg2" />
  <path
     d="m 138.64627,590.99325 -22.93725,88.34842 c -2.48375,9.9517 -7.76799,39.94015 -15.15258,45.44109 -3.867332,2.88383 -8.384772,2.83382 -12.968882,2.9005 l -33.339032,0 c -3.367242,0 -8.551461,0.18336 -11.635321,-1.00017 -13.268932,-5.10087 -7.184561,-23.7874 -4.834159,-34.00581 L 59.449414,589.3263 97.939319,404.2947 147.5978,167.5876 161.95025,97.575652 159.26646,67.570522 c -0.16669,-37.039656 26.92625,-58.7433629 60.01025,-58.3432951 33.084,0.4000678 59.3268,30.7719221 54.27594,63.3441551 -3.80065,24.58753 -14.71918,28.704898 -12.53548,43.607438 3.30057,22.55386 25.78774,38.48991 44.94101,48.12489 32.45554,16.33612 87.58163,31.0553 123.3544,21.35365 31.92212,-8.65148 25.40434,-34.68926 55.0094,-47.50812 16.33612,-7.08454 35.80611,-7.4346 53.34244,-7.23457 32.15549,0.3834 74.66275,11.91871 103.35098,26.25449 13.0689,6.55112 26.43785,14.56915 36.38955,25.43768 19.58668,21.45366 16.68618,34.32252 10.98521,59.99357 l -7.36792,33.33903 -52.02556,231.70624 -15.35262,68.345 c -1.68362,7.61797 -3.45059,22.18713 -9.66832,26.85459 -12.81885,9.60164 -23.72071,-7.31792 -31.45537,-15.0359 l -11.51863,-10.15173 c -37.92314,-32.27218 -79.2302,-35.55608 -126.6883,-35.00598 -9.93503,0.11668 -25.48769,2.00034 -32.9723,8.98487 -4.8675,4.55077 -6.66781,11.80201 -10.5518,17.68635 -6.6178,10.08505 -15.4193,17.03624 -26.48786,21.63703 -14.68584,6.11771 -30.87194,8.38476 -46.67464,8.36809 -45.79115,-0.05 -102.65086,-16.0194 -138.29028,-45.35774 -8.91819,-7.33459 -15.88605,-16.00274 -23.404,-24.65421 -6.78449,15.28594 -12.91887,44.42425 -17.28629,61.6772 z"
     id="Selection-9"
     inkscape:connector-curvature="0"
     style="fill:#000000;fill-opacity:1;stroke:none"
     sodipodi:nodetypes="ccccsccccccczccccccccccccccccccccccc" />
  <path
     d="m 240.89242,41.990071 c 16.1,18.4 9.6,48.669999 -14.68,55.919999 -3.26,0.97 -8.64,1.97 -12,1.72 -8.94,-0.69 -16.39,-3.33 -22.82,-9.85 -15.27,-15.489997 -12.68,-41.609999 5.82,-53.269999 4.51,-2.85 9.76,-4.29 15,-4.95 10.97,0.02 21.03,1.7 28.68,10.43 z m -41.68,88.209999 c 12.37,3.47 19.56,2.75 32,2.75 0,0 -7.88,31 -7.88,31 0,0 -18.49,72 -18.49,72 0,0 -28.75,111 -28.75,111 0,0 -24.76,97 -24.76,97 0,0 -44.99999,175 -44.99999,175 0,0 -15.989998,62 -15.989998,62 0,0 -6.13,24 -6.13,24 0,0 -25,0 -25,0 0,0 7.8,-39 7.8,-39 0,0 17.99,-86 17.99,-86 0,0 65.209988,-313 65.209988,-313 0,0 19.42,-93 19.42,-93 0,0 10.58,-52 10.58,-52 6.95,3.34 11.25,6.08 19,8.25 z m 71,39.38 c 7.24,5.43 14.04,9.76 22,14.06 27.12001,14.67 58.59001,22.63 89.00001,26.59 0,0 17,1.72 17,1.72 23.65,0.27 49.23,-2.84 66.96,-20.09 10.5,-10.21 15.65,-23.39 19.57,-27.58 1.87,-2.01 4.02,-3.28 6.47,-4.44 12.84,-6.11 30.96,-6.05 45,-5.89 0,0 10,0.91 10,0.91 27.58,2.02 59.32,10.33 84,22.85 11.39,5.77 26.81,15.85 34.21,26.24 7.8,10.94 3.31,19.22 0.79,31 0,0 -14.58,65 -14.58,65 0,0 -40.84,182 -40.84,182 0,0 -13,58 -13,58 0,0 -6.58,31 -6.58,31 0,0 -9,-7.58 -9,-7.58 -10.37,-8.93 -18.02,-15.13 -30,-21.99 -22.16,-12.69 -57.42,-22.13 -83,-22.47 0,0 -10,0 -10,0 0,0 -10,-0.96 -10,-0.96 -20.69,-0.24 -49.16,1.15 -64.99,16.09 -8.89,8.4 -7.4,12.56 -11.54,19.91 -3.65,6.49 -9.78,11.55 -16.47,14.68 -15.28,7.15 -32.56,6.51 -49,6.32 0,0 -17.00001,-1.87 -17.00001,-1.87 -27.34,-3.8 -51.88,-10.9 -76,-24.71 -12.37,-7.08 -23.94,-14.82 -32.52,-26.42 -10.07,-13.61 -5.06,-22.15 -1.35,-37 0,0 14.22,-60 14.22,-60 0,0 43.53,-184 43.53,-184 0,0 19.12,-82 19.12,-82 0,0 14,10.63 14,10.63 z"
     id="Selection #3"
     inkscape:connector-curvature="0"
     style="fill:#27a9df;fill-opacity:1;stroke:#0181b7;stroke-width:16.66806220999999866;stroke-linecap:round;stroke-linejoin:round;stroke-miterlimit:4;stroke-opacity:1;stroke-dasharray:none" />
  <path
     style="fill:#27a9df;fill-opacity:1;stroke:#27a9df;stroke-width:8.33403111;stroke-linecap:round;stroke-linejoin:round;stroke-miterlimit:4;stroke-opacity:1;stroke-dasharray:none"
     d="m 227.05861,44.792196 c 13.74,7.909999 14.49,28.610007 2.96,38.690007 -4.64,4.06 -10.93,5.42 -16.96,5.18 -14.5,-0.58 -22.32,-11.07 -21.99,-24.960008 0.1,-3.75 0.58,-6.65 2.4,-10 3.62,-6.659999 8.55,-9.589999 15.59,-11.479999 5.78,-0.92 12.83,-0.41 18,2.57 z"
     id="path3862"
     inkscape:connector-curvature="0" />
  <path
     style="fill:#27a9df;fill-opacity:1;stroke:#27a9df;stroke-width:8.33403111;stroke-linecap:round;stroke-linejoin:round;stroke-miterlimit:4;stroke-opacity:1;stroke-dasharray:none"
     d="m 217.05861,142.7022 c 0,0 -22.88,89 -22.88,89 0,0 -60.99999,237 -60.99999,237 0,0 -36.000006,140 -36.000006,140 0,0 -15.990001,62 -15.990001,62 0,0 -6.13,24 -6.13,24 0,0 -4,0 -4,0 0,0 9.79,-50 9.79,-50 0,0 19.209997,-92 19.209997,-92 0,0 63.00001,-303 63.00001,-303 0,0 14.41999,-69 14.41999,-69 0,0 8.58,-44 8.58,-44 13.17,4.39 16.86,6 31,6 z"
     id="path3860"
     inkscape:connector-curvature="0" />
  <path
     style="fill:#ffffff;fill-opacity:1;stroke:#27a9df;stroke-width:12.50104618;stroke-linecap:round;stroke-linejoin:round;stroke-miterlimit:4;stroke-opacity:1;stroke-dasharray:none"
     d="m 276.05861,186.3622 c 5.36,3.48 12.24,7.29 18,10.08 21.23,10.28 43.9,16.55 67,20.87 8.78,1.65 24.37,4.29 33,4.39 26.17,0.3 53.41,-1.79 74,-20.17 7.09,-6.33 11.23,-11.94 16.31,-19.83 3.14,-4.88 5.29,-10.42 10.71,-13.08 9.96,-4.91 31.88,-5.16 42.98,-4.09 31.49,3.05 57.25,7.55 86,21.92 9.46,4.74 24.01,13.65 30.06,22.25 5.74,8.16 1.32,17.21 -0.64,26 0,0 -14.07,63 -14.07,63 0,0 -35,156 -35,156 0,0 -13,58 -13,58 0,0 -8.35,39 -8.35,39 -5.45,-2.13 -9.28,-5.91 -14,-9.29 -7.13,-5.11 -15.07,-10.17 -23,-13.93 -25.11,-11.9 -53.23,-18.74 -81,-18.78 0,0 -15,-1 -15,-1 -24.56,-0.28 -53.4,-0.07 -73,17.18 -18.9,16.64 -8.9,26.31 -29,34.94 -8.98,3.86 -25.12,4.9 -35,4.88 0,0 -19,-1.72 -19,-1.72 -26.82,-3.3 -48.84,-9.07 -73,-21.54 -11.42,-5.89 -27.96,-16.65 -34.52,-27.74 -5.01,-8.47 -0.54,-18.26 1.65,-27 0,0 15,-63 15,-63 0,0 38.75,-164 38.75,-164 0,0 19.12,-83 19.12,-83 0,0 15,9.66 15,9.66 z"
     id="Selection #4"
     inkscape:connector-curvature="0" />
  <path
     d="m 497.97783,342.02547 c 8.01,14.77 12.87,26.65 12.67,43.32 -0.07,6.78 -2.2,17.33 -4.17,23.87 -3.31,10.99 -9.04,21.13 -16.17,30.06 -9.55,11.98 -20.01,19.56 -33.6,26.31 -15.55,7.72 -31.48,10.14 -48.65,9.94 -8.36,-0.1 -19.45,-2.41 -27.42,-5.01 -53.35,-17.38 -81.8,-75.02 -58.1,-126.72 11.83,-25.8 37.76,-38.02 61.64,-51.79 3.51,-1 24.18,-13.94 18.28,-45.18 6.78,7.08 21.52,27.71 40.98,39.5 6.49,4.42 30.96,22.1 54.54,55.7 z"
     id="Selection #6"
     inkscape:connector-curvature="0"
     style="fill:#27a9df;fill-opacity:1;stroke:none" />
  <path
     d="m 404.28085,203.17832 c 14.79,-0.84 32,-2.27 45,-10 8.21,-4.88 14.19,-11.97 19.3,-19.91 3.95,-6.12 6.02,-11.82 11.72,-16.79 13.1,-11.44 35.63,-11.21 51.98,-11.21 0,0 -7.58,40 -7.58,40 0,0 -15,67 -15,67 0,0 -41.84,188 -41.84,188 0,0 -19.58,90 -19.58,90 -18.2,0 -43.04,-0.88 -56.96,13.04 -6.58,6.59 -5.48,9.72 -9.36,16.96 -3.44,6.41 -9.41,12.46 -15.68,16.12 -13.17,7.69 -30.87,10.7 -46,10.88 0,0 -21,-1 -21,-1 0,0 10.35,-46 10.35,-46 0,0 13.77,-60 13.77,-60 0,0 39.76,-170 39.76,-170 0,0 15,-64 15,-64 0,0 10.12,-44 10.12,-44 0,0 16,0.91 16,0.91 z"
     id="Selection #9"
     inkscape:connector-curvature="0"
     style="fill:#000000;fill-opacity:0.08018871;stroke:none" />
  <path
     d="m 317.36085,551.26815 c 0,0 16.54,-72 16.54,-72 0,0 40.51,-173 40.51,-173 0,0 16.95,-72 16.95,-72 0,0 4.63,-20 4.63,-20 0.47,-2.18 1.59,-7.87 2.93,-9.43 2.1,-2.44 14.34,-2.42 17.86,-2.66 9.86,-0.68 23.51,-3.96 32,-9 8.21,-4.88 14.19,-11.97 19.3,-19.91 3.62,-5.62 5.79,-11.17 10.74,-15.9 10.15,-9.69 29.48,-12.1 42.96,-12.1 0,0 -6.42,32 -6.42,32 0,0 -21.23,95 -21.23,95 0,0 -35.77,160 -35.77,160 0,0 -21.58,98 -21.58,98 -16.01,0 -36.67,2.01 -47.79,15 -4.41,5.15 -4.48,9.31 -7.53,15 -2.89,5.38 -7.73,10.67 -12.68,14.21 -16.12,11.54 -39.84,12.79 -59,12.79 0,0 7.58,-36 7.58,-36 z"
     id="Selection #10"
     inkscape:connector-curvature="0"
     style="fill:#000000;fill-opacity:0.08018871;stroke:none" />
  <path
     d="m 509.16085,158.26814 c 0,0 -5,22 -5,22 0,0 -16.46,74 -16.46,74 0,0 -39.07,175 -39.07,175 0,0 -14.77,66.00001 -14.77,66.00001 0,0 -7.58,35 -7.58,35 -13.33,2.39999 -27.37,4 -36.79,15 -4.28,5.01 -4.26,8.5 -7.02,14 -2.82,5.62 -7.22,10.63999 -12.19,14.47 -12.84,9.9 -34.12,13.17999 -50,13.53 0,0 8.35,-37 8.35,-37 0,0 18.77,-80 18.77,-80 0,0 41.76,-178 41.76,-178 0,0 14.77,-63 14.77,-63 0,0 6.35,-27 6.35,-27 19.35,0 38.64,-4.76 51.7,-20 7.48,-8.73 11.94,-20.76 19.3,-26.61001 9.09,-7.22 19.65,-7.36 30,-10.38999 0,0 -2.12,13 -2.12,13 z"
     id="Selection"
     inkscape:connector-curvature="0"
     style="fill:#000000;fill-opacity:0.08018871;stroke:none" />
</svg>
