<svg xmlns="http://www.w3.org/2000/svg" width="512" height="512" viewBox="0 0 512 512"><g fill="none" fill-rule="evenodd"><path fill="#24578A" fill-rule="nonzero" d="M251.309927,47.1733541 C254.248027,45.608882 257.771973,45.608882 260.710073,47.1733541 L410.712412,127.174601 C413.967421,128.913741 416,132.304251 416,135.994739 C416,139.685226 413.967421,143.075736 410.712412,144.814876 L352.271501,175.995362 L410.692411,207.175848 C413.947421,208.914988 415.98,212.305498 415.98,215.995986 C415.98,219.686473 413.947421,223.076983 410.692411,224.816123 L352.241,255.99 L410.712412,287.174601 C413.874421,288.864051 415.882855,292.111856 415.995041,295.679177 L416,295.994739 C416,299.685226 413.967421,303.075736 410.712412,304.814876 L352.271501,335.995362 L410.692411,367.175848 C413.947421,368.914988 415.98,372.305498 415.98,375.995986 C415.98,379.686473 413.947421,383.076983 410.692411,384.816123 L260.690073,464.81737 C257.751973,466.381842 254.228027,466.381842 251.289927,464.81737 L101.287588,384.816123 C98.0325786,383.076983 96,379.686473 96,375.995986 C96,372.305498 98.0325786,368.914988 101.287588,367.175848 L159.7685,335.995362 L101.307589,304.814876 C98.0525789,303.075736 96.0200003,299.685226 96.0200003,295.994739 C96.0200003,292.304251 98.0525789,288.913741 101.307589,287.174601 L159.758,256 L101.287588,224.816123 C98.1255789,223.126673 96.1171453,219.878868 96.0049588,216.311547 L96,215.995986 C96,212.305498 98.0325786,208.914988 101.287588,207.175848 L159.7685,175.995362 L101.307589,144.814876 C98.0525789,143.075736 96.0200003,139.685226 96.0200003,135.994739 C96.0200003,132.304251 98.0525789,128.913741 101.307589,127.174601 L251.309927,47.1733541 Z"/><path fill="#113960" fill-rule="nonzero" d="M331.011169,347.335539 L384.772007,375.995986 L256.01,444.657056 L127.247993,375.995986 L181.008831,347.335539 L251.309927,384.816123 C254.248027,386.380595 257.771973,386.380595 260.710073,384.816123 L331.011169,347.335539 Z"/><path fill="#3375BA" fill-rule="nonzero" d="M331.011169,267.335539 L384.772007,295.995986 L256.01,364.657056 L127.247993,295.995986 L181.008831,267.335539 L251.309927,304.816123 C254.248027,306.380595 257.771973,306.380595 260.710073,304.816123 L331.011169,267.335539 Z"/><path fill="#93CCFA" fill-rule="nonzero" d="M331.011169,187.335539 L384.772007,215.995986 L256.01,284.657056 L127.247993,215.995986 L181.008831,187.335539 L251.309927,224.816123 C254.248027,226.380595 257.771973,226.380595 260.710073,224.816123 L331.011169,187.335539 Z"/><polygon fill="#FFF" fill-rule="nonzero" points="256.01 204.656 127.248 135.995 256.01 67.334 384.772 135.995"/></g></svg>