<?xml version="1.0" standalone="no"?>
<!DOCTYPE svg PUBLIC "-//W3C//DTD SVG 1.1//EN" "http://www.w3.org/Graphics/SVG/1.1/DTD/svg11.dtd" >
<svg xmlns="http://www.w3.org/2000/svg">
<metadata>Generated by IcoMoon</metadata>
<defs>
<font id="az-icons" horiz-adv-x="1024">
<font-face units-per-em="1024" ascent="960" descent="-64" />
<missing-glyph horiz-adv-x="1024" />
<glyph unicode="&#x20;" horiz-adv-x="512" d="" />
<glyph unicode="&#xe900;" glyph-name="arizona" d="M915.2-51.2v998.4h-732.8v-147.2l-19.2-19.2-41.6 22.4-41.6-22.4v-105.6l41.6-64-22.4-22.4v-41.6l64-105.6-41.6-22.4-22.4-35.2 22.4-41.6-22.4-41.6v-64h22.4v-22.4l-44.8-44.8v-41.6l544-188.8h294.4v9.6z" />
<glyph unicode="&#xe901;" glyph-name="award" d="M761.6-51.2l-259.2 179.2-236.8-179.2 48 425.6 41.6 6.4 19.2-51.2 54.4 22.4 32-44.8 44.8 35.2 44.8-35.2 35.2 44.8 51.2-22.4 22.4 51.2 41.6-6.4 60.8-425.6zM793.6 640l35.2 41.6-41.6 32 22.4 48-48 19.2 6.4 48-51.2 6.4-3.2 51.2-51.2-6.4-22.4 44.8-48-19.2-28.8 41.6-41.6-32-41.6 32-32-41.6-48 19.2-19.2-48-51.2 6.4-9.6-48-54.4-6.4 6.4-51.2-48-19.2 19.2-48-41.6-32 32-41.6-32-41.6 41.6-32-22.4-48 48-19.2-12.8-44.8 51.2-3.2 3.2-51.2 51.2 6.4 19.2-48 48 19.2 32-41.6 41.6 32 41.6-32 32 41.6 48-19.2 19.2 48 51.2-6.4 6.4 51.2 51.2 6.4-6.4 51.2 48 19.2-19.2 48 41.6 32-22.4 35.2zM697.6 633.6c-3.2-102.4-86.4-185.6-192-185.6-99.2 0-182.4 80-182.4 179.2 0 3.2 0 6.4 0 9.6 3.2 102.4 86.4 185.6 192 185.6 99.2 0 182.4-80 182.4-179.2 0-3.2 0-6.4 0-9.6z" />
<glyph unicode="&#xe902;" glyph-name="cost" d="M947.2-22.4h-816v960h556.8l256-201.6v-758.4zM195.2 41.6h684.8v662.4l-214.4 169.6h-470.4c0 0 0-832 0-832zM460.8 364.8c6.4-32 32-51.2 67.2-51.2 44.8 0 57.6 22.4 57.6 44.8 0 28.8-16 44.8-70.4 57.6-102.4 32-131.2 67.2-131.2 121.6 0 73.6 64 112 134.4 112 102.4 0 137.6-54.4 140.8-105.6h-83.2c-3.2 16-12.8 44.8-57.6 44.8-38.4 0-48-22.4-48-41.6 0-25.6 12.8-38.4 76.8-57.6 89.6-25.6 121.6-60.8 121.6-124.8 0-80-60.8-118.4-147.2-118.4-89.6 0-144 44.8-147.2 112l86.4 6.4c0-3.2 0 0 0 0zM486.4 627.2v60.8h70.4v-60.8c0 0-70.4 0-70.4 0zM489.6 204.8v86.4h70.4v-86.4c3.2 0-70.4 0-70.4 0z" />
<glyph unicode="&#xe903;" glyph-name="facebook" d="M0 960h1024v-1024h-1024v1024zM640 460.8l12.8 102.4h-92.8v51.2c0 25.6 3.2 41.6 41.6 41.6h51.2v99.2h-83.2c-99.2 0-131.2-48-131.2-131.2v-60.8h-60.8v-102.4h60.8v-294.4h121.6v294.4h80z" />
<glyph unicode="&#xe904;" glyph-name="financial-aid" d="M531.2 160v-57.6h-41.6v57.6c-44.8 3.2-89.6 22.4-121.6 54.4l41.6 54.4c22.4-22.4 51.2-38.4 80-44.8v80c-54.4 12.8-112 32-112 102.4 0 51.2 41.6 96 112 102.4v57.6h41.6v-54.4c41.6-3.2 83.2-19.2 112-44.8l-41.6-54.4c-19.2 19.2-44.8 28.8-73.6 32v-73.6c64-12.8 121.6-35.2 121.6-105.6 3.2-54.4-35.2-99.2-118.4-105.6zM489.6 384v64c-25.6 0-41.6-16-41.6-32s16-25.6 41.6-32v0zM572.8 259.2c0 19.2-19.2 28.8-41.6 35.2v-73.6c28.8 6.4 41.6 22.4 41.6 38.4v0zM998.4 611.2h-976l486.4 326.4 489.6-326.4zM60.8 569.6h102.4v-467.2h-102.4v467.2zM998.4 60.8v-102.4h-976v102.4h976zM854.4 569.6h102.4v-467.2h-102.4v467.2zM713.6 569.6h102.4v-467.2h-102.4v467.2zM204.8 569.6h102.4v-467.2h-102.4v467.2z" />
<glyph unicode="&#xe905;" glyph-name="grad-cap" d="M995.2 470.4c-35.2 38.4-70.4 76.8-105.6 115.2-32 35.2-67.2 73.6-99.2 108.8l131.2 252.8-537.6-316.8-371.2-518.4 166.4 67.2 108.8-118.4c0 0 0-3.2 0-3.2 0-16 12.8-25.6 25.6-25.6 0 0 3.2 0 3.2 0 12.8-28.8 25.6-57.6 38.4-83.2 0 6.4 6.4 22.4 22.4 35.2 12.8 9.6 25.6 12.8 28.8 12.8l-67.2 51.2c0 3.2 3.2 6.4 3.2 9.6 0 16-12.8 25.6-25.6 25.6 0 0-3.2 0-3.2 0l-105.6 108.8 57.6 22.4c41.6-48 89.6-96 134.4-147.2 25.6-25.6 51.2-51.2 73.6-76.8l16-16 16 19.2c80 96 227.2 137.6 307.2 134.4h19.2v22.4c3.2 99.2 70.4 214.4 160 294.4l19.2 9.6-16 16zM252.8 249.6l198.4 220.8c16-3.2 35.2 0 51.2 19.2 22.4 22.4 28.8 51.2 12.8 67.2s-44.8 12.8-67.2-9.6c-19.2-19.2-25.6-38.4-19.2-54.4l-236.8-268.8-57.6-25.6 281.6 396.8 406.4 243.2-76.8-144-153.6-307.2-339.2-137.6zM796.8 166.4c-99.2-3.2-227.2-48-304-131.2-19.2 19.2-38.4 38.4-57.6 60.8-41.6 44.8-83.2 89.6-124.8 134.4l307.2 128 153.6 294.4c28.8-32 60.8-67.2 89.6-99.2 32-32 64-67.2 92.8-99.2-86.4-73.6-147.2-188.8-156.8-288z" />
<glyph unicode="&#xe906;" glyph-name="instagram" d="M776 528c0 25.6-1.6 51.2-4.8 75.2s-11.2 46.4-27.2 65.6c-22.4 25.6-52.8 36.8-86.4 40-38.4 1.6-75.2 3.2-113.6 3.2s-75.2 0-113.6 0c-25.6 0-51.2-1.6-75.2-4.8s-46.4-11.2-65.6-27.2c-25.6-22.4-36.8-52.8-38.4-86.4-1.6-38.4-3.2-75.2-3.2-113.6s0-75.2 0-113.6c0-25.6 1.6-51.2 4.8-75.2s11.2-46.4 27.2-65.6c22.4-25.6 52.8-36.8 86.4-40 38.4-1.6 75.2-3.2 113.6-3.2s75.2 0 113.6 0c27.2 0 56 1.6 83.2 4.8 46.4 8 78.4 35.2 91.2 81.6 4.8 14.4 6.4 30.4 6.4 46.4 1.6 43.2 1.6 86.4 3.2 129.6 0 0 0 0-1.6 0 0 30.4 0 57.6 0 83.2zM512 283.2c-91.2 0-164.8 73.6-164.8 166.4 0 91.2 73.6 164.8 166.4 164.8 91.2 0 164.8-73.6 164.8-166.4-1.6-91.2-75.2-166.4-166.4-164.8zM683.2 580.8c-20.8 0-38.4 17.6-38.4 38.4s17.6 38.4 38.4 38.4c22.4 0 38.4-17.6 38.4-38.4 1.6-20.8-16-38.4-38.4-38.4zM513.6 555.2c-59.2 0-108.8-48-108.8-107.2s48-107.2 107.2-107.2c59.2 0 107.2 48 107.2 105.6 0 60.8-48 108.8-105.6 108.8zM0 960v-1024h1024v1024h-1024zM833.6 342.4c0-1.6-1.6-4.8-1.6-6.4 0-25.6-1.6-49.6-8-73.6-14.4-54.4-44.8-94.4-97.6-116.8-28.8-12.8-59.2-16-89.6-17.6-6.4 0-12.8-1.6-20.8-1.6-70.4 0-140.8 0-212.8 0-1.6 0-3.2 1.6-6.4 1.6-25.6 0-49.6 1.6-73.6 8-54.4 14.4-94.4 44.8-116.8 97.6-12.8 28.8-16 59.2-17.6 89.6 0 6.4-1.6 12.8-1.6 20.8 0 70.4 0 140.8 0 212.8 0 1.6 1.6 3.2 1.6 6.4 0 25.6 1.6 49.6 8 73.6 14.4 54.4 44.8 94.4 97.6 116.8 28.8 12.8 59.2 16 89.6 17.6 6.4 0 12.8 1.6 20.8 1.6 70.4 0 140.8 0 212.8 0 1.6 0 3.2-1.6 6.4-1.6 25.6 0 49.6-1.6 73.6-8 54.4-14.4 94.4-44.8 116.8-97.6 12.8-28.8 16-59.2 17.6-89.6 0-6.4 1.6-12.8 1.6-20.8 0-72 0-142.4 0-212.8z" />
<glyph unicode="&#xe907;" glyph-name="linkedin" d="M364.8 627.2c28.8 0 44.8-19.2 44.8-41.6s-19.2-41.6-44.8-41.6v0c-25.6 0-44.8 19.2-44.8 41.6 0 25.6 16 41.6 44.8 41.6zM323.2 265.6v246.4h80v-246.4h-80zM604.8 515.2c54.4 0 92.8-35.2 92.8-108.8v-140.8h-80v131.2c0 32-12.8 54.4-41.6 54.4-22.4 0-35.2-16-41.6-28.8-3.2-6.4-3.2-12.8-3.2-19.2v-137.6h-80c0 0 0 224 0 246.4h80v-35.2c9.6 16 32 38.4 73.6 38.4v0 0zM0 960h1024v-1024h-1024v1024zM768 230.4v435.2c0 22.4-16 38.4-38.4 38.4h-435.2c-19.2 0-38.4-16-38.4-38.4v-435.2c0-22.4 16-38.4 38.4-38.4h432c22.4 0 41.6 16 41.6 38.4z" />
<glyph unicode="&#xe908;" glyph-name="majors-and-degrees" d="M1004.8 22.4h-361.6v54.4h304v784h-841.6v-787.2h300.8v-54.4h-355.2v899.2h953.6v-896zM652.8 550.4h-249.6v32h249.6v-32zM764.8 486.4h-476.8v32h473.6v-32zM707.2 425.6h-361.6v32h361.6v-32zM534.4 70.4l-9.6 28.8-9.6-28.8c0 0 19.2 0 19.2 0zM470.4 22.4v19.2h6.4l19.2 60.8h-9.6v19.2h76.8v-19.2h-9.6l19.2-60.8h6.4v-19.2h-51.2v19.2h16l-3.2 12.8h-28.8l-3.2-12.8h9.6v-19.2c0 0-48 0-48 0z" />
<glyph unicode="&#xe909;" glyph-name="map-marker" horiz-adv-x="1120" d="M556.8-51.2v0c-6.4 0-16 3.2-19.2 9.6 0 0-76.8 124.8-150.4 268.8-102.4 195.2-153.6 332.8-153.6 403.2 0 86.4 35.2 169.6 99.2 230.4 60.8 60.8 144 92.8 230.4 92.8s166.4-35.2 227.2-96c60.8-60.8 92.8-140.8 96-227.2 0 0 0 0 0 0 0-73.6-51.2-208-153.6-403.2-73.6-144-150.4-268.8-150.4-268.8-12.8-3.2-19.2-9.6-25.6-9.6v0zM556.8 908.8c-73.6 0-140.8-28.8-195.2-80s-83.2-121.6-83.2-195.2c0-44.8 25.6-147.2 147.2-380.8 51.2-99.2 102.4-188.8 131.2-233.6 28.8 44.8 80 134.4 131.2 233.6 121.6 233.6 147.2 336 147.2 380.8 0 73.6-28.8 140.8-80 195.2s-121.6 80-192 80c-6.4 0-6.4 0-6.4 0v0zM1088-64h-1065.6c-12.8 0-22.4 9.6-22.4 22.4s9.6 22.4 22.4 22.4h1065.6c12.8 0 22.4-9.6 22.4-22.4s-9.6-22.4-22.4-22.4zM556.8 819.2c-99.2 0-179.2-80-179.2-179.2s80-179.2 179.2-179.2 179.2 80 179.2 179.2-80 179.2-179.2 179.2zM646.4 556.8c0 0-6.4 9.6-6.4 9.6-6.4-25.6-32-41.6-38.4-44.8-3.2 3.2-9.6 19.2-22.4 19.2s-25.6-16-25.6-16v0c0 3.2-12.8 16-25.6 16s-22.4-19.2-22.4-19.2c-6.4 3.2-32 19.2-38.4 44.8 0 0-6.4-9.6-6.4-9.6-44.8 57.6 0 102.4 3.2 105.6 9.6 12.8 6.4 16 3.2 19.2-3.2 6.4-3.2 16-3.2 22.4 3.2 6.4 3.2 12.8 6.4 19.2 0 6.4 0 12.8-3.2 19.2l12.8 6.4c0-6.4 3.2-9.6 6.4-12.8s12.8-6.4 19.2-12.8c3.2-3.2 9.6-6.4 12.8-9.6 12.8 3.2 22.4 3.2 35.2 3.2v0c12.8 0 25.6-3.2 35.2-3.2 3.2 3.2 6.4 6.4 12.8 9.6 9.6 6.4 16 9.6 19.2 12.8s6.4 6.4 6.4 12.8l12.8-6.4c-3.2-6.4-3.2-12.8-3.2-19.2s3.2-12.8 3.2-19.2c0-6.4 0-16-3.2-22.4 0-3.2-6.4-9.6 3.2-19.2 12.8-3.2 54.4-44.8 6.4-105.6v0 0z" />
<glyph unicode="&#xe90a;" glyph-name="pinterest" d="M1024 960h-1024v-1024h313.6c0 0 0 0 0 3.2 0 9.6 0 16-3.2 22.4 0 9.6-3.2 19.2-3.2 28.8 0 0 0 0 0 0 0 35.2 0 80 9.6 118.4 9.6 41.6 67.2 278.4 67.2 278.4s-16 32-16 80c0 76.8 44.8 131.2 99.2 131.2 44.8 0 67.2-35.2 67.2-76.8 0-48-28.8-115.2-44.8-182.4-12.8-54.4 25.6-99.2 80-99.2 96 0 163.2 124.8 163.2 272 0 112-76.8 195.2-211.2 195.2-153.6 0-252.8-115.2-252.8-243.2 0-44.8 12.8-76.8 35.2-99.2 9.6-9.6 9.6-16 6.4-28.8-3.2-9.6-9.6-32-9.6-41.6-3.2-12.8-12.8-16-25.6-12.8-70.4 28.8-105.6 108.8-105.6 195.2 0 144 121.6 320 364.8 320 195.2 0 323.2-140.8 323.2-291.2 0-201.6-112-348.8-275.2-348.8-54.4 0-105.6 28.8-124.8 64 0 0-28.8-118.4-35.2-140.8-9.6-38.4-32-76.8-51.2-108.8-3.2-3.2-6.4-6.4-9.6-9.6-9.6-6.4-16-16-25.6-22.4h688v1020.8z" />
<glyph unicode="&#xe90b;" glyph-name="scholarship" d="M761.6-51.2l-259.2 179.2-236.8-179.2 48 425.6 41.6 6.4 19.2-51.2 54.4 22.4 32-44.8 44.8 35.2 44.8-35.2 35.2 44.8 51.2-22.4 22.4 51.2 41.6-6.4 60.8-425.6zM793.6 640l35.2 41.6-41.6 32 22.4 48-48 19.2 6.4 48-51.2 6.4-3.2 51.2-51.2-6.4-22.4 44.8-48-19.2-28.8 41.6-41.6-32-41.6 32-32-41.6-48 19.2-19.2-48-51.2 6.4-9.6-48-54.4-6.4 6.4-51.2-48-19.2 19.2-48-41.6-32 32-41.6-32-41.6 41.6-32-22.4-48 48-19.2-12.8-44.8 51.2-3.2 3.2-51.2 51.2 6.4 19.2-48 48 19.2 32-41.6 41.6 32 41.6-32 32 41.6 48-19.2 19.2 48 51.2-6.4 6.4 51.2 51.2 6.4-6.4 51.2 48 19.2-19.2 48 41.6 32-22.4 35.2zM697.6 633.6c-3.2-102.4-86.4-185.6-192-185.6-99.2 0-182.4 80-182.4 179.2 0 3.2 0 6.4 0 9.6 3.2 102.4 86.4 185.6 192 185.6 99.2 0 182.4-80 182.4-179.2 0-3.2 0-6.4 0-9.6zM531.2 499.2v-28.8h-41.6v28.8c-32 3.2-64 16-89.6 41.6l28.8 41.6c16-16 35.2-28.8 57.6-32v57.6c-35.2 9.6-80 25.6-80 76.8 3.2 41.6 38.4 76.8 80 76.8v38.4h41.6v-38.4c28.8-3.2 57.6-16 80-35.2l-32-41.6c-12.8 12.8-28.8 22.4-48 25.6v-54.4c38.4-9.6 83.2-25.6 83.2-80 6.4-38.4-22.4-70.4-80-76.8zM489.6 668.8v48c-19.2-3.2-28.8-12.8-28.8-25.6s12.8-19.2 28.8-22.4zM566.4 572.8c0 12.8-12.8 19.2-32 25.6v-54.4c19.2 6.4 32 16 32 28.8z" />
<glyph unicode="&#xe90c;" glyph-name="sign-post" d="M528 483.2c-12.8 0-22.4-9.6-22.4-22.4v-492.8c0-12.8 9.6-22.4 22.4-22.4s22.4 9.6 22.4 22.4v492.8c0 12.8-9.6 22.4-22.4 22.4zM595.2 873.6v6.4l-16 32-6.4 6.4-6.4 3.2-6.4 6.4-12.8 6.4h-19.2c0 0 0 0 0 0h-9.6l-19.2-9.6-9.6 3.2-6.4-3.2-3.2-6.4-3.2-3.2-6.4-12.8-6.4-6.4-6.4-12.8v-16c0 0 0 0 0 0v-9.6l9.6-19.2v-6.4l6.4-12.8 32-16v-41.6c-3.2-16 6.4-25.6 19.2-25.6s22.4 9.6 22.4 22.4v44.8h3.2l25.6 12.8 3.2 3.2 16 32v16c0 0 0 0 0 0v6.4zM550.4 867.2v0 0-6.4l-9.6-9.6h-6.4l-3.2-3.2h-12.8l-3.2 3.2h-3.2l-9.6 9.6v16l16 16h12.8l6.4-6.4 6.4-3.2 6.4-6.4v-9.6zM819.2 454.4h-649.6c-22.4 0-41.6 19.2-41.6 41.6v230.4c0 22.4 19.2 41.6 41.6 41.6h649.6c9.6 0 22.4-3.2 28.8-12.8l86.4-86.4c3.2-3.2 12.8-12.8 12.8-67.2 0-35.2-6.4-44.8-12.8-51.2l-83.2-83.2c-9.6-9.6-19.2-12.8-32-12.8v0zM169.6 726.4v-227.2h649.6l83.2 83.2c3.2 12.8 3.2 51.2 0 64l-83.2 83.2c0 0 0 0 0 0l-649.6-3.2zM902.4 576v0 0zM902.4 643.2v0 0zM729.6 620.8l-12.8 35.2-12.8-35.2c0 0 25.6 0 25.6 0zM646.4 560v25.6h9.6l25.6 73.6h-12.8v25.6h99.2v-25.6h-12.8l25.6-73.6h9.6v-25.6h-64v25.6h12.8l-3.2 16h-38.4l-6.4-16h12.8v-25.6h-57.6z" />
<glyph unicode="&#xe90d;" glyph-name="spotify" d="M774.4 553.6c16-12.8 19.2-35.2 6.4-51.2-9.6-12.8-28.8-19.2-44.8-12.8-124.8 73.6-329.6 80-444.8 44.8-19.2-6.4-38.4 3.2-44.8 22.4s3.2 38.4 22.4 44.8c137.6 44.8 364.8 35.2 505.6-48zM726.4 422.4c-131.2 73.6-288 92.8-432 51.2-16-3.2-25.6-22.4-19.2-38.4s22.4-25.6 38.4-19.2c121.6 38.4 278.4 19.2 384-44.8 0 0 0 0 0 0 12.8-9.6 32-3.2 41.6 9.6v0c3.2 16 0 35.2-12.8 41.6zM681.6 310.4c-102.4 60.8-227.2 76.8-374.4 41.6-12.8-3.2-22.4-16-19.2-28.8s16-22.4 28.8-19.2c134.4 32 246.4 19.2 336-38.4 0 0 0 0 0 0 12.8-6.4 25.6-3.2 32 9.6 0 0 0 0 0 0 9.6 12.8 6.4 28.8-3.2 35.2zM1024 960v-1024h-1024v1024h1024zM896 448c0 211.2-172.8 384-384 384s-384-172.8-384-384 172.8-384 384-384 384 172.8 384 384z" />
<glyph unicode="&#xe90e;" glyph-name="spring-fling" d="M140.8 556.8h-16c-16 0-25.6-16-25.6-35.2s12.8-35.2 25.6-35.2h16c-3.2 12.8-3.2 28.8-3.2 41.6 3.2 9.6 3.2 19.2 3.2 28.8v0 0zM156.8 400c-16 0-25.6-16-25.6-35.2s12.8-35.2 25.6-35.2h28.8c3.2 0 6.4 0 9.6 3.2-12.8 22.4-22.4 44.8-32 67.2h-6.4zM249.6 265.6c-6.4-6.4-12.8-16-12.8-28.8 0-19.2 12.8-35.2 25.6-35.2h28.8c9.6 0 16 6.4 19.2 12.8-22.4 16-44.8 32-60.8 51.2v0 0zM716.8 217.6c3.2-3.2 9.6-6.4 16-6.4h28.8c16 0 25.6 16 25.6 35.2 0 9.6-3.2 16-6.4 22.4-19.2-16-41.6-35.2-64-51.2v0 0zM838.4 339.2h28.8c16 0 25.6 16 25.6 35.2s-12.8 35.2-25.6 35.2h-3.2c-9.6-22.4-19.2-48-32-67.2 3.2-3.2 3.2-3.2 6.4-3.2 0 0 0 0 0 0zM899.2 569.6h-16c3.2-12.8 3.2-25.6 3.2-41.6 0-9.6 0-19.2 0-28.8h16c16 0 25.6 16 25.6 35.2-3.2 19.2-16 35.2-28.8 35.2 0 0 0 0 0 0zM883.2 691.2c0 19.2-12.8 35.2-25.6 35.2h-28.8c0 0 0 0 0 0 12.8-22.4 25.6-44.8 35.2-70.4 9.6 3.2 19.2 16 19.2 35.2v0 0zM777.6 809.6c0 19.2-12.8 35.2-25.6 35.2h-28.8c-3.2 0-6.4 0-9.6-3.2 22.4-16 44.8-32 60.8-48 0 3.2 3.2 9.6 3.2 16v0 0zM633.6 889.6c0 19.2-12.8 35.2-25.6 35.2h-28.8c-12.8 0-22.4-9.6-25.6-25.6 25.6-3.2 54.4-9.6 80-19.2 0 3.2 0 6.4 0 9.6 0 0 0 0 0 0zM451.2 924.8h-28.8c-16 0-25.6-16-25.6-35.2 0-3.2 0-6.4 0-6.4 25.6 6.4 54.4 12.8 83.2 16-3.2 16-16 25.6-28.8 25.6v0 0zM304 864h-28.8c-16 0-28.8-16-28.8-35.2 0-9.6 3.2-22.4 9.6-28.8 19.2 19.2 41.6 35.2 67.2 48-6.4 9.6-12.8 16-19.2 16v0 0zM195.2 739.2h-28.8c-16 0-25.6-16-25.6-35.2s12.8-35.2 25.6-35.2v0c9.6 22.4 22.4 44.8 35.2 67.2 0 0-3.2 3.2-6.4 3.2zM326.4 208c-3.2 0-3.2 0 0 0v0 0zM675.2 195.2v0c0 0 0 0 0 0v0zM348.8 195.2v0c0 0 0 0 0 0v0zM697.6 208v0c0 0-3.2 0-3.2-3.2l3.2 3.2zM348.8 195.2c48-22.4 105.6-38.4 163.2-38.4s115.2 12.8 163.2 38.4l-160 304-166.4-304zM534.4 169.6h-41.6v243.2h41.6v-243.2zM841.6 534.4c0 19.2 12.8 35.2 25.6 35.2h12.8c-3.2 28.8-9.6 60.8-19.2 86.4-3.2 0-3.2 0-3.2 0h-28.8c-16 0-28.8 16-28.8 35.2s12.8 35.2 25.6 35.2c-16 25.6-35.2 48-54.4 67.2-3.2-9.6-12.8-19.2-22.4-19.2h-28.8c-16 0-25.6 16-25.6 35.2 0 16 6.4 28.8 16 32-25.6 16-51.2 28.8-80 38.4-3.2-16-12.8-28.8-25.6-28.8h-28.8c-16 0-25.6 16-25.6 35.2 0 3.2 0 6.4 3.2 9.6-12.8 3.2-28.8 3.2-41.6 3.2-9.6 0-22.4 0-32-3.2 0-3.2 0-6.4 0-9.6 0-19.2-12.8-35.2-25.6-35.2h-28.8c-12.8 0-22.4 12.8-25.6 28.8-25.6-9.6-51.2-19.2-73.6-32 3.2-6.4 6.4-12.8 6.4-22.4 0-19.2-12.8-35.2-25.6-35.2h-35.2c-6.4 3.2-9.6 3.2-16 9.6-19.2-19.2-38.4-38.4-54.4-64 9.6-3.2 19.2-16 19.2-32 0-19.2-12.8-35.2-25.6-35.2h-28.8c-12.8-35.2-22.4-70.4-25.6-112h12.8c16 0 25.6-16 25.6-35.2s-12.8-35.2-25.6-35.2h-9.6c3.2-32 9.6-60.8 19.2-86.4h22.4c16 0 25.6-16 25.6-35.2 0-16-6.4-28.8-16-32 16-22.4 32-44.8 51.2-67.2 3.2 3.2 9.6 6.4 16 6.4h28.8c16 0 25.6-16 25.6-35.2 0-9.6-3.2-16-6.4-22.4 3.2-3.2 6.4-6.4 9.6-6.4l192 348.8 185.6-348.8c6.4 3.2 12.8 6.4 19.2 9.6-9.6 6.4-12.8 19.2-12.8 32 0 19.2 12.8 35.2 25.6 35.2h28.8c6.4 0 16-3.2 19.2-12.8 19.2 19.2 38.4 44.8 54.4 70.4-9.6 3.2-19.2 16-19.2 32 0 19.2 12.8 35.2 25.6 35.2h25.6c9.6 28.8 16 57.6 19.2 89.6h-12.8c-16 0-28.8 16-28.8 35.2v0 0zM854.4 627.2l9.6-41.6-236.8-60.8-9.6 41.6 236.8 60.8zM169.6 598.4l9.6 41.6 233.6-60.8-9.6-41.6c0 0-233.6 60.8-233.6 60.8zM179.2 425.6l-9.6 41.6 236.8 57.6 9.6-41.6c0 0-236.8-57.6-236.8-57.6zM246.4 291.2l-25.6 32 192 147.2 25.6-32c0 0-192-147.2-192-147.2zM419.2 588.8l-188.8 153.6 25.6 32 188.8-153.6-25.6-32zM451.2 620.8l-105.6 217.6 38.4 19.2 105.6-217.6c0 0-38.4-19.2-38.4-19.2zM534.4 636.8h-41.6v243.2h41.6v-243.2zM544 636.8l102.4 220.8 38.4-19.2-102.4-220.8-38.4 19.2zM777.6 758.4l25.6-32-192-147.2-25.6 32c0 0 192 147.2 192 147.2zM774.4 288l-188.8 153.6 25.6 32 188.8-153.6c3.2 0-25.6-32-25.6-32zM854.4 419.2l-236.8 60.8 9.6 41.6 233.6-60.8-6.4-41.6zM64 64h896v-64h-896c0 0 0 64 0 64zM348.8 195.2l-70.4-131.2c0 0-28.8 0-32 0l80 144c0 0 22.4-12.8 22.4-12.8v0 0zM675.2 195.2l70.4-131.2h28.8l-76.8 144-22.4-12.8z" />
<glyph unicode="&#xe90f;" glyph-name="tiktok" d="M0 960v-1024h1024v1024h-1024zM896 524.8c-76.8 0-150.4 22.4-214.4 67.2v-185.6c0-70.4 6.4-137.6-16-204.8-12.8-44.8-38.4-83.2-73.6-115.2-41.6-38.4-96-60.8-153.6-67.2h-12.8c-243.2-3.2-284.8 208-284.8 208-35.2 140.8 67.2 246.4 67.2 246.4 60.8 64 147.2 92.8 233.6 83.2v-150.4c-38.4 9.6-80 3.2-112-19.2-22.4-19.2-38.4-48-41.6-76.8 0-6.4 0-16 0-22.4 0-22.4 6.4-41.6 16-60.8 25.6-51.2 96-70.4 147.2-54.4 48 16 80 64 80 115.2v585.6h147.2c16-204.8 217.6-204.8 217.6-204.8v-144z" />
<glyph unicode="&#xe910;" glyph-name="twitter" d="M3.2 960h1020.8v-1024h-1020.8c0 0 0 1024 0 1024zM716.8 563.2c22.4 16 38.4 35.2 51.2 54.4-19.2-9.6-38.4-16-60.8-16 22.4 12.8 38.4 35.2 44.8 57.6-19.2-12.8-41.6-22.4-67.2-25.6-19.2 22.4-44.8 35.2-76.8 35.2-57.6 0-105.6-48-105.6-105.6 0-6.4 0-16 3.2-22.4-86.4 3.2-166.4 44.8-217.6 112-9.6-16-16-35.2-16-54.4 0-38.4 19.2-67.2 48-86.4-16 0-32 6.4-48 12.8v0c0-51.2 35.2-92.8 83.2-102.4-9.6-3.2-19.2-3.2-28.8-3.2-6.4 0-12.8 0-19.2 3.2 12.8-41.6 51.2-73.6 99.2-73.6-35.2-28.8-80-44.8-131.2-44.8-6.4 0-16 0-25.6 0 48-32 102.4-48 163.2-48 192 0 297.6 160 297.6 300.8l6.4 6.4z" />
<glyph unicode="&#xe911;" glyph-name="wildcat" d="M524.8 806.4c51.2 0 102.4-9.6 150.4-28.8 16 16 32 28.8 51.2 41.6 38.4 22.4 70.4 41.6 86.4 54.4s25.6 32 32 51.2l57.6-22.4c-6.4-25.6-9.6-51.2-9.6-76.8 0-32 19.2-64 19.2-80 3.2-22.4-9.6-70.4-22.4-102.4-6.4-16-22.4-38.4 12.8-86.4 16-19.2 195.2-198.4-6.4-448 0 3.2-25.6 76.8-25.6 76.8-25.6-115.2-128-201.6-160-220.8-9.6 6.4-41.6 80-99.2 80-51.2 0-105.6-54.4-108.8-60.8v0c-3.2 6.4-57.6 60.8-112 60.8-57.6 0-89.6-73.6-99.2-80-73.6 54.4-121.6 131.2-140.8 220.8 0 0-35.2-76.8-35.2-80-192 249.6 0 428.8 16 448 38.4 48 22.4 70.4 19.2 86.4-9.6 35.2-22.4 86.4-19.2 108.8 9.6 25.6 16 51.2 22.4 80 0 22.4 0 73.6 0 73.6l57.6 22.4c3.2-19.2 12.8-38.4 28.8-51.2s48-28.8 83.2-54.4c19.2-12.8 35.2-25.6 51.2-38.4 44.8 16 96 25.6 150.4 25.6v0z" />
<glyph unicode="&#xe912;" glyph-name="youtube" d="M448 355.2v182.4l176-92.8-176-89.6zM0 960h1024v-1024h-1024v1024zM848 412.8v0 51.2c0 54.4-6.4 108.8-6.4 108.8s-6.4 44.8-25.6 67.2c-25.6 25.6-54.4 25.6-67.2 28.8-96 6.4-236.8 6.4-236.8 6.4v0c0 0-140.8 0-233.6-6.4-12.8 0-41.6 0-67.2-28.8-19.2-19.2-25.6-67.2-25.6-67.2s-6.4-54.4-6.4-108.8v-51.2c0-54.4 6.4-108.8 6.4-108.8s6.4-44.8 25.6-67.2c25.6-25.6 60.8-25.6 73.6-28.8 54.4-6.4 227.2-6.4 227.2-6.4s140.8 0 233.6 6.4c12.8 0 41.6 0 67.2 28.8 19.2 19.2 25.6 67.2 25.6 67.2s9.6 57.6 9.6 108.8v0z" />
<glyph unicode="&#xe913;" glyph-name="vimeo" d="M0 960v-1024h1024v1024h-1024zM860.8 620.8c-3.2-73.6-54.4-169.6-150.4-294.4-99.2-131.2-185.6-195.2-256-195.2-41.6 0-80 38.4-108.8 118.4-19.2 73.6-38.4 147.2-60.8 217.6-22.4 80-44.8 118.4-70.4 118.4-6.4 0-25.6-12.8-57.6-35.2l-35.2 44.8c35.2 32 73.6 64 108.8 96 48 41.6 86.4 64 108.8 67.2 57.6 6.4 92.8-35.2 105.6-118.4 12.8-89.6 25.6-147.2 28.8-169.6 16-76.8 35.2-112 54.4-112 16 0 38.4 25.6 70.4 73.6s48 86.4 51.2 112c3.2 41.6-12.8 64-51.2 64-19.2 0-35.2-3.2-54.4-12.8 35.2 118.4 105.6 176 208 172.8 76.8-3.2 115.2-51.2 108.8-147.2z" />
<glyph unicode="&#xe914;" glyph-name="x-twitter" d="M246.4 752l460.8-604.8h70.4l-457.6 604.8zM0 960v-1024h1024v1024h-1024zM672 70.4l-201.6 262.4-230.4-262.4h-128l297.6 342.4-313.6 412.8h262.4l182.4-240 211.2 240h128l-278.4-320 326.4-435.2h-256z" />
</font>
</defs>
</svg>
