<?xml version="1.0" encoding="utf-8"?>
<!-- Generator: Adobe Illustrator 25.2.3, SVG Export Plug-In . SVG Version: 6.00 Build 0)  -->
<svg version="1.1" id="Layer_1" xmlns="http://www.w3.org/2000/svg" xmlns:xlink="http://www.w3.org/1999/xlink" x="0px" y="0px"
	 viewBox="0 0 32 32" style="enable-background:new 0 0 32 32;" xml:space="preserve">
<path d="M31.1,14.1c-3.1,3.1-3.3,8.2-3.8,12.6c-4.1,0.2-10.1,0.7-13.2,3.8l-5.5-6l11.8-4.7l5-11.2L31.1,14.1z M9.1,8.5L0.9,26
	l1.9-0.8l0.9-0.4l3.9,3.9l0.3-0.3l1.7,2.6l1.1-1.1l0.7-0.7l-2.6-1.7L9,27.4l-3.3-3.3l1.8-0.7l11.6-4.8l5.1-11l2.2-4.7l0.8-1.8
	L9.1,8.5z M14.7,14.1c-0.7,0.7-1.6,1.1-2,0.7c-0.3-0.3,0-1.2,0.7-2c0.7-0.7,1.6-1.1,2-0.7S15.5,13.4,14.7,14.1z"/>
</svg>
