<?xml version="1.0" encoding="utf-8"?>
<!-- Generator: Adobe Illustrator 16.0.0, SVG Export Plug-In . SVG Version: 6.00 Build 0)  -->
<!DOCTYPE svg PUBLIC "-//W3C//DTD SVG 1.1//EN" "http://www.w3.org/Graphics/SVG/1.1/DTD/svg11.dtd">
<svg version="1.1" id="Layer_1" xmlns="http://www.w3.org/2000/svg" xmlns:xlink="http://www.w3.org/1999/xlink" x="0px" y="0px"
	 width="64px" height="64px" viewBox="0 0 64 64" enable-background="new 0 0 64 64" xml:space="preserve">
<g>
	<path fill-rule="evenodd" clip-rule="evenodd" fill="#333333" d="M48.457,26.969c-0.041-1.579-0.101-3.164-0.263-4.736
		c-0.152-1.503-0.681-2.887-1.695-4.056c-1.421-1.637-3.295-2.325-5.369-2.452c-2.362-0.143-4.728-0.178-7.095-0.207
		c-2.356-0.029-4.711-0.02-7.066,0.026c-1.579,0.032-3.164,0.101-4.736,0.259c-1.503,0.154-2.887,0.684-4.056,1.699
		c-1.635,1.418-2.325,3.292-2.45,5.367c-0.145,2.362-0.18,4.731-0.209,7.097c-0.029,2.354-0.02,4.71,0.029,7.066
		c0.03,1.579,0.098,3.164,0.257,4.735c0.154,1.503,0.684,2.888,1.699,4.057c1.418,1.635,3.292,2.325,5.367,2.452
		c2.362,0.142,4.731,0.178,7.097,0.206c2.354,0.029,4.711,0.03,7.064-0.03c1.738-0.046,3.493-0.078,5.205-0.347
		c2.928-0.46,4.906-2.156,5.694-5.06c0.255-0.94,0.387-1.935,0.425-2.91c0.1-2.71,0.119-5.425,0.172-8.139c-0.021,0-0.042,0-0.062,0
		C48.466,30.322,48.498,28.645,48.457,26.969z M31.971,42.343c-5.701-0.009-10.318-4.64-10.312-10.352
		c0.003-5.724,4.638-10.342,10.37-10.334c5.703,0.011,10.318,4.64,10.316,10.353C42.342,37.731,37.704,42.352,31.971,42.343z
		 M42.737,23.692c-1.331,0.001-2.433-1.106-2.428-2.443c0.005-1.322,1.09-2.407,2.41-2.414c1.354-0.006,2.443,1.07,2.446,2.416
		C45.166,22.597,44.081,23.688,42.737,23.692z"/>
	<path fill-rule="evenodd" clip-rule="evenodd" fill="#333333" d="M32.066,25.305c-3.747-0.003-6.761,2.975-6.761,6.679
		c0,3.704,2.998,6.712,6.689,6.712c3.663,0,6.699-2.997,6.702-6.621C38.698,28.344,35.725,25.307,32.066,25.305z"/>
	<path fill-rule="evenodd" clip-rule="evenodd" fill="#333333" d="M0,0v64h64V0H0z M52.125,38.629
		c-0.021,0.125-0.061,0.252-0.061,0.377c-0.046,1.556-0.118,3.108-0.497,4.627c-0.861,3.429-2.85,5.921-6.119,7.336
		c-1.772,0.768-3.656,0.988-5.565,1.066c-0.419,0.019-0.836,0.06-1.254,0.09c-4.419,0-8.837,0-13.258,0
		c-0.125-0.021-0.25-0.059-0.377-0.062c-1.554-0.046-3.108-0.118-4.627-0.499c-3.427-0.858-5.921-2.846-7.334-6.115
		c-0.767-1.772-0.988-3.656-1.066-5.563c-0.018-0.421-0.059-0.838-0.091-1.256c0-4.419,0-8.837,0-13.258
		c0.023-0.125,0.061-0.25,0.064-0.377c0.046-1.556,0.116-3.108,0.499-4.627c0.859-3.427,2.848-5.921,6.116-7.334
		c1.772-0.767,3.655-0.99,5.565-1.066c0.418-0.018,0.834-0.061,1.252-0.091c4.421,0,8.839,0,13.258,0
		c0.127,0.021,0.25,0.061,0.377,0.064c1.558,0.046,3.108,0.116,4.627,0.497c3.427,0.861,5.921,2.848,7.334,6.118
		c0.77,1.772,0.99,3.655,1.068,5.563c0.019,0.42,0.062,0.836,0.09,1.254C52.125,29.792,52.125,34.21,52.125,38.629z"/>
</g>
</svg>
