<?xml version="1.0" encoding="utf-8"?>
<!-- Generated by IcoMoon.io -->
<!DOCTYPE svg PUBLIC "-//W3C//DTD SVG 1.1//EN" "http://www.w3.org/Graphics/SVG/1.1/DTD/svg11.dtd">
<svg version="1.1" xmlns="http://www.w3.org/2000/svg" xmlns:xlink="http://www.w3.org/1999/xlink" width="32" height="32" viewBox="0 0 32 32">
<g id="icomoon-ignore">
</g>
<path d="M11.416 10.362c0.878 0 1.405 0.562 1.405 1.335 0 0.738-0.562 1.335-1.44 1.335v0c-0.843 0-1.405-0.597-1.405-1.335 0-0.773 0.562-1.335 1.44-1.335zM10.116 21.708v-7.657h2.529v7.658l-2.529-0zM18.898 13.875c1.686 0 2.915 1.089 2.915 3.442v4.356h-2.529v-4.075c0-1.019-0.386-1.721-1.3-1.721-0.702 0-1.124 0.457-1.3 0.913-0.070 0.176-0.070 0.386-0.070 0.632v4.285h-2.529c0 0 0.035-6.955 0-7.658h2.529v1.089c0.316-0.527 0.948-1.264 2.283-1.264l0-0zM0 0h32v32h-32v-32zM24.001 22.806l-0.001-13.611c0-0.667-0.527-1.194-1.229-1.194l-13.542 0.012c-0.667 0-1.229 0.527-1.229 1.194l-0.001 13.609c0 0.668 0.527 1.194 1.229 1.194l13.544-0.010c0.667 0 1.229-0.527 1.229-1.194z" fill="#000000"></path>
</svg>
