<!-- Generated by IcoMoon.io -->
<svg version="1.1" xmlns="http://www.w3.org/2000/svg" width="32" height="32" viewBox="0 0 32 32">
<title>majors-and-degrees</title>
<path d="M31.353 29.345h-11.213v-1.743h9.456v-24.551h-26.281v24.551h9.39v1.743h-11.146v-28.051h29.794z"></path>
<path d="M20.352 12.758h-7.779v-1.004h7.779v1.004z"></path>
<path d="M23.878 14.752h-14.844v-1.017h14.844v1.017z"></path>
<path d="M22.135 16.733h-11.345v-1.017h11.345v1.017z"></path>
<path d="M16.72 27.774l-0.277-0.911h-0.013l-0.291 0.911h0.581zM14.659 29.345v-0.647h0.225l0.647-1.862h-0.277v-0.647h2.443v0.647h-0.277l0.621 1.862h0.224v0.647h-1.572v-0.647h0.343l-0.145-0.396h-0.938l-0.145 0.396h0.343v0.647h-1.492z"></path>
</svg>
