<!-- Generated by IcoMoon.io -->
<svg version="1.1" xmlns="http://www.w3.org/2000/svg" width="35" height="32" viewBox="0 0 35 32">
<title>map-marker</title>
<path d="M17.351 31.559c0 0 0 0 0 0-0.248 0-0.482-0.138-0.62-0.345-0.028-0.041-2.398-3.941-4.741-8.434-3.17-6.091-4.782-10.35-4.782-12.624 0.041-2.729 1.13-5.264 3.059-7.152 1.943-1.902 4.506-2.922 7.221-2.88 2.66 0.028 5.168 1.089 7.056 2.963 1.888 1.888 2.935 4.396 2.977 7.056 0 0 0 0 0 0.014 0 2.274-1.612 6.532-4.796 12.624-2.343 4.493-4.713 8.393-4.741 8.434-0.152 0.221-0.386 0.345-0.634 0.345zM17.351 1.557c-2.288 0-4.438 0.882-6.078 2.481-1.668 1.626-2.591 3.804-2.632 6.133 0 1.392 0.799 4.617 4.63 11.948 1.599 3.073 3.225 5.871 4.079 7.318 0.854-1.447 2.481-4.245 4.079-7.318 3.831-7.332 4.63-10.543 4.63-11.948-0.028-2.288-0.937-4.438-2.55-6.050s-3.762-2.522-6.050-2.55c-0.028-0.014-0.069-0.014-0.11-0.014z"></path>
<path d="M34.040 31.986h-33.323c-0.4 0-0.717-0.317-0.717-0.717s0.317-0.717 0.717-0.717h33.323c0.4 0 0.717 0.317 0.717 0.717s-0.317 0.717-0.717 0.717z"></path>
<path d="M17.364 4.41c-3.115 0-5.65 2.536-5.65 5.65s2.536 5.65 5.65 5.65 5.65-2.536 5.65-5.65-2.536-5.65-5.65-5.65zM20.217 12.555c-0.014-0.014-0.152-0.345-0.152-0.345-0.179 0.841-1.006 1.268-1.24 1.392-0.069-0.055-0.276-0.634-0.703-0.648-0.4 0-0.799 0.455-0.827 0.51v0c-0.028-0.055-0.413-0.51-0.799-0.496-0.441 0.014-0.662 0.593-0.744 0.648-0.234-0.124-1.034-0.551-1.171-1.378 0 0-0.152 0.331-0.165 0.345-1.419-1.847 0-3.183 0.124-3.321 0.289-0.358 0.165-0.51 0.138-0.634-0.069-0.234-0.096-0.496-0.055-0.73 0.069-0.207 0.124-0.413 0.152-0.634-0.014-0.193-0.041-0.372-0.096-0.551l0.427-0.165c0.028 0.152 0.096 0.289 0.207 0.386 0.124 0.096 0.358 0.221 0.634 0.4 0.138 0.083 0.262 0.193 0.372 0.303 0.372-0.083 0.744-0.138 1.13-0.138v0c0.372 0 0.758 0.055 1.13 0.138 0.124-0.11 0.248-0.221 0.386-0.303 0.289-0.179 0.524-0.303 0.648-0.4 0.11-0.11 0.193-0.248 0.221-0.413l0.413 0.165c-0.055 0.179-0.11 0.358-0.124 0.551 0.028 0.221 0.069 0.427 0.124 0.634 0.028 0.248 0 0.496-0.083 0.73-0.041 0.124-0.179 0.276 0.096 0.634 0.124 0.138 1.475 1.461-0.041 3.321v0z"></path>
</svg>
