<?xml version="1.0" encoding="utf-8"?>
<!-- Generated by IcoMoon.io -->
<!DOCTYPE svg PUBLIC "-//W3C//DTD SVG 1.1//EN" "http://www.w3.org/Graphics/SVG/1.1/DTD/svg11.dtd">
<svg version="1.1" xmlns="http://www.w3.org/2000/svg" xmlns:xlink="http://www.w3.org/1999/xlink" width="32" height="32" viewBox="0 0 32 32">
<g id="icomoon-ignore">
</g>
<path d="M32.001 0h-32.001v32h9.751c0-0.023 0.006-0.043 0.006-0.067-0.011-0.251-0.038-0.499-0.073-0.748-0.033-0.299-0.069-0.596-0.128-0.891 0.014 0.007 0.028 0.014 0.041 0.020-0.046-1.115-0.009-2.452 0.276-3.665 0.306-1.293 2.053-8.689 2.053-8.689s-0.51-1.016-0.51-2.523c0-2.364 1.373-4.128 3.078-4.128 1.45 0 2.149 1.087 2.149 2.394 0 1.458-0.929 3.637-1.408 5.659-0.398 1.691 0.85 3.073 2.518 3.073 3.024 0 5.059-3.881 5.059-8.481 0-3.495-2.355-6.113-6.637-6.113-4.838 0-7.854 3.608-7.854 7.639 0 1.39 0.412 2.371 1.052 3.129 0.295 0.348 0.335 0.489 0.231 0.89-0.079 0.292-0.253 0.999-0.325 1.278-0.104 0.404-0.435 0.549-0.799 0.399-2.229-0.909-3.267-3.351-3.267-6.093 0-4.532 3.82-9.963 11.399-9.963 6.088 0 10.096 4.407 10.096 9.135 0 6.257-3.478 10.933-8.605 10.933-1.721 0-3.34-0.933-3.896-1.99 0 0-0.927 3.675-1.124 4.385-0.331 1.207-0.974 2.41-1.57 3.36-0.123 0.104-0.234 0.221-0.335 0.345-0.283 0.219-0.543 0.453-0.791 0.71h21.614v-32l0-0z" fill="#000000"></path>
</svg>
