<?xml version="1.0" encoding="utf-8"?>
<!-- Generator: Adobe Illustrator 25.2.3, SVG Export Plug-In . SVG Version: 6.00 Build 0)  -->
<svg version="1.1" id="Layer_1" xmlns="http://www.w3.org/2000/svg" xmlns:xlink="http://www.w3.org/1999/xlink" x="0px" y="0px"
	 viewBox="0 0 32 32" style="enable-background:new 0 0 32 32;" xml:space="preserve">
<path d="M23.8,31.6L15.7,26l-7.4,5.6l1.5-13.3l1.3-0.2l0.6,1.6l1.7-0.7l1,1.4l1.4-1.1l1.4,1.1l1.1-1.4l1.6,0.7l0.7-1.6l1.3,0.2
	L23.8,31.6z M24.8,10l1.1-1.3l-1.3-1l0.7-1.5l-1.5-0.6L24,4.1l-1.6-0.2l-0.1-1.6l-1.6,0.2L20,1.1l-1.5,0.6l-0.9-1.3l-1.3,1l-1.3-1
	l-1,1.3l-1.5-0.6l-0.6,1.5l-1.6-0.2L10,3.9L8.3,4.1l0.2,1.6L7,6.3l0.6,1.5l-1.3,1l1,1.3l-1,1.3l1.3,1l-0.7,1.5l1.5,0.6L8,15.9
	L9.6,16l0.1,1.6l1.6-0.2l0.6,1.5l1.5-0.6l1,1.3l1.3-1l1.3,1l1-1.3l1.5,0.6l0.6-1.5l1.6,0.2l0.2-1.6l1.6-0.2l-0.2-1.6l1.5-0.6
	l-0.6-1.5l1.3-1L24.8,10z M21.8,10.2c-0.1,3.2-2.7,5.8-6,5.8c-3.1,0-5.7-2.5-5.7-5.6c0-0.1,0-0.2,0-0.3c0.1-3.2,2.7-5.8,6-5.8
	c3.1,0,5.7,2.5,5.7,5.6C21.8,10,21.8,10.1,21.8,10.2z M16.6,14.4v0.9h-1.3v-0.9c-1-0.1-2-0.5-2.8-1.3l0.9-1.3c0.5,0.5,1.1,0.9,1.8,1
	V11c-1.1-0.3-2.5-0.8-2.5-2.4c0.1-1.3,1.2-2.4,2.5-2.4V5h1.3v1.2c0.9,0.1,1.8,0.5,2.5,1.1l-1,1.3c-0.4-0.4-0.9-0.7-1.5-0.8v1.7
	c1.2,0.3,2.6,0.8,2.6,2.5C19.3,13.2,18.4,14.2,16.6,14.4z M15.3,9.1V7.6c-0.6,0.1-0.9,0.4-0.9,0.8S14.8,9,15.3,9.1z M17.7,12.1
	c0-0.4-0.4-0.6-1-0.8v1.7C17.3,12.8,17.7,12.5,17.7,12.1z"/>
</svg>
