<!-- Generated by IcoMoon.io -->
<svg version="1.1" xmlns="http://www.w3.org/2000/svg" width="32" height="32" viewBox="0 0 32 32">
<title>sign-post</title>
<path d="M16.456 14.924c-0.396 0-0.713 0.304-0.713 0.674v15.412c0 0.37 0.317 0.674 0.713 0.674s0.713-0.304 0.713-0.674v-15.412c0-0.37-0.317-0.674-0.713-0.674z"></path>
<path d="M18.595 2.721l-0.026-0.211-0.053-0.211-0.066-0.198-0.079-0.198-0.106-0.185-0.119-0.172-0.132-0.158-0.145-0.145-0.158-0.132-0.172-0.119-0.185-0.092-0.198-0.079-0.198-0.066-0.211-0.040-0.198-0.013h-0.079c-0.013 0-0.026 0-0.040 0h-0.132l-0.211 0.026-0.211 0.066-0.198 0.066-0.198 0.079-0.185 0.106-0.172 0.119-0.158 0.132-0.145 0.145-0.132 0.158-0.119 0.172-0.092 0.185-0.079 0.198-0.066 0.198-0.040 0.211-0.013 0.198v0.079c0 0.013 0 0.026 0 0.040v0.132l0.026 0.211 0.053 0.211 0.066 0.198 0.106 0.198 0.106 0.185 0.119 0.172 0.132 0.158 0.145 0.145 0.158 0.132 0.172 0.119 0.185 0.092 0.185 0.079v1.347c0 0.396 0.317 0.713 0.713 0.713s0.713-0.317 0.713-0.713v-1.373l0.053-0.013 0.198-0.079 0.185-0.106 0.172-0.119 0.158-0.132 0.145-0.145 0.132-0.158 0.119-0.172 0.092-0.185 0.079-0.198 0.066-0.198 0.040-0.211 0.013-0.198v-0.079c0-0.013 0-0.026 0-0.040l-0.013-0.132zM17.169 2.879v-0.040 0.079l-0.013 0.092-0.013 0.066-0.053 0.132-0.079 0.106-0.106 0.106-0.053 0.040-0.066 0.040-0.132 0.053-0.132 0.026h-0.132l-0.092-0.013-0.066-0.013-0.132-0.053-0.106-0.079-0.106-0.106-0.079-0.106-0.053-0.132-0.026-0.132v-0.132l0.013-0.092 0.013-0.066 0.053-0.132 0.079-0.106 0.106-0.106 0.106-0.079 0.132-0.053 0.132-0.026h0.132l0.092 0.013 0.066 0.013 0.132 0.053 0.106 0.079 0.106 0.106 0.079 0.106 0.053 0.132 0.026 0.132v0.079l0.013 0.013z"></path>
<path d="M25.634 15.809h-20.338c-0.74 0-1.321-0.581-1.321-1.321v-7.145c0-0.74 0.581-1.321 1.321-1.321h20.338c0.343 0 0.687 0.145 0.924 0.396l2.655 2.655c0.106 0.106 0.436 0.436 0.383 2.1-0.026 1.083-0.211 1.413-0.396 1.598l-2.641 2.641c-0.224 0.251-0.568 0.396-0.924 0.396zM5.296 7.343v7.145h20.325l2.589-2.589c0.106-0.383 0.092-1.585 0-1.968l-2.589-2.589c0 0-0.013 0 0 0h-20.325zM28.196 11.952v0 0zM28.196 9.879v0 0z"></path>
<path d="M22.768 10.565l-0.357-1.136h-0.013l-0.37 1.136h0.74zM20.193 12.52v-0.806h0.277l0.806-2.324h-0.357v-0.806h3.077v0.806h-0.357l0.779 2.324h0.277v0.806h-1.968v-0.806h0.436l-0.172-0.502h-1.175l-0.172 0.502h0.436v0.806c0 0-1.889 0-1.889 0z"></path>
</svg>
