<?xml version="1.0" encoding="utf-8"?>
<!-- Generated by IcoMoon.io -->
<!DOCTYPE svg PUBLIC "-//W3C//DTD SVG 1.1//EN" "http://www.w3.org/Graphics/SVG/1.1/DTD/svg11.dtd">
<svg version="1.1" xmlns="http://www.w3.org/2000/svg" xmlns:xlink="http://www.w3.org/1999/xlink" width="32" height="32" viewBox="0 0 32 32">
<g id="icomoon-ignore">
</g>
<path d="M4.402 12.591h-0.48c-0.453 0-0.827 0.48-0.827 1.093s0.373 1.093 0.827 1.093h0.533c-0.053-0.427-0.080-0.853-0.080-1.307 0-0.293 0-0.587 0.027-0.88v-0zM4.908 17.498c-0.453 0-0.827 0.48-0.827 1.093s0.373 1.093 0.827 1.093h0.907c0.107 0 0.213-0.027 0.32-0.080-0.4-0.667-0.747-1.36-1.040-2.107l-0.187 0zM7.762 21.658c-0.24 0.187-0.373 0.533-0.373 0.907 0 0.613 0.373 1.093 0.827 1.093h0.907c0.267 0 0.48-0.16 0.64-0.4-0.72-0.453-1.413-0.987-2-1.6h0zM22.375 23.151c0.133 0.107 0.293 0.16 0.453 0.16h0.907c0.453 0 0.827-0.48 0.827-1.093 0-0.267-0.080-0.533-0.213-0.72-0.587 0.64-1.253 1.2-1.973 1.653l0-0zM26.215 19.418h0.907c0.453 0 0.827-0.48 0.827-1.093s-0.373-1.093-0.827-1.093h-0.16c-0.267 0.747-0.587 1.467-0.987 2.133 0.107 0.027 0.16 0.053 0.24 0.053v0zM28.055 12.218h-0.507c0.053 0.427 0.080 0.827 0.080 1.253 0 0.32-0.027 0.613-0.027 0.907h0.48c0.453 0 0.827-0.48 0.827-1.093-0.027-0.587-0.4-1.067-0.853-1.067v0zM27.602 8.431c0-0.613-0.373-1.093-0.827-1.093h-0.907c0 0 0 0-0.027 0 0.427 0.667 0.773 1.387 1.067 2.16 0.4-0.080 0.693-0.533 0.693-1.067l-0-0zM24.295 4.698c0-0.613-0.373-1.093-0.827-1.093h-0.907c-0.107 0-0.213 0.027-0.32 0.080 0.693 0.453 1.36 0.96 1.947 1.547 0.053-0.16 0.107-0.347 0.107-0.533l-0 0zM19.788 2.245c0-0.613-0.373-1.093-0.827-1.093h-0.907c-0.373 0-0.693 0.32-0.8 0.773 0.88 0.107 1.707 0.293 2.507 0.56 0.027-0.080 0.027-0.16 0.027-0.24h0zM14.135 1.098h-0.907c-0.453 0-0.827 0.48-0.827 1.093 0 0.080 0 0.16 0.027 0.24 0.8-0.267 1.653-0.427 2.533-0.507-0.107-0.48-0.427-0.827-0.827-0.827h-0zM9.468 3.045h-0.907c-0.453 0-0.827 0.48-0.827 1.093 0 0.347 0.133 0.667 0.32 0.853 0.613-0.587 1.307-1.093 2.053-1.547-0.16-0.24-0.373-0.4-0.64-0.4v0zM6.108 6.938h-0.907c-0.453 0-0.827 0.48-0.827 1.093s0.373 1.093 0.827 1.093v0c0.293-0.747 0.693-1.467 1.12-2.133-0.053-0.027-0.133-0.053-0.213-0.053zM10.162 23.525c-0.027-0.027-0.053-0.027-0.080-0.053v0l0.080 0.053zM21.095 23.898l0.080-0.027c-0.053 0-0.053 0.027-0.080 0.027v0zM10.882 23.898v0c-0.027 0-0.027-0.027-0.053-0.027l0.053 0.027zM21.815 23.525v0c-0.027 0.027-0.080 0.027-0.107 0.053l0.107-0.053zM10.882 23.898c1.547 0.747 3.28 1.173 5.093 1.173 1.84 0 3.573-0.427 5.093-1.173l-5.013-9.52-5.173 9.52zM16.721 24.698h-1.307v-7.573h1.307v7.573zM26.322 13.311c0-0.613 0.373-1.093 0.827-1.093h0.373c-0.107-0.933-0.32-1.867-0.64-2.72-0.053 0-0.080 0.027-0.133 0.027h-0.88c-0.453 0-0.827-0.48-0.827-1.093 0-0.587 0.373-1.067 0.827-1.093-0.507-0.773-1.067-1.467-1.707-2.107-0.133 0.32-0.427 0.56-0.72 0.56h-0.907c-0.453 0-0.827-0.48-0.827-1.093 0-0.453 0.213-0.853 0.533-1.013-0.773-0.48-1.6-0.907-2.48-1.2-0.080 0.48-0.427 0.853-0.827 0.853h-0.907c-0.453 0-0.827-0.48-0.827-1.093 0-0.107 0.027-0.213 0.053-0.32-0.427-0.053-0.853-0.080-1.28-0.080-0.347 0-0.693 0.027-1.040 0.053 0.027 0.080 0.027 0.187 0.027 0.267 0 0.613-0.373 1.093-0.827 1.093h-0.907c-0.4 0-0.747-0.373-0.827-0.853-0.827 0.267-1.6 0.613-2.32 1.040 0.107 0.187 0.187 0.427 0.187 0.693 0 0.613-0.373 1.093-0.827 1.093h-0.907c-0.187 0-0.373-0.080-0.507-0.24-0.64 0.587-1.2 1.253-1.707 2 0.347 0.133 0.587 0.533 0.587 1.040 0 0.613-0.373 1.093-0.827 1.093h-0.88c-0.427 1.093-0.72 2.24-0.8 3.467h0.427c0.453 0 0.827 0.48 0.827 1.093s-0.373 1.093-0.827 1.093h-0.373c0.107 0.96 0.32 1.867 0.64 2.72h0.693c0.453 0 0.827 0.48 0.827 1.093 0 0.453-0.213 0.853-0.507 1.013 0.48 0.747 1.013 1.44 1.627 2.080 0.133-0.107 0.293-0.187 0.453-0.187h0.907c0.453 0 0.827 0.48 0.827 1.093 0 0.267-0.080 0.507-0.187 0.693 0.107 0.080 0.213 0.16 0.347 0.213l5.92-10.907 5.813 10.933c0.187-0.107 0.373-0.24 0.56-0.347-0.24-0.187-0.4-0.533-0.4-0.933 0-0.613 0.373-1.093 0.827-1.093h0.933c0.24 0 0.48 0.133 0.613 0.373 0.64-0.64 1.173-1.387 1.653-2.16-0.347-0.133-0.613-0.533-0.613-1.040 0-0.613 0.373-1.093 0.827-1.093h0.747c0.32-0.907 0.507-1.84 0.587-2.827h-0.4c-0.453-0.027-0.827-0.507-0.827-1.093l-0-0zM26.668 10.378l0.32 1.253-7.36 1.867-0.32-1.253 7.36-1.867zM5.282 11.258l0.32-1.253 7.333 1.893-0.32 1.253-7.333-1.893zM5.602 16.698l-0.32-1.253 7.36-1.84 0.32 1.253-7.36 1.84zM7.735 20.911l-0.8-1.040 6-4.613 0.8 1.040-6 4.613zM13.122 11.578l-5.893-4.773 0.827-1.013 5.867 4.773-0.8 1.013zM14.135 10.591l-3.333-6.8 1.173-0.587 3.333 6.827-1.173 0.56zM16.721 10.085h-1.307v-7.573h1.307v7.573zM16.988 10.085l3.227-6.853 1.173 0.56-3.227 6.853-1.173-0.56zM24.322 6.298l0.8 1.040-6.027 4.613-0.8-1.040 6.027-4.613zM24.241 21.045l-5.893-4.773 0.827-1.013 5.893 4.773-0.827 1.013zM26.668 16.885l-7.333-1.893 0.32-1.253 7.333 1.893-0.32 1.253zM2.005 28h27.995v1.992h-27.995v-1.992zM10.882 23.898l-2.213 4.107c0 0-0.933 0-1.013 0l2.453-4.533c0.080 0.053 0.773 0.427 0.773 0.427v0zM21.095 23.898l2.186 4.107h0.933l-2.4-4.48-0.72 0.373z" fill="#000000"></path>
</svg>
