<?xml version="1.0" encoding="utf-8"?>
<!-- Generator: Adobe Illustrator 25.2.3, SVG Export Plug-In . SVG Version: 6.00 Build 0)  -->
<svg version="1.1" id="Layer_1" xmlns="http://www.w3.org/2000/svg" xmlns:xlink="http://www.w3.org/1999/xlink" x="0px" y="0px"
	 viewBox="0 0 32 32" style="enable-background:new 0 0 32 32;" xml:space="preserve">
<path d="M0,0v32h32V0H0z M28,13.6c-2.4,0-4.7-0.7-6.7-2.1v5.8c0,2.2,0.2,4.3-0.5,6.4c-0.4,1.4-1.2,2.6-2.3,3.6
	c-1.3,1.2-3,1.9-4.8,2.1h-0.4c-7.6,0.1-8.9-6.5-8.9-6.5c-1.1-4.4,2.1-7.7,2.1-7.7c1.9-2,4.6-2.9,7.3-2.6v4.7
	c-1.2-0.3-2.5-0.1-3.5,0.6c-0.7,0.6-1.2,1.5-1.3,2.4c0,0.2,0,0.5,0,0.7c0,0.7,0.2,1.3,0.5,1.9c0.8,1.6,3,2.2,4.6,1.7
	c1.5-0.5,2.5-2,2.5-3.6V2.7h4.6C21.7,9.1,28,9.1,28,9.1V13.6z"/>
</svg>
