<?xml version="1.0" encoding="utf-8"?>
<!-- Generated by IcoMoon.io -->
<!DOCTYPE svg PUBLIC "-//W3C//DTD SVG 1.1//EN" "http://www.w3.org/Graphics/SVG/1.1/DTD/svg11.dtd">
<svg version="1.1" xmlns="http://www.w3.org/2000/svg" xmlns:xlink="http://www.w3.org/1999/xlink" width="32" height="32" viewBox="0 0 32 32">
<g id="icomoon-ignore">
</g>
<path d="M0.147 0h31.853v32h-31.853v-32zM22.423 12.441c0.666-0.458 1.228-1.057 1.614-1.692-0.596 0.282-1.228 0.458-1.894 0.529 0.666-0.423 1.193-1.057 1.438-1.833-0.632 0.388-1.333 0.67-2.070 0.811-0.596-0.669-1.438-1.057-2.386-1.057-1.824 0-3.298 1.48-3.298 3.313 0 0.247 0 0.493 0.070 0.74-2.736-0.141-5.157-1.445-6.771-3.454-0.281 0.493-0.456 1.057-0.456 1.656 0 1.163 0.596 2.15 1.473 2.749-0.526-0.035-1.017-0.176-1.473-0.423v0.035c0 1.621 1.123 2.925 2.631 3.242-0.281 0.070-0.596 0.106-0.877 0.106-0.21 0-0.421-0.035-0.631-0.070 0.421 1.304 1.649 2.255 3.087 2.291-1.123 0.881-2.526 1.41-4.069 1.41-0.246 0-0.526 0-0.772-0.035 1.473 0.952 3.192 1.48 5.052 1.48 6.034 0 9.331-5.004 9.331-9.374v-0.423l0-0z" fill="#000000"></path>
</svg>
