<?xml version="1.0" encoding="utf-8"?>
<!-- Generator: Adobe Illustrator 25.2.3, SVG Export Plug-In . SVG Version: 6.00 Build 0)  -->
<svg version="1.1" id="Layer_1" xmlns="http://www.w3.org/2000/svg" xmlns:xlink="http://www.w3.org/1999/xlink" x="0px" y="0px"
	 viewBox="0 0 32 32" style="enable-background:new 0 0 32 32;" xml:space="preserve">
<path d="M16.4,4.8c1.6,0,3.2,0.3,4.7,0.9c0.5-0.5,1-0.9,1.6-1.3c1.2-0.7,2.2-1.3,2.7-1.7c0.5-0.4,0.8-1,1-1.6l1.8,0.7
	c-0.2,0.8-0.3,1.6-0.3,2.4c0,1,0.6,2,0.6,2.5c0.1,0.7-0.3,2.2-0.7,3.2c-0.2,0.5-0.7,1.2,0.4,2.7c0.5,0.6,6.1,6.2-0.2,14
	c0-0.1-0.8-2.4-0.8-2.4c-0.8,3.6-4,6.3-5,6.9c-0.3-0.2-1.3-2.5-3.1-2.5c-1.6,0-3.3,1.7-3.4,1.9l0,0c-0.1-0.2-1.8-1.9-3.5-1.9
	c-1.8,0-2.8,2.3-3.1,2.5c-2.3-1.7-3.8-4.1-4.4-6.9c0,0-1.1,2.4-1.1,2.5c-6-7.8,0-13.4,0.5-14c1.2-1.5,0.7-2.2,0.6-2.7
	C4.4,8.9,4,7.3,4.1,6.6C4.4,5.8,4.6,5,4.8,4.1c0-0.7,0-2.3,0-2.3l1.8-0.7c0.1,0.6,0.4,1.2,0.9,1.6c0.5,0.4,1.5,0.9,2.6,1.7
	c0.6,0.4,1.1,0.8,1.6,1.2C13.1,5.1,14.7,4.8,16.4,4.8L16.4,4.8z"/>
</svg>
