<?xml version="1.0" encoding="utf-8"?>
<!-- Generated by IcoMoon.io -->
<!DOCTYPE svg PUBLIC "-//W3C//DTD SVG 1.1//EN" "http://www.w3.org/Graphics/SVG/1.1/DTD/svg11.dtd">
<svg version="1.1" xmlns="http://www.w3.org/2000/svg" xmlns:xlink="http://www.w3.org/1999/xlink" width="32" height="32" viewBox="0 0 32 32">
<g id="icomoon-ignore">
</g>
<path d="M14.024 18.901l0.004-5.729 5.454 2.897-5.458 2.831zM0 0h32v32.035h-32v-32.035zM26.479 17.055v0-1.582c0-1.723-0.211-3.411-0.211-3.411s-0.211-1.442-0.844-2.075c-0.809-0.809-1.688-0.844-2.11-0.879-2.919-0.211-7.314-0.211-7.314-0.211v0c0 0-4.396 0-7.314 0.211-0.422 0.035-1.301 0.035-2.11 0.879-0.633 0.633-0.844 2.075-0.844 2.075s-0.211 1.723-0.211 3.411v1.582c0 1.723 0.211 3.411 0.211 3.411s0.211 1.442 0.844 2.075c0.809 0.844 1.864 0.809 2.321 0.914 1.653 0.176 7.103 0.211 7.103 0.211s4.396 0 7.314-0.246c0.422-0.035 1.301-0.035 2.11-0.879 0.633-0.633 0.844-2.075 0.844-2.075s0.211-1.723 0.211-3.411v0z" fill="#000000"></path>
</svg>
