<?xml version="1.0" encoding="UTF-8" standalone="no"?>
<!-- Created with Inkscape (http://www.inkscape.org/) -->

<svg
   xmlns:dc="http://purl.org/dc/elements/1.1/"
   xmlns:cc="http://creativecommons.org/ns#"
   xmlns:rdf="http://www.w3.org/1999/02/22-rdf-syntax-ns#"
   xmlns:svg="http://www.w3.org/2000/svg"
   xmlns="http://www.w3.org/2000/svg"
   version="1.1"
   width="100%"
   height="100%"
   viewBox="1032.521 383.365 19.587 15.987"
   id="svg3771"
   xml:space="preserve"><metadata
   id="metadata2992"><rdf:RDF><cc:Work
       rdf:about=""><dc:format>image/svg+xml</dc:format><dc:type
         rdf:resource="http://purl.org/dc/dcmitype/StillImage" /><dc:title></dc:title></cc:Work></rdf:RDF></metadata><defs
   id="defs2990" />

<path
   d="m 1051.478,395.161 -3.239,-1.769 c 0.911,-3.47 -0.606,-7.258 -3.892,-9.052 -3.866,-2.111 -8.74,-0.681 -10.851,3.185 -2.111,3.866 -0.68,8.74 3.187,10.851 3.286,1.794 7.292,1.022 9.719,-1.621 l 3.239,1.769 c 0.587,0.32 1.322,0.104 1.642,-0.482 l 0.677,-1.239 c 0.32,-0.586 0.104,-1.321 -0.482,-1.642 z m -13.898,1.573 c -2.979,-1.626 -4.067,-5.332 -2.44,-8.31 1.626,-2.978 5.332,-4.066 8.31,-2.44 2.978,1.626 4.066,5.332 2.44,8.31 -1.626,2.978 -5.332,4.066 -8.31,2.44 z"
   id="path2987"
   style="fill:#ffffff;fill-opacity:1" />
<path
   d="m 1041.145,395.407 c -0.845,0.341 -1.682,0.414 -2.246,0.23 -0.555,-0.154 -0.652,-0.321 -0.695,-0.521 -0.056,-0.327 0.314,-0.875 1.385,-2.052 0.507,-0.557 1.52,-1.916 2.252,-3.019 1.469,-2.215 1.633,-2.334 2.17,-1.581 0.649,0.91 0.536,3.189 -0.355,4.619 -0.574,0.921 -1.617,1.963 -2.511,2.324 l 0,0 z m -3.722,-0.634 c -0.156,-0.056 -0.335,-0.283 -0.465,-0.59 -0.743,-1.749 0.101,-4.585 1.777,-5.977 1.236,-1.027 3.202,-1.461 3.912,-0.865 0.48,0.403 0.285,0.817 -1.186,2.512 -0.736,0.848 -1.794,2.267 -2.352,3.152 -1.067,1.696 -1.276,1.915 -1.686,1.768 l 0,0 z"
   id="path4161-1-1-4-3-5-7-53-4-4-1-5_1_"
   style="fill:#ffffff;fill-opacity:1" />
</svg>
