<svg width="440" height="502" viewBox="0 0 440 502" xmlns="http://www.w3.org/2000/svg" xmlns:xlink="http://www.w3.org/1999/xlink"><defs><path id="a" d="M.7.9H32v62.7H.7z"/></defs><g fill="none" fill-rule="evenodd"><g fill-rule="nonzero"><path fill-opacity="0" fill="#FEFEFE" d="M62.698 251.1l31.3 31.4 31.4-31.4zM125.398 251.1l31.3 31.4 31.4-31.4z"/><path fill="#081E3F" d="M438.998 251.1l-31.4 31.4-31.3-31.4zM376.298 251.1l-31.4 31.4-31.4-31.4z"/></g><path fill-opacity="0" fill="#FEFEFE" fill-rule="nonzero" d="M313.6 251.1l-31.4 31.4-31.4-31.4zM250.8 251.1l-31.3 31.4-31.4-31.4zM62.7 251.1l-31.4 31.4-31.4-31.4z"/><g fill="#FEFEFE" fill-opacity="0" fill-rule="nonzero"><path d="M62.7 251.11l31.3-31.3 31.4 31.3zM125.4 251.11l31.3-31.3 31.4 31.3zM439 251.11l-31.4-31.3-31.3 31.3z"/><path d="M250.8 251.11l-31.3-31.3-31.4 31.3zM62.7 251.11l-31.4-31.3-31.4 31.3z"/></g><g fill-rule="nonzero"><path fill-opacity="0" fill="#FEFEFE" d="M439.1 313.81l-31.4-31.3 31.4-31.4z"/><path fill="#082046" d="M376.4 313.81l31.3-31.3-31.3-31.4z"/><path fill-opacity="0" fill="#FEFEFE" d="M376.4 313.81l-31.4-31.3 31.4-31.4z"/></g><path fill="#081B3F" fill-rule="nonzero" d="M250.9 313.8l31.4-31.3-31.4-31.4z"/><g fill-rule="nonzero"><path fill="#081E3F" d="M313.68 313.8l31.3-31.3-31.3-31.4z"/><path fill-opacity="0" fill="#FEFEFE" d="M313.68 313.8l-31.4-31.3 31.4-31.4zM188.18 313.8l31.4-31.3-31.4-31.4zM188.18 313.8l-31.3-31.3 31.3-31.4zM62.78 251.1l31.4 31.4-31.4 31.3zM125.48 251.1l-31.3 31.4 31.3 31.3z"/></g><g fill-rule="nonzero"><path fill-opacity="0" fill="#FEFEFE" d="M62.8 313.82l-31.4-31.3 31.4-31.4z"/><path fill-opacity="0" fill="#FEFEFE" d="M.1 313.82l31.3-31.3-31.3-31.4z"/><path fill-opacity="0" fill="#FEFEFE" d="M.1 313.82l-31.4-31.3 31.4-31.4z"/><path fill="#081E3F" d="M376.4 188.42l-31.4 31.4-31.3-31.4zM439.1 188.42l-31.3 31.4-31.4-31.4zM313.7 188.42l-31.4 31.4-31.3-31.4zM251 188.42l-31.4 31.4-31.4-31.4z"/><path fill-opacity="0" fill="#FEFEFE" d="M188.2 188.42l-31.3 31.4-31.4-31.4zM62.8 188.42l-31.4 31.4-31.3-31.4z"/></g><path fill-opacity="0" fill="#FFF" fill-rule="nonzero" d="M-62.7 188.4l31.4 31.4L.1 188.4z"/><path d="M62.788 188.43l31.3-31.3 31.4 31.3zM313.7 188.4l-31.4-31.3-31.4 31.3z" fill="#FEFEFE" fill-opacity="0" fill-rule="nonzero"/><g fill="#FEFEFE" fill-opacity="0" fill-rule="nonzero"><path d="M250.9 188.43l-31.3-31.3-31.4 31.3zM188.2 188.43l-31.4-31.3-31.3 31.3zM62.7 188.43l-31.3-31.3L0 188.43z"/></g><path fill-opacity="0" fill="#FFF" fill-rule="nonzero" d="M-62.7 188.4l31.3-31.3L0 188.4z"/><g fill-rule="nonzero"><path fill="#081E3F" d="M376.3 62.8l31.4-31.3L439 62.8z"/><path fill-opacity="0" fill="#FEFEFE" d="M62.7 62.8l31.4-31.3 31.3 31.3z"/><path fill="#081E3F" d="M376.3 62.8l-31.4-31.3-31.3 31.3z"/><path fill-opacity="0" fill="#FEFEFE" d="M188.2 62.8l-31.4-31.3-31.4 31.3z"/><path fill-opacity="0" fill="#FEFEFE" d="M188.1 62.8l31.4-31.3 31.4 31.3z"/></g><g fill-rule="nonzero"><path fill-opacity="0" fill="#FEFEFE" d="M-62.7 62.8l31.3-31.3L0 62.8zM62.7 62.8L31.3 31.5 0 62.8z"/><path fill="#081E3F" d="M376.4 62.8l31.4 31.4 31.3-31.4z"/><path fill-opacity="0" fill="#FEFEFE" d="M62.8 62.8l31.4 31.4 31.4-31.4z"/><path fill-opacity="0" fill="#FEFEFE" d="M188.3 62.8l-31.4 31.4-31.4-31.4z"/><path fill="#081E3F" d="M251 62.8l31.3 31.4 31.4-31.4z"/><path fill="#082046" d="M188.2 62.8l31.4 31.4L251 62.8z"/></g><g fill-rule="nonzero"><path fill-opacity="0" fill="#FEFEFE" d="M-62.7 62.79l31.4 31.4L0 62.79z"/><path fill="#082046" d="M62.8 62.79l-31.4 31.4L.1 62.79z"/><path fill-opacity="0" fill="#FEFEFE" d="M439.1 125.49l-31.3-31.3 31.3-31.4zM250.9 125.49l31.4-31.3-31.4-31.4zM188.2 125.49l31.4-31.3-31.4-31.4z"/><path fill="#081E3F" d="M313.7 62.79l31.3 31.4-31.3 31.3z"/><path fill="#082046" d="M125.5 62.79l-31.4 31.4 31.4 31.3z"/><path fill-opacity="0" fill="#FEFEFE" d="M125.5 62.79l31.3 31.4-31.3 31.3zM62.7 62.79l31.4 31.4-31.4 31.3zM0 62.79l-31.4 31.4L0 125.49zM0 125.49l31.4-31.3L0 62.79zM62.8 125.59l31.4-31.3 31.3 31.3zM313.7 125.59l-31.4-31.3-31.3 31.3zM251 125.59l-31.4-31.3-31.4 31.3zM125.5 125.69l31.4-31.4 31.3 31.4zM-62.7 125.69l31.4-31.3 31.4 31.3zM62.8 125.69l-31.4-31.4-31.3 31.4z"/><path fill="#081E3F" d="M439.1 125.69l-31.3 31.4-31.4-31.4z"/><path fill-opacity="0" fill="#FEFEFE" d="M62.8 125.69l31.4 31.4 31.3-31.4zM376.4 125.69l-31.4 31.4-31.3-31.4z"/><path fill="#082046" d="M125.5 125.69l31.4 31.4 31.3-31.4z"/><path fill-opacity="0" fill="#FEFEFE" d="M-62.7 125.69l31.4 31.4 31.4-31.4zM62.8 125.69l-31.4 31.4-31.3-31.4z"/></g><path fill="#081B3F" fill-rule="nonzero" d="M313.7 251.5l-31.4-31.3 31.4-31.4z"/><g transform="translate(407.134 187.92)"><mask id="b" fill="#fff"><use xlink:href="#a"/></mask><path fill="#081E3F" fill-rule="nonzero" mask="url(#b)" d="M32 63.6L.7 32.3 32 .9z"/></g><path fill-opacity="0" fill="#FEFEFE" fill-rule="nonzero" d="M376.4 251.52l-31.3-31.3 31.3-31.4zM188.3 251.5l31.3-31.3-31.3-31.4z"/><g fill="#FEFEFE" fill-opacity="0" fill-rule="nonzero"><path d="M62.88 188.82l31.3 31.4-31.3 31.3zM125.58 188.82l-31.4 31.4 31.4 31.3z"/><path d="M125.58 188.82l31.3 31.4-31.3 31.3z"/></g><path fill-opacity="0" fill="#FEFEFE" fill-rule="nonzero" d="M.1 251.5l31.4-31.3L.1 188.8zM.1 251.5l-31.3-31.3L.1 188.8z"/><g fill-rule="nonzero"><path fill-opacity="0" fill="#FEFEFE" d="M439.1 188.54l-31.4-31.3 31.4-31.4zM376.4 188.54l-31.4-31.3 31.4-31.3z"/><path fill="#081E3F" d="M251 188.64l-31.4-31.4 31.4-31.3z"/><path fill-opacity="0" fill="#FEFEFE" d="M188.2 188.54l-31.3-31.3 31.3-31.4zM125.5 188.54l-31.3-31.3 31.3-31.4z"/><path fill-opacity="0" fill="#FEFEFE" d="M125.5 188.54l31.4-31.3-31.4-31.4zM62.8 125.94l31.4 31.3-31.4 31.4z"/></g><path fill-opacity="0" fill="#FEFEFE" fill-rule="nonzero" d="M.1 125.9l-31.4 31.4L.1 188.6zM62.8 188.6l-31.4-31.3 31.4-31.4z"/><path fill-opacity="0" fill="#FEFEFE" fill-rule="nonzero" d="M.1 188.4l31.3-31.3L.1 125.7z"/><g fill="#FEFEFE" fill-opacity="0" fill-rule="nonzero"><path d="M439.1 439.269l-31.3-31.4-31.4 31.4zM62.8 439.269l31.3-31.4 31.4 31.4zM376.4 439.269l-31.4-31.4-31.3 31.4zM313.7 439.269l-31.4-31.4-31.3 31.4zM125.5 439.269l31.4-31.4 31.3 31.4z"/></g><g fill-rule="nonzero"><path fill-opacity="0" fill="#FEFEFE" d="M0 .11l31.4 31.4L0 62.81z"/><path fill="#082046" d="M62.8 62.81l31.3-31.3L62.8.11z"/><path fill-opacity="0" fill="#FEFEFE" d="M62.8 62.81l-31.4-31.3L62.8.11zM125.5 62.81l-31.4-31.3L125.5.11z"/><path fill="#082046" d="M125.5.11l31.4 31.4-31.4 31.3z"/><path fill="#081E3F" d="M250.9.11l31.4 31.4-31.4 31.3zM250.9.11l-31.3 31.4 31.3 31.3z"/><path fill-opacity="0" fill="#FEFEFE" d="M313.7.11l31.3 31.4-31.3 31.3z"/><path fill="#082046" d="M188.2 62.81l31.4-31.3L188.2.11z"/><path fill="#081E3F" d="M188.2 62.81l-31.3-31.3L188.2.11z"/><path fill-opacity="0" fill="#FEFEFE" d="M439.1 62.81l-31.3-31.3L439.1.11zM125.5.11l-31.4 31.4L62.8.11zM-62.7.11l31.4 31.4L.1.11z"/><path fill-opacity="0" fill="#FEFEFE" d="M62.8.11l-31.4 31.4L0 .11zM125.6.11l31.4 31.4L188.3.11zM251 .11l31.4 31.4L313.8.11zM439.1.11l-31.3 31.4L376.4.11zM376.3 376.51l31.4-31.3 31.3 31.3zM62.7 376.51l31.4-31.3 31.3 31.3z"/><path fill-opacity="0" fill="#FEFEFE" d="M188.2 376.51l-31.4-31.3-31.4 31.3z"/><path fill-opacity="0" fill="#FEFEFE" d="M188.1 376.51l31.4-31.3 31.4 31.3zM-62.7 376.51l31.3-31.3L0 376.51zM62.7 376.51l-31.4-31.3L0 376.51zM376.4 376.51l31.4 31.4 31.3-31.4zM376.4 376.51l-31.3 31.4-31.4-31.4zM188.3 376.51l-31.4 31.4-31.4-31.4zM251 376.51l31.3 31.4 31.4-31.4z"/></g><path fill-opacity="0" fill="#FEFEFE" fill-rule="nonzero" d="M188.2 376.5l31.4 31.4 31.4-31.4z"/><g fill-rule="nonzero"><path fill-opacity="0" fill="#FEFEFE" d="M-62.7 376.53l31.4 31.3L0 376.53zM62.8 376.53l-31.4 31.3-31.3-31.3z"/><path fill="#082046" d="M376.4 439.23l-31.4-31.4 31.4-31.3z"/><path fill-opacity="0" fill="#FEFEFE" d="M376.4 439.23l31.4-31.4-31.4-31.3zM439.1 439.23l-31.3-31.4 31.3-31.3zM250.9 439.23l-31.3-31.4 31.3-31.3z"/></g><path fill-opacity="0" fill="#FEFEFE" fill-rule="nonzero" d="M250.9 439.2l31.4-31.3-31.4-31.4z"/><g fill-rule="nonzero"><path fill-opacity="0" fill="#FEFEFE" d="M188.224 439.23l-31.4-31.4 31.4-31.3z"/><path fill="#082046" d="M313.624 376.53l-31.3 31.3 31.3 31.4z"/></g><path fill-opacity="0" fill="#FEFEFE" fill-rule="nonzero" d="M313.7 376.5l31.3 31.4-31.3 31.3zM125.48 376.53l-31.4 31.3 31.4 31.4z"/><g fill="#FEFEFE" fill-opacity="0" fill-rule="nonzero"><path d="M62.7 439.251l-31.3-31.4 31.3-31.3zM0 439.251l31.4-31.4-31.4-31.3zM0 313.851l31.4 31.3-31.4 31.4zM0 313.851l-31.3 31.3 31.3 31.4z"/></g><path fill-opacity="0" fill="#FEFEFE" fill-rule="nonzero" d="M62.8 376.5l31.3-31.3-31.3-31.4z"/><g fill-rule="nonzero"><path fill-opacity="0" fill="#FEFEFE" d="M125.5 313.851l31.4 31.3-31.4 31.4zM250.9 313.851l31.4 31.3-31.4 31.4zM250.9 313.851l-31.3 31.3 31.3 31.4zM313.7 313.851l31.3 31.3-31.3 31.4zM313.7 313.851l-31.4 31.3 31.4 31.4z"/><path fill="#082046" d="M188.2 376.551l31.4-31.4-31.4-31.3z"/><path fill-opacity="0" fill="#FEFEFE" d="M188.2 376.551l-31.3-31.4 31.3-31.3z"/><path fill="#082046" d="M376.4 376.551l31.4-31.4-31.4-31.3z"/><path fill-opacity="0" fill="#FEFEFE" d="M376.4 376.551l-31.4-31.4 31.4-31.3zM439.1 376.551l-31.3-31.4 31.3-31.3z"/></g><path fill-opacity="0" fill="#FEFEFE" fill-rule="nonzero" d="M125.5 313.8l-31.4 31.4-31.3-31.4zM-62.712 313.851l31.4 31.3 31.4-31.3z"/><path fill-opacity="0" fill="#FEFEFE" fill-rule="nonzero" d="M62.8 313.8l-31.4 31.4L0 313.8zM125.6 313.8l31.4 31.4 31.3-31.4z"/><g fill="#FEFEFE" fill-opacity="0" fill-rule="nonzero"><path d="M188.298 313.851l31.4 31.3 31.3-31.3z"/><path d="M250.998 313.851l31.4 31.3 31.4-31.3z"/><path d="M376.498 313.851l-31.4 31.3-31.4-31.3z"/><path d="M439.098 313.851l-31.3 31.3-31.4-31.3z"/></g><path d="M439 501.971l-31.3-31.4-31.4 31.4z" fill="#FEFEFE" fill-opacity="0" fill-rule="nonzero"/><g fill-rule="nonzero"><path fill="#082046" d="M376.3 439.282l-31.4 31.3 31.4 31.4z"/><path fill-opacity="0" fill="#FEFEFE" d="M439 439.282l-31.4 31.3 31.4 31.4z"/></g><path fill-opacity="0" fill="#FEFEFE" fill-rule="nonzero" d="M313.6 502l31.3-31.4-31.3-31.3z"/><g fill="#FEFEFE" fill-opacity="0" fill-rule="nonzero"><path d="M439 439.282l-31.4 31.3-31.4-31.3zM376.2 439.282l-31.3 31.3-31.4-31.3z"/></g></g></svg>