<svg width="440" height="502" viewBox="0 0 440 502" xmlns="http://www.w3.org/2000/svg" xmlns:xlink="http://www.w3.org/1999/xlink"><defs><path id="a" d="M.653.92h31.366v62.693H.653z"/></defs><g fill="none" fill-rule="evenodd" opacity=".5"><g fill-rule="nonzero"><path fill-opacity="0" fill="#FEFEFE" d="M62.654 251.125l31.365 31.347 31.366-31.347z"/><path fill-opacity="0" fill="#FEFEFE" d="M125.376 251.125l31.367 31.347 31.365-31.347z"/><path fill="#8E051C" d="M438.999 251.125l-31.366 31.348-31.366-31.348z"/><path fill="#8E051C" d="M376.276 251.125l-31.366 31.347-31.366-31.347z"/></g><path fill-opacity="0" fill="#FEFEFE" fill-rule="nonzero" d="M313.554 251.125l-31.366 31.347-31.367-31.347z"/><path fill-opacity="0" fill="#FEFEFE" fill-rule="nonzero" d="M250.83 251.125l-31.365 31.348-31.366-31.348zM62.663 251.127l-31.365 31.347-31.366-31.347z"/><g fill="#FEFEFE" fill-opacity="0" fill-rule="nonzero"><path d="M62.653 251.126l31.364-31.348 31.367 31.348z"/><path d="M125.375 251.126l31.367-31.348 31.366 31.348zM438.999 251.126l-31.366-31.348-31.366 31.348z"/><path d="M250.83 251.126l-31.365-31.348-31.366 31.348zM62.663 251.126l-31.365-31.348-31.366 31.348z"/></g><g fill-rule="nonzero"><path fill-opacity="0" fill="#FEFEFE" d="M439.09 313.82l-31.368-31.347 31.367-31.348z"/><path fill="#8E051C" d="M376.364 313.82l31.367-31.347-31.367-31.348z"/><path fill-opacity="0" fill="#FEFEFE" d="M376.37 313.82l-31.365-31.347 31.366-31.348z"/></g><path fill="#8B051B" fill-rule="nonzero" d="M250.928 313.82l31.367-31.347-31.367-31.348z"/><g fill-rule="nonzero"><path fill="#8E051C" d="M313.649 313.82l31.364-31.348-31.364-31.347z"/><path fill-opacity="0" fill="#FEFEFE" d="M313.655 313.82l-31.367-31.347 31.367-31.348zM188.21 313.82l31.367-31.347-31.367-31.348z"/><path fill-opacity="0" fill="#FEFEFE" d="M188.218 313.82l-31.366-31.347 31.366-31.348zM62.774 251.125l31.367 31.348-31.367 31.348z"/><path fill-opacity="0" fill="#FEFEFE" d="M125.5 251.125l-31.367 31.348 31.366 31.348z"/></g><g fill-rule="nonzero"><path fill-opacity="0" fill="#FEFEFE" d="M62.782 313.82l-31.367-31.347 31.367-31.348z"/><path fill-opacity="0" fill="#FEFEFE" d="M.057 313.82l31.365-31.347L.057 251.125z"/><path fill-opacity="0" fill="#FEFEFE" d="M.064 313.82l-31.367-31.347L.064 251.125z"/><path fill="#8E051C" d="M376.407 188.43l-31.366 31.348-31.365-31.348z"/><path fill="#8E051C" d="M439.13 188.43l-31.366 31.348L376.4 188.43zM313.685 188.43l-31.366 31.348-31.366-31.348z"/><path fill="#8E051C" d="M250.962 188.43l-31.366 31.349-31.366-31.349z"/><path fill-opacity="0" fill="#FEFEFE" d="M188.24 188.43l-31.366 31.349-31.364-31.349zM62.795 188.43l-31.367 31.348L.063 188.43z"/></g><path fill-opacity="0" fill="#FFF" fill-rule="nonzero" d="M-62.66 188.43l31.367 31.349L.072 188.43z"/><path d="M62.746 188.43l31.365-31.347 31.362 31.347zM313.667 188.43l-31.365-31.347-31.365 31.347z" fill="#FEFEFE" fill-opacity="0" fill-rule="nonzero"/><g fill="#FEFEFE" fill-opacity="0" fill-rule="nonzero"><path d="M250.937 188.43l-31.366-31.347-31.366 31.347zM188.205 188.43l-31.365-31.347-31.366 31.347zM62.746 188.43L31.38 157.083.016 188.43z"/></g><path fill-opacity="0" fill="#FFF" fill-rule="nonzero" d="M-62.716 188.43l31.365-31.347L.016 188.43z"/><g fill-rule="nonzero"><path fill="#8E051C" d="M376.302 62.833l31.366-31.346 31.365 31.346z"/><path fill-opacity="0" fill="#FEFEFE" d="M62.707 62.833L94.07 31.487l31.364 31.346z"/><path fill="#8E051C" d="M376.313 62.833L344.95 31.487l-31.365 31.346z"/><path fill-opacity="0" fill="#FEFEFE" d="M188.154 62.833l-31.367-31.346-31.363 31.346z"/><path fill-opacity="0" fill="#FEFEFE" d="M188.143 62.833l31.365-31.346 31.365 31.346z"/></g><g fill-rule="nonzero"><path fill-opacity="0" fill="#FEFEFE" d="M62.714 62.836L31.35 31.488-.017 62.836z"/><path fill="#8E051C" d="M376.398 62.836l31.366 31.347 31.366-31.347z"/><path fill-opacity="0" fill="#FEFEFE" d="M62.832 62.836l31.365 31.347 31.365-31.347z"/><path fill-opacity="0" fill="#FEFEFE" d="M188.265 62.836L156.9 94.183l-31.364-31.347z"/><path fill="#8E051C" d="M250.98 62.836l31.364 31.347 31.366-31.347zM188.249 62.836l31.366 31.347 31.364-31.347z"/></g><g fill-rule="nonzero"><path fill-opacity="0" fill="#FEFEFE" d="M-62.703 62.837l31.365 31.346L.026 62.837z"/><path fill="#8E051C" d="M62.795 62.837L31.43 94.185.063 62.837z"/><path fill-opacity="0" fill="#FEFEFE" d="M439.13 125.53l-31.366-31.346 31.366-31.348zM250.937 125.53L282.3 94.185l-31.364-31.348zM188.205 125.53l31.365-31.346-31.365-31.348z"/><path fill="#8E051C" d="M313.667 62.836l31.367 31.347-31.367 31.347zM125.474 62.836L94.11 94.183l31.364 31.347z"/><path fill-opacity="0" fill="#FEFEFE" d="M125.474 62.836l31.367 31.347-31.367 31.347zM62.744 62.836l31.367 31.347-31.367 31.347zM.013 62.836l-31.365 31.347L.013 125.53zM.013 125.532l31.365-31.348L.013 62.836zM62.787 125.63L94.15 94.283l31.366 31.347zM313.685 125.638l-31.366-31.349-31.367 31.349z"/><path fill-opacity="0" fill="#FEFEFE" d="M250.962 125.638l-31.366-31.349-31.366 31.349zM125.51 125.659l31.363-31.349 31.367 31.349zM-62.66 125.727l31.367-31.347L.072 125.727zM62.795 125.654L31.428 94.307.063 125.654z"/><path fill="#8E051C" d="M439.13 125.735l-31.366 31.348-31.365-31.348z"/><path fill-opacity="0" fill="#FEFEFE" d="M62.787 125.735l31.364 31.348 31.366-31.348zM376.408 125.735l-31.365 31.347-31.365-31.347z"/><path fill="#8E051C" d="M125.51 125.735l31.364 31.348 31.366-31.348z"/><path fill-opacity="0" fill="#FEFEFE" d="M-62.658 125.735l31.366 31.346L.073 125.735z"/><path fill-opacity="0" fill="#FEFEFE" d="M62.796 125.735l-31.368 31.347L.063 125.735z"/></g><path fill="#8B051B" fill-rule="nonzero" d="M313.716 251.534l-31.367-31.347 31.367-31.348z"/><g transform="translate(407.134 187.92)"><mask id="b" fill="#fff"><use xlink:href="#a"/></mask><path fill="#8E051C" fill-rule="nonzero" mask="url(#b)" d="M32.02 63.613L.653 32.266 32.02.92z"/></g><path fill-opacity="0" fill="#FEFEFE" fill-rule="nonzero" d="M376.433 251.534l-31.364-31.347 31.364-31.348zM188.272 251.533l31.366-31.347-31.366-31.346z"/><g fill="#FEFEFE" fill-opacity="0" fill-rule="nonzero"><path d="M62.834 188.84L94.2 220.187l-31.366 31.346z"/><path d="M125.56 188.84l-31.366 31.347 31.366 31.346z"/><path d="M125.553 188.84l31.367 31.347-31.367 31.346z"/></g><path fill-opacity="0" fill="#FEFEFE" fill-rule="nonzero" d="M.116 251.534l31.366-31.347L.116 188.839z"/><path fill-opacity="0" fill="#FEFEFE" fill-rule="nonzero" d="M.123 251.534l-31.367-31.347L.123 188.839z"/><g fill-rule="nonzero"><path fill-opacity="0" fill="#FEFEFE" d="M439.111 188.57l-31.367-31.349 31.367-31.347zM376.392 188.586l-31.365-31.347 31.365-31.348z"/><path fill="#8E051C" d="M250.955 188.602l-31.365-31.347 31.365-31.348z"/><path fill-opacity="0" fill="#FEFEFE" d="M188.236 188.58l-31.365-31.346 31.365-31.346zM125.52 188.58L94.15 157.235l31.368-31.346z"/><path fill-opacity="0" fill="#FEFEFE" d="M125.511 188.58l31.366-31.346-31.366-31.346zM62.792 125.903L94.16 157.25l-31.367 31.347z"/></g><path fill-opacity="0" fill="#FEFEFE" fill-rule="nonzero" d="M.08 125.91l-31.365 31.348L.079 188.605zM62.8 188.618l-31.369-31.347 31.37-31.348z"/><path fill-opacity="0" fill="#FEFEFE" fill-rule="nonzero" d="M.074 188.43l31.366-31.347L.074 125.736z"/><g fill="#FEFEFE" fill-opacity="0" fill-rule="nonzero"><path d="M439.13 439.253l-31.366-31.347-31.365 31.347zM62.784 439.253l31.364-31.347 31.365 31.347z"/><path d="M376.407 439.253l-31.366-31.346-31.365 31.346z"/><path d="M313.684 439.253l-31.366-31.347-31.366 31.347zM125.506 439.253l31.366-31.348 31.364 31.348z"/></g><g fill-rule="nonzero"><path fill-opacity="0" fill="#FEFEFE" d="M.032.136l31.367 31.348L.032 62.83z"/><path fill-opacity="0" fill="#FEFEFE" d="M.034.136L-31.33 31.484.034 62.83z"/><path fill="#8E051C" d="M62.76 62.846l31.365-31.348L62.76.151z"/><path fill-opacity="0" fill="#FEFEFE" d="M62.763 62.846L31.396 31.498 62.763.151zM125.49 62.846L94.12 31.498 125.49.151z"/><path fill="#8E051C" d="M125.487.129l31.366 31.346-31.366 31.348zM250.943.136l31.367 31.348-31.367 31.347z"/><path fill="#8E051C" d="M250.945.136L219.58 31.484l31.365 31.347z"/><path fill-opacity="0" fill="#FEFEFE" d="M313.672.136l31.367 31.348-31.367 31.347z"/><path fill="#8E051C" d="M188.216 62.846l31.367-31.348L188.216.151z"/><path fill="#8E051C" d="M188.217 62.846l-31.365-31.348L188.217.151z"/><path fill-opacity="0" fill="#FEFEFE" d="M439.13 62.846l-31.367-31.348L439.13.151zM125.49.129L94.124 31.476 62.76.129zM-62.676.129l31.367 31.347L.055.129z"/><path fill-opacity="0" fill="#FEFEFE" d="M62.773.129L31.41 31.477.042.129zM125.605.129l31.364 31.346L188.335.129zM251.027.129l31.367 31.347L313.759.129zM439.13.129l-31.367 31.348L376.396.129zM376.302 376.522l31.366-31.346 31.365 31.346zM62.707 376.522l31.363-31.346 31.364 31.346z"/><path fill-opacity="0" fill="#FEFEFE" d="M188.154 376.522l-31.367-31.346-31.363 31.346z"/><path fill-opacity="0" fill="#FEFEFE" d="M188.143 376.522l31.365-31.346 31.365 31.346zM62.714 376.524L31.35 345.176-.017 376.524zM376.398 376.524l31.366 31.348 31.366-31.348z"/><path fill-opacity="0" fill="#FEFEFE" d="M376.422 376.524l-31.363 31.348-31.366-31.348zM188.265 376.524L156.9 407.872l-31.364-31.348z"/><path fill-opacity="0" fill="#FEFEFE" d="M250.98 376.524l31.364 31.348 31.366-31.348z"/></g><path fill-opacity="0" fill="#FEFEFE" fill-rule="nonzero" d="M188.249 376.524l31.366 31.348 31.364-31.348z"/><g fill-rule="nonzero"><path fill-opacity="0" fill="#FEFEFE" d="M-62.703 376.526l31.365 31.346L.026 376.526zM62.795 376.526L31.43 407.874.063 376.526z"/><path fill="#8E051C" d="M376.398 439.219l-31.363-31.348 31.363-31.347z"/><path fill-opacity="0" fill="#FEFEFE" d="M376.398 439.219l31.366-31.348-31.366-31.347zM439.13 439.22l-31.366-31.348 31.366-31.347zM250.937 439.22l-31.366-31.348 31.366-31.347z"/></g><path fill-opacity="0" fill="#FEFEFE" fill-rule="nonzero" d="M250.937 439.22l31.364-31.348-31.364-31.347z"/><g fill-rule="nonzero"><path fill-opacity="0" fill="#FEFEFE" d="M188.205 439.22l-31.364-31.348 31.364-31.347z"/><path fill="#8E051C" d="M313.667 376.524l-31.365 31.348 31.365 31.347z"/></g><path fill-opacity="0" fill="#FEFEFE" fill-rule="nonzero" d="M313.667 376.524l31.367 31.348-31.367 31.347zM125.474 376.524L94.11 407.872l31.364 31.347z"/><g fill="#FEFEFE" fill-opacity="0" fill-rule="nonzero"><path d="M62.744 439.22l-31.367-31.348 31.367-31.347z"/><path d="M.013 439.22l31.365-31.348L.013 376.525zM.032 313.825l31.367 31.347L.032 376.519z"/><path d="M.034 313.825l-31.364 31.347L.034 376.519z"/></g><path fill-opacity="0" fill="#FEFEFE" fill-rule="nonzero" d="M62.76 376.535l31.365-31.348-31.365-31.348z"/><g fill-rule="nonzero"><path fill-opacity="0" fill="#FEFEFE" d="M125.487 313.817l31.366 31.346-31.366 31.348zM250.943 313.825l31.367 31.347-31.367 31.347z"/><path fill-opacity="0" fill="#FEFEFE" d="M250.945 313.825l-31.365 31.347 31.365 31.347zM313.672 313.825l31.367 31.347-31.367 31.347z"/><path fill-opacity="0" fill="#FEFEFE" d="M313.673 313.825l-31.365 31.347 31.365 31.347z"/><path fill="#8E051C" d="M188.216 376.535l31.367-31.348-31.367-31.348z"/><path fill-opacity="0" fill="#FEFEFE" d="M188.217 376.535l-31.365-31.348 31.365-31.348z"/><path fill="#8E051C" d="M376.4 376.535l31.365-31.348-31.365-31.348z"/><path fill-opacity="0" fill="#FEFEFE" d="M376.403 376.535l-31.367-31.348 31.367-31.348zM439.13 376.535l-31.367-31.348 31.367-31.348z"/></g><path fill-opacity="0" fill="#FEFEFE" fill-rule="nonzero" d="M125.49 313.817l-31.365 31.347-31.365-31.347zM-62.676 313.817l31.367 31.347L.055 313.817z"/><path fill-opacity="0" fill="#FEFEFE" fill-rule="nonzero" d="M62.773 313.817L31.41 345.165.042 313.817zM125.605 313.817l31.364 31.346 31.366-31.346z"/><g fill="#FEFEFE" fill-opacity="0" fill-rule="nonzero"><path d="M188.296 313.817l31.366 31.347 31.365-31.347zM251.027 313.817l31.367 31.347 31.365-31.347z"/><path d="M376.478 313.817l-31.366 31.348-31.365-31.348z"/><path d="M439.13 313.817l-31.367 31.348-31.367-31.348z"/></g><path d="M439.025 501.961l-31.363-31.346-31.365 31.346z" fill="#FEFEFE" fill-opacity="0" fill-rule="nonzero"/><g fill-rule="nonzero"><path fill="#8E051C" d="M376.281 439.256l-31.364 31.346 31.364 31.347z"/><path fill-opacity="0" fill="#FEFEFE" d="M439.01 439.27l-31.367 31.35 31.367 31.345z"/></g><path fill-opacity="0" fill="#FEFEFE" fill-rule="nonzero" d="M313.553 501.973l31.367-31.347-31.367-31.347z"/><g fill="#FEFEFE" fill-opacity="0" fill-rule="nonzero"><path d="M438.958 439.256l-31.363 31.347-31.367-31.347zM376.227 439.256l-31.363 31.346-31.367-31.346z"/></g></g></svg>