<svg xmlns="http://www.w3.org/2000/svg" viewBox="0 0 72.5 63.8"><defs><clipPath id="a"><path fill="none" d="M72.6.1L-3.1-.2l.3 63.3 75.6.3"/></clipPath></defs><g clip-path="url(#a)"><path fill="none" stroke="#83d2e2" stroke-miterlimit="10" stroke-width=".1" d="M36.5 9.1l-9.1-9-9 9h18.1zM54.5 9.1l-9-9-9 9h18zM72.5 9.1l-9-9-9 9h18zM45.5 18.1l-9-9-9.1 9h18.1zM63.5 18.1l-9-9-9 9h18zM72.5 9.1l-9 9M36.5 27.1l-9.1-9-9 9h18.1zM54.5 27.1l-9-9-9 9h18zM72.5 27.1l-9-9-9 9h18zM9.4 36.1L5 31.6.5 36.1h8.9z"/><path fill="none" stroke="#83d2e2" stroke-miterlimit="10" stroke-width=".1" d="M27.4 36.1l-9-9-9 9h18zM45.5 36.1l-9-9-9.1 9h18.1zM63.5 36.1l-9-9-9 9h18zM72.5 27.1l-9 9M36.5 45.1l-9.1-9-9 9h18.1zM54.5 45.1l-9-9-9 9h18zM72.5 45.1l-9-9-9 9h18zM45.5 54.1l-9-9-9.1 9h18.1zM63.5 54.1l-9-9-9 9h18zM72.5 45.1l-9 9M18.5 63.1l-4.6-4.5-4.5 4.5h9.1z"/><path fill="none" stroke="#83d2e2" stroke-miterlimit="10" stroke-width=".1" d="M36.5 63.1l-9.1-9-9 9h18.1zM50.7 59.3l-5.2-5.2-5.3 5.2h10.5zM72.5 63.1l-9-9-9 9h18z"/><path fill="none" stroke="#83d2e2" stroke-miterlimit="10" stroke-width=".1" opacity=".96" d="M13.9 58.6l-4.5-4.5-4.5 4.5h9z"/><path fill="#b5bdc0" d="M9.4 72.1l-8.9-9-9.1 9h18z"/></g></svg>