<svg height='300px' width='300px'  fill="#ffffff" xmlns="http://www.w3.org/2000/svg" xmlns:xlink="http://www.w3.org/1999/xlink" version="1.1" x="0px" y="0px" viewBox="0 0 24 24" style="enable-background:new 0 0 24 24;" xml:space="preserve"><g><g><path d="M23.5,9h-23C0.224,9,0,8.776,0,8.5v-8C0,0.224,0.224,0,0.5,0h23C23.776,0,24,0.224,24,0.5v8C24,8.776,23.776,9,23.5,9z     M1,8h22V1H1V8z"></path></g><g><path d="M15.445,16.5H0.5C0.224,16.5,0,16.276,0,16V8.5C0,8.224,0.224,8,0.5,8h14.945c0.276,0,0.5,0.224,0.5,0.5V16    C15.945,16.276,15.722,16.5,15.445,16.5z M1,15.5h13.945V9H1V15.5z"></path></g><g><path d="M23.5,16.5h-8.055c-0.276,0-0.5-0.224-0.5-0.5V8.5c0-0.276,0.224-0.5,0.5-0.5H23.5C23.776,8,24,8.224,24,8.5V16    C24,16.276,23.776,16.5,23.5,16.5z M15.945,15.5H23V9h-7.055V15.5z"></path></g><g><path d="M23.5,24h-23C0.224,24,0,23.776,0,23.5V16c0-0.276,0.224-0.5,0.5-0.5h23c0.276,0,0.5,0.224,0.5,0.5v7.5    C24,23.776,23.776,24,23.5,24z M1,23h22v-6.5H1V23z"></path></g></g></svg>