<svg height='300px' width='300px'  fill="#ffffff" xmlns:dc="http://purl.org/dc/elements/1.1/" xmlns:cc="http://creativecommons.org/ns#" xmlns:rdf="http://www.w3.org/1999/02/22-rdf-syntax-ns#" xmlns:svg="http://www.w3.org/2000/svg" xmlns="http://www.w3.org/2000/svg" xmlns:sodipodi="http://sodipodi.sourceforge.net/DTD/sodipodi-0.dtd" xmlns:inkscape="http://www.inkscape.org/namespaces/inkscape" version="1.1" x="0px" y="0px" viewBox="0 0 100 100"><g transform="translate(0,-952.36218)"><path style="text-indent:0;text-transform:none;direction:ltr;block-progression:tb;baseline-shift:baseline;color:#000000;enable-background:accumulate;" d="m 68.691205,961.25367 c -6.6378,-0.4255 -13.4066,1.87543 -18.4687,6.9375 -6.54426,6.5443 -8.4713,15.9415 -5.84375,24.2187 l -32.34375,32.34383 c -4.2724196,4.2724 -4.2724096,11.2901 0,15.5625 4.27242,4.2724 11.29009,4.2724 15.5625,0 l 32.3437,-32.3438 c 8.2772,2.6276 17.6745,0.7006 24.2188,-5.8437 6.7493,-6.74953 8.6246,-16.55103 5.625,-25.00003 a 3.0003,3.0003 0 0 0 -4.9688,-1.125 l -9.8437,9.875 c -2.387,2.3871 -6.1127,2.3872 -8.5,0 -2.3871,-2.3871 -2.3872,-6.1129 0,-8.5 l 9.875,-9.84375 a 3.0003,3.0003 0 0 0 -1.125,-4.96875 c -2.1123,-0.74986 -4.3186,-1.17067 -6.5313,-1.3125 z m -0.5312,5.96875 -5.9062,5.90625 c -4.6643,4.6641 -4.6642,12.3046 0,16.9687 4.6642,4.6642 12.3047,4.6643 16.9687,0 l 5.9063,-5.9062 c 0.2823,4.9227 -1.4419,9.9104 -5.2188,13.6875 -5.3337,5.33373 -13.0967,6.62473 -19.625,3.90623 a 3.0003,3.0003 0 0 0 -3.2812,0.625 l -33.6563,33.6563 c -1.99537,1.9953 -5.0671,1.9954 -7.0625,0 -1.99537,-1.9954 -1.99538,-5.0672 0,-7.0625 l 33.65625,-33.65633 a 3.0003,3.0003 0 0 0 0.625,-3.2812 c -2.71848,-6.5284 -1.42739,-14.2913 3.90625,-19.625 3.7771,-3.77702 8.7647,-5.50111 13.6875,-5.21875 z" fill="#ffffff" fill-opacity="1" stroke="none" marker="none" visibility="visible" display="inline" overflow="visible"></path></g></svg>