<svg xmlns="http://www.w3.org/2000/svg" viewBox="0 0 700 700" style="enable-background:new 0 0 700 700" xml:space="preserve"><path d="M344.2 140.4h115.5v46.2h-48l126.2 325.3h37.4v47.9H418.8v-46.6h-43.9v91.4h246.9V468.4l-55.4.1-88.9-237h27.9V95.4H182.9v136.1h28L122 468.2l-55.5.2v136.2h247v-91.4h-44v46.6H113.1v-47.9h37.3l126.2-325.3h-48v-46.2h115.6M670.7 579.5h5.6c1.9 0 3.4-.3 4.3-1 .9-.7 1.4-1.8 1.4-3.3 0-1.3-.4-2.3-1.4-2.9-.9-.6-2.3-.9-4.3-.9h-5.6v8.1zm-4.1-11.5h10.6c2.9 0 5.1.6 6.7 1.9 1.6 1.3 2.4 3 2.4 5.3 0 2.4-.8 4.4-2.4 5.7-1.2 1-2.8 1.7-4.7 1.9l7.6 11.6H682l-6.8-11.4h-4.4v11.4h-4.2V568zm23.3-.2c-3.6-3.7-8-5.5-13.3-5.5-5.2 0-9.6 1.8-13.2 5.5-3.6 3.7-5.4 8.2-5.4 13.5 0 5.3 1.8 9.8 5.4 13.5 3.6 3.7 8 5.5 13.2 5.5 5.2 0 9.6-1.8 13.2-5.5 3.6-3.7 5.4-8.2 5.4-13.5s-1.6-9.9-5.3-13.5zm3.3-2.8c4.5 4.4 6.8 9.8 6.8 16.2 0 6.4-2.2 11.8-6.8 16.2-4.5 4.4-10 6.6-16.6 6.6-6.5 0-12-2.2-16.5-6.6-4.5-4.4-6.7-9.8-6.7-16.2 0-6.4 2.3-11.8 6.8-16.2 4.5-4.4 10-6.6 16.5-6.6s12 2.2 16.5 6.6z"/><path d="m344.1 140.8 128.1 332.3s16.4 40.4 43.1 40.4H422s4.7.7 9.4-7.1c2.7-4.4.4-11.1.4-11.1l-28.9-74.2H285.5l-28.9 74.2s-2.2 6.7.5 11.1c4.7 7.8 9.3 7.1 9.3 7.1H173c26.7 0 43.1-40.4 43.1-40.4l128-332.3m-.1 245.1h45.1l-45.2-116.6L299 385.9h45z"/></svg>