<?xml version="1.0" standalone="no"?>
<!DOCTYPE svg PUBLIC "-//W3C//DTD SVG 20010904//EN"
 "http://www.w3.org/TR/2001/REC-SVG-20010904/DTD/svg10.dtd">
<svg version="1.0" xmlns="http://www.w3.org/2000/svg"
 width="700.000000pt" height="700.000000pt" viewBox="0 0 700.000000 700.000000"
 preserveAspectRatio="xMidYMid meet">
<metadata>
Created by potrace 1.14, written by Peter Selinger 2001-2017
</metadata>
<g transform="translate(0.000000,700.000000) scale(0.100000,-0.100000)"
fill="#000000" stroke="none">
<path d="M1612 5683 l3 -798 161 -5 161 -5 -517 -1375 -517 -1375 -324 -5
-324 -5 -3 -797 -2 -798 1445 0 1445 0 0 535 0 535 -255 0 -255 0 0 -275 0
-275 -915 0 -915 0 0 280 0 280 218 0 217 0 735 1895 c404 1043 737 1900 738
1905 2 6 -102 10 -277 10 l-281 0 0 270 0 270 1350 0 1350 0 0 -270 0 -270
-276 0 c-258 0 -276 -1 -272 -17 4 -13 1373 -3545 1465 -3780 4 -10 57 -13
219 -13 l214 0 0 -280 0 -280 -910 0 -910 0 0 275 0 275 -260 0 -260 0 0 -535
0 -535 1445 0 1445 0 -2 798 -3 797 -324 5 -324 5 -517 1375 -517 1375 161 5
161 5 3 798 2 797 -1890 0 -1890 0 2 -797z"/>
<path d="M3490 5914 c-184 -489 -1504 -3883 -1531 -3938 -98 -196 -237 -339
-372 -381 -36 -12 31 -14 468 -14 l510 -1 -33 26 c-18 14 -39 39 -47 54 -33
64 -24 96 158 560 l172 440 685 0 685 0 173 -440 c186 -476 192 -500 151 -566
-11 -18 -32 -42 -47 -53 l-27 -20 510 0 c509 0 510 0 458 18 -131 48 -268 192
-366 386 -19 39 -371 943 -782 2010 -411 1067 -749 1942 -751 1944 -2 2 -8 -9
-14 -25z m268 -2149 c138 -357 254 -658 258 -667 6 -17 -23 -18 -516 -18 -413
0 -521 3 -518 13 119 323 513 1335 518 1330 4 -4 120 -300 258 -658z"/>
</g>
</svg>
