<?xml version="1.0" encoding="UTF-8" standalone="no"?>
<!-- Created with Inkscape (http://www.inkscape.org/) -->

<svg
   width="500"
   height="500"
   viewBox="0 0 132.29166 132.29167"
   version="1.1"
   id="svg5"
   xmlns="http://www.w3.org/2000/svg"
   xmlns:svg="http://www.w3.org/2000/svg">
  <defs
     id="defs2" />
  <g
     id="g5128"
     style="display:inline">
    <rect
       style="fill:#0074c1;fill-opacity:1;stroke:#808080;stroke-width:0.00265549;stop-color:#000000"
       id="rect5126"
       width="132.28902"
       height="132.28902"
       x="0.001327745"
       y="0.001327745"
       ry="0" />
  </g>
  <g
     id="layer5"
     style="display:inline">
    <g
       aria-label="&lt;"
       id="text2881"
       style="font-size:50.8px;line-height:1.25;stroke-width:0.264583"
       transform="matrix(1.3818704,0,0,2.0292938,-16.028486,18.559421)">
      <path
         d="M 16.178928,27.465594 V 22.380633 L 40.859592,12.012274 v 3.819922 l -21.282422,9.078515 21.282422,9.10332 v 3.795117 z"
         style="font-family:'Liberation Sans';-inkscape-font-specification:'Liberation Sans';fill:#ffffff"
         id="path2933" />
    </g>
    <g
       aria-label="&lt;"
       id="g2940"
       style="font-size:50.8px;line-height:1.25;stroke-width:0.264583"
       transform="matrix(-1.3818704,0,0,-2.0292938,149.38323,119.34111)">
      <path
         d="M 16.178928,27.465594 V 22.380633 L 40.859592,12.012274 v 3.819922 l -21.282422,9.078515 21.282422,9.10332 v 3.795117 z"
         style="font-family:'Liberation Sans';-inkscape-font-specification:'Liberation Sans';fill:#ffffff"
         id="path2938" />
    </g>
  </g>
  <g
     id="layer4"
     style="display:inline">
    <path
       fill="#00598e"
       d="m 78.79926,49.558731 c -2.852021,-1.77714 -5.532063,-2.47223 -8.226436,-4.242204 -1.662486,-1.132209 -3.977066,-3.81225 -5.911855,-6.126831 -0.372626,3.711928 -1.504836,5.216764 -2.794696,6.291647 -2.737368,2.149765 -4.45718,2.794694 -6.821922,4.084555 -1.992116,1.017555 -12.791104,7.466851 -12.791104,21.332838 0,13.865989 11.66606,24.077375 24.614814,24.077375 12.948753,0 24.184861,-9.401643 24.184861,-23.647422 0,-14.245778 -10.53385,-20.695075 -12.253662,-21.769958 z"
       id="path2978-6"
       style="display:inline;fill:#ffffff;fill-opacity:1;stroke-width:0.0716587" />
  </g>
  <g
     id="g6607"
     style="display:inline">
    <path
       fill="#ffffff"
       d="m 74.523644,82.860035 c 0.879084,0 1.816774,0.05861 2.476089,0.498147 0.659313,0.439543 1.040252,1.428515 1.260023,1.977942 0.219771,0.549429 0,0.879084 -0.439542,1.098855 -0.380939,0.219772 -0.439544,0.109888 -0.820481,-0.600706 -0.380937,-0.710595 -0.717919,-1.428513 -2.637254,-1.428513 -1.919337,0 -2.527371,0.659315 -3.457736,1.428513 -0.930366,0.769201 -1.260023,1.04025 -1.597005,0.600706 -0.336983,-0.439542 -0.219772,-0.879084 0.380936,-1.428512 0.600709,-0.549429 1.597006,-1.428514 2.527371,-1.816777 0.930364,-0.388261 1.428514,-0.329655 2.307599,-0.329655 z"
       id="path6589"
       style="fill:#0074c1;fill-opacity:1;stroke-width:0.073257" />
    <path
       fill="#ffffff"
       d="m 65.410461,89.123516 c 1.098855,0.879085 2.74714,1.597006 6.263481,1.597006 3.516342,0 5.985104,-0.996296 7.083961,-1.816777 0.498149,-0.380936 0.71792,-0.05861 0.7692,0.161167 0.05128,0.219772 0.161166,0.549427 -0.219771,0.937689 -0.278378,0.278378 -2.79842,2.036549 -5.77266,2.307601 -2.974239,0.271052 -6.974076,0.439542 -9.39156,-1.758171 -0.380937,-0.380939 -0.278377,-0.937692 0,-1.157463 0.278377,-0.219772 0.498148,-0.380936 0.82048,-0.380936 0.322331,0 0.278376,0 0.446869,0.109884 z"
       id="path6591"
       style="fill:#0074c1;fill-opacity:1;stroke-width:0.073257" />
    <path
       fill="#ffffff"
       d="m 52.443953,79.123922 c 0.05861,-4.285541 4.065769,-8.292704 9.120509,-8.351309 6.431974,-0.05861 10.87868,6.373367 14.123968,6.314762 2.747143,-0.05861 8.021655,-5.435677 10.60763,-5.435677 2.74714,0 3.516341,2.857027 3.516341,4.556591 0,1.699565 -0.54943,4.776364 -1.868057,6.703027 -1.318629,1.926661 -2.139108,2.637256 -3.677507,2.527369 -1.977941,-0.161166 -5.933825,-6.314763 -8.461194,-6.431974 -3.186684,-0.109886 -10.10948,6.651745 -15.545157,6.651745 -3.296571,0 -4.285541,-0.49815 -5.384397,-1.20874 -1.670263,-1.150139 -2.490741,-2.908309 -2.432136,-5.325794 z"
       id="path6601"
       style="fill:#0074c1;fill-opacity:1;stroke-width:0.073257" />
  </g>
</svg>
