<svg xmlns="http://www.w3.org/2000/svg" width="32" height="32"><path d="M.529 4.647h1.085l.723 2.003c.139.334.278.89.278.89s.139-.557.306-.89l.974-2.031h.111L4.98 6.65c.167.334.306.89.306.89s.139-.557.278-.89l.724-2.003H7.29L5.453 9.683h-.111L4.201 7.29c-.139-.278-.278-.751-.278-.751s-.167.473-.278.751L2.476 9.683h-.111L.528 4.647zm7.318 0h1.03v4.981h-1.03V4.647zm1.948 0v4.981h3.339v-.89h-2.282v-4.09zm5.509 4.09c1.113 0 1.614-.668 1.614-1.586s-.501-1.586-1.614-1.586h-.445v3.172h.445zm-1.502-4.09h1.558c1.558 0 2.643 1.03 2.643 2.477 0 1.475-1.085 2.504-2.644 2.504h-1.558V4.647zm4.758 2.504c0-1.475 1.141-2.56 2.588-2.56.918 0 1.558.334 2.003 1.03l-.779.557c-.25-.39-.64-.64-1.224-.64-.918 0-1.53.696-1.53 1.614s.612 1.642 1.53 1.642c.64 0 1.002-.306 1.308-.724l.807.557c-.445.668-1.141 1.085-2.115 1.085-1.447-.028-2.588-1.113-2.588-2.56zm7.624 1.058l-.362-.863c-.139-.362-.306-.89-.306-.89s-.139.529-.306.89l-.362.863h1.336zm-.695-3.59h.083l2.31 5.037h-1.085l-.25-.557h-2.031l-.223.557h-1.002l2.198-5.037zm1.92.028v.89h1.447v4.09h1.03v-4.09h1.447v-.89zM12.16 11.242h1.809v.362h-1.391v1.113h1.28v.362h-1.28v1.503h-.417zm2.588 1.697c0 .723.39 1.363 1.085 1.363s1.085-.64 1.085-1.391c0-.668-.362-1.363-1.085-1.363s-1.085.668-1.085 1.391zm2.643-.055c0 1.141-.696 1.753-1.558 1.753-.89 0-1.53-.696-1.53-1.697 0-1.057.668-1.753 1.558-1.753.918 0 1.53.696 1.53 1.697zm.891-.056h.445c.473 0 .751-.25.751-.64 0-.417-.306-.612-.779-.612-.223 0-.362.028-.417.028v1.224zm-.445-1.531c.223-.056.529-.083.835-.083.473 0 .779.083.974.278.167.139.278.39.278.64 0 .445-.278.724-.64.863v.028c.25.083.417.334.501.668.111.473.195.779.25.918h-.445c-.056-.083-.139-.39-.223-.807-.111-.473-.278-.64-.668-.64h-.417v1.447h-.445v-3.311zM.696 16.167v11.075H8.07v-2.003H3.006v-9.071zm9.266 0h2.31v11.075h-2.31V16.167zm4.675 0v11.075h2.31v-3.367h4.48v-2.031h-4.48v-3.673h4.925v-2.003zm9.154 0v11.075h7.652v-2.003H26.1v-1.586h4.508v-1.948H26.1v-3.534h5.12v-2.003zm-22.789-3.59h9.656v.306H1.002v-.306zm20.174 0h9.656v.306h-9.656v-.306z"/></svg>