<svg xmlns="http://www.w3.org/2000/svg" width="32" height="32"><path d="M31.506 19.233c-.033-1.089-.264-2.111-.627-3.101-.462-1.254-1.188-2.375-2.045-3.398a9.243 9.243 0 0 1-.528-.66 2.861 2.861 0 0 1-.462-.891 1.822 1.822 0 0 1 0-1.32c.165-.396.264-.792.363-1.221.132-.66.165-1.32.132-1.979a6.3 6.3 0 0 0-.198-1.089c-.132-.462-.264-.924-.33-1.386a45.71 45.71 0 0 0-.099-.759c-.033-.363.033-.693.099-1.056.099-.462.231-.924.33-1.419 0-.033 0-.066.033-.099-.627-.264-1.221-.495-1.848-.759-.033.066-.033.132-.066.198a3.336 3.336 0 0 1-.429.99c-.165.231-.33.462-.594.627-.462.297-.924.594-1.353.891-.363.231-.759.462-1.122.726a10.24 10.24 0 0 0-1.748 1.419c-.066.066-.099.066-.165.033-.66-.165-1.32-.297-1.979-.396-.528-.066-1.023-.132-1.551-.165-.594-.033-1.155-.066-1.748-.033-.33 0-.66.033-.99.066-.396.033-.792.099-1.188.132-.561.066-1.089.165-1.65.297-.165.033-.363.066-.528.132-.066.033-.099 0-.165-.033a9.663 9.663 0 0 0-1.584-1.287c-.429-.297-.858-.561-1.287-.825-.396-.264-.792-.495-1.188-.759A2.53 2.53 0 0 1 5.902.723 2.43 2.43 0 0 1 5.77.261c0-.033-.033-.066-.033-.099-.627.264-1.221.495-1.848.759l.099.396c.132.462.231.957.33 1.452a3.79 3.79 0 0 1 0 1.221 14.364 14.364 0 0 1-.396 1.715c-.198.66-.231 1.32-.165 2.012.033.594.132 1.155.297 1.716.066.165.099.33.165.462.198.495.165.99-.033 1.485a3.813 3.813 0 0 1-.66 1.056c-.429.495-.825.99-1.188 1.551-.726 1.089-1.254 2.243-1.551 3.497A8.682 8.682 0 0 0 .556 19.1c0 .066-.033.165-.033.231v.759c0 .066.033.132.033.198.099 1.715.627 3.332 1.452 4.817.396.726.858 1.419 1.353 2.111l.066.066c.231-.528.429-1.023.66-1.518h.033c.033.066.033.165.066.231.264 1.155.792 2.144 1.518 3.068.627.792 1.386 1.452 2.21 2.012.462.33.924.594 1.452.891l.099-.099c.066-.132.165-.264.231-.396.198-.363.396-.693.66-1.023a3.4 3.4 0 0 1 .825-.858c.297-.231.594-.363.924-.462a2.43 2.43 0 0 1 1.089.033c.429.132.792.297 1.155.561a7.773 7.773 0 0 1 1.551 1.386c.066.066.099.132.165.198l.066-.066c.363-.495.825-.891 1.287-1.287.363-.264.726-.495 1.122-.66.297-.132.594-.198.924-.231.462-.033.858.099 1.254.33.363.231.627.495.891.825s.495.66.693 1.023c.099.198.231.363.33.561a.456.456 0 0 0 .099.132h.033a12.96 12.96 0 0 0 2.408-1.65c.726-.627 1.386-1.353 1.88-2.177a7.304 7.304 0 0 0 .891-2.309c0-.033 0-.033.033-.099.231.528.429 1.023.66 1.551l.033-.033c.858-1.155 1.616-2.375 2.111-3.695.297-.759.495-1.551.627-2.342.066-.33.099-.66.099-.99 0-.066 0-.099.033-.165v-.627c-.033-.099-.033-.132-.033-.165zm-5.246-.561v.099c0 .198-.033.396-.066.594-.066.495-.231.957-.429 1.419-.33.825-.825 1.551-1.419 2.243 0 0-.033 0-.033.033-.132-.297-.297-.627-.429-.924 0 .033 0 .033-.033.066a3.683 3.683 0 0 1-.594 1.386c-.33.495-.759.924-1.254 1.32s-1.023.693-1.584.99h-.033c-.033-.033-.033-.066-.066-.099-.066-.099-.132-.231-.231-.33-.132-.231-.297-.429-.462-.627s-.363-.363-.594-.495c-.264-.132-.528-.231-.825-.198-.231 0-.429.066-.627.132a3.325 3.325 0 0 0-.759.396c-.33.231-.627.495-.858.759l-.033.033c-.033-.033-.066-.099-.099-.132a5.224 5.224 0 0 0-1.023-.858 3.112 3.112 0 0 0-.759-.33c-.231-.066-.462-.066-.726-.033a1.502 1.502 0 0 0-.627.264c-.198.165-.396.33-.561.528s-.297.396-.429.627c-.066.066-.099.165-.165.231 0 .033-.033.033-.066.066a8.89 8.89 0 0 1-.957-.528c-.528-.363-1.056-.759-1.452-1.221a4.654 4.654 0 0 1-1.023-1.848c0-.033-.033-.099-.033-.165-.132.297-.297.627-.429.924l-.033-.033a8.91 8.91 0 0 1-.891-1.287c-.528-.924-.891-1.88-.957-2.936 0-.033 0-.066-.033-.099v-.462c0-.033.033-.099.033-.132.033-.33.066-.66.165-.99a6.261 6.261 0 0 1 1.023-2.111c.231-.33.495-.627.792-.924.198-.198.33-.396.429-.66.132-.297.165-.594.033-.891l-.099-.297a5.435 5.435 0 0 1-.198-1.056c-.033-.396 0-.825.132-1.221.099-.33.198-.693.264-1.023a2.674 2.674 0 0 0 0-.726c-.066-.297-.132-.594-.198-.858-.033-.066-.033-.165-.066-.231.396-.165.825-.297 1.221-.462 0 .033 0 .033.033.066.033.099.066.198.099.264.132.363.363.627.726.825.264.132.528.297.792.462.297.165.561.33.858.495.363.231.726.495 1.056.792.033.033.066.033.099.033.099-.033.231-.066.33-.066a12.4 12.4 0 0 1 1.089-.165c.264-.033.528-.066.792-.066.231-.033.429-.033.66-.033.396 0 .759 0 1.155.033.33.033.693.066 1.023.099.429.066.891.132 1.32.231.033 0 .066 0 .132-.033.363-.33.726-.627 1.155-.858.264-.132.495-.297.759-.429.297-.165.594-.363.891-.528.165-.099.297-.231.396-.363.132-.198.231-.396.297-.594 0-.033.033-.066.033-.132.396.165.825.297 1.221.462 0 .033 0 .033-.033.066-.066.297-.165.561-.231.858a1.364 1.364 0 0 0-.066.627c0 .165.033.297.066.462.066.297.132.561.231.825.066.231.132.429.132.66.033.396 0 .792-.099 1.221a4.673 4.673 0 0 1-.231.726 1.093 1.093 0 0 0 0 .792c.066.198.198.363.33.528.099.132.231.264.363.396.561.627 1.023 1.287 1.353 2.045.264.594.396 1.221.429 1.88v.066c-.099.165-.099.297-.099.429z"/></svg>