<svg xmlns="http://www.w3.org/2000/svg" width="32" height="32"><path d="M21 0v2h-9.979V0H21zM0 0h7v2H0V0zm8 0h2.004L10 2H8V0zm14 0h2v2h-2V0zm10 3.005V5H.002L0 3l32 .005zM25 0h7v2h-7V0zM.002 31.907H32V6.021H.002v25.886zm8.889-3.718c-.945 0-2.048-.106-2.652-.288l.185-1.025c.498.131 1.547.236 2.283.236 2.571 0 4.538-1.416 4.538-3.779 0-2.046-2.177-3.332-5.403-3.332l.209-1.025c2.466-.078 4.617-2.046 4.617-4.041 0-1.6-1.179-2.44-2.991-2.44-1.155 0-2.258.422-3.149.998l-.104-.865c.76-.788 2.177-1.497 3.91-1.497 2.832 0 4.486 1.417 4.486 3.437 0 2.047-1.654 3.647-3.28 4.225 2.204.394 3.832 1.943 3.832 4.015 0 3.202-2.94 5.38-6.482 5.38zm13.199-.447c-1.025 0-2.782.052-3.438.078v-.735l1.626-.13c.631-.052.866-.261.866-2.1v-11.02c0-.237-.106-.446-.368-.446-.184 0-.55.078-.944.183l-1.784.498-.105-.761 5.144-2.466v14.012c0 1.839.289 2.048.866 2.1l1.732.13v.735c-.657-.025-2.598-.078-3.595-.078z"/></svg>