<svg xmlns="http://www.w3.org/2000/svg" width="32" height="32"><path d="M15.814 14.209a1.348 1.348 0 1 0 .014 2.694 1.348 1.348 0 0 0-.015-2.694zM20 4.021L12.003 2l.001 20.711c.174.056.431.142.609.184l-.259 1.091c-.195-.045-.161-.049-.351-.108L12 28.001l8.001 2L20 4.021zm-6.39 20.163a8.543 8.543 0 0 1-.636-.075l.177-1.106c.179.028.359.05.542.063l-.083 1.119zm.637.021l-.008-1.121c.182-.001.364-.01.547-.025l.099 1.117a8.006 8.006 0 0 1-.637.029zm1.27-.114l-.194-1.103c.177-.032.355-.069.534-.116l.282 1.085a7.21 7.21 0 0 1-.623.134zm1.228-.316l-.362-1.061c.172-.059.342-.125.514-.197l.441 1.03a8.482 8.482 0 0 1-.593.228zm1.712-.8c-.183.109-.365.211-.548.305l-.511-.998a8.79 8.79 0 0 0 .487-.27l.573.963zm.112-7.333a2.742 2.742 0 0 1-.153.828c-.578 1.931-2.57 4.457-2.57 4.457s-2.016-2.507-2.612-4.432a2.693 2.693 0 0 1-.161-.826l-.003-.098a2.75 2.75 0 1 1 5.501-.026l-.001.098zM30.021 2l-8.013 2-.007 26.001 7.999-2L30.021 2zm-7.407 17.693l-.549-.98c.197-.109.389-.204.58-.288l.448 1.029a4.866 4.866 0 0 0-.48.239zm.974-.423l-.329-1.071c.218-.068.43-.119.64-.158l.198 1.103a4.661 4.661 0 0 0-.509.126zm1.542-.177a3.467 3.467 0 0 0-.339-.014l-.178.004-.056-1.119.227-.006c.148-.001.295.004.437.015l-.092 1.119zm1.023.215a4.273 4.273 0 0 0-.506-.139l.229-1.099c.222.046.433.106.635.175l-.359 1.063zm.491.199l.475-1.015c.201.092.392.196.571.301l-.571.965a5.458 5.458 0 0 0-.475-.25zm.926.548l.657-.91c.189.138.357.273.503.4l-.735.846a7.214 7.214 0 0 0-.425-.336zM10.001 1.992l-8 2.009-.007 10.538.654.598-.645.699-.009 14.165 8.007-2 .001-26.009zm-7.659 14.39l.762-.822.433.403-.761.822-.434-.402zm.868.804l.762-.822.433.403-.761.822-.434-.403zm.867.806l.762-.822.435.401-.763.824-.434-.403zm.868.805l.763-.822.433.403-.763.822-.434-.403zm.868.804l.763-.821.434.401-.763.822-.434-.403zm.869.805l.763-.822.434.404-.763.822-.433-.404zm.856.8l.782-.804c.135.131.274.259.415.383l-.743.84a12.68 12.68 0 0 1-.454-.42zm.929.817l.7-.877c.146.117.296.231.448.34l-.652.912c-.169-.12-.334-.245-.497-.375z"/><path d="M18.354 21.713l.396-.271.635 1.005-.443.214zM19.104 21.255l.396-.271.635 1.005-.443.214zM9.993 21.751l.402.262-.685.972-.367-.327zM29.083 19.811l.367.291-.702.93-.353-.342zM29.831 20.421l.367.291-.702.93-.353-.342z"/></svg>