<svg xmlns="http://www.w3.org/2000/svg" width="32" height="32"><path d="M2.511 22h26.985c.301 0 .512-.217.512-.462V4.464c0-.272-.241-.462-.512-.462H2.511c-.301 0-.511.218-.511.462v17.047c0 .272.241.489.511.489zM4 6h24v14H4V6zm6.016 9.904l-1.019-1.108-.57.511 1.618 1.534 2.727-2.556-.569-.454-2.188 2.074zm0-4.545l-1.019-1.108-.57.511 1.618 1.534 2.727-2.556-.569-.483-2.188 2.102zM31.48 23H.52a.533.533 0 0 0-.52.549v.923c0 .286.234.527.52.527h30.96c.286 0 .52-.242.52-.549v-.923c-.026-.286-.234-.527-.52-.527z"/></svg>