<svg xmlns="http://www.w3.org/2000/svg" width="32" height="32"><path d="M12.335 24.657C5.534 24.657 0 19.123 0 12.322S5.534 0 12.335 0 24.67 5.534 24.67 12.335c0 .383-.304.687-.687.687s-.687-.304-.687-.687c0-6.035-4.913-10.962-10.962-10.962S1.372 6.286 1.372 12.321c0 6.049 4.913 10.962 10.962 10.962.383 0 .687.304.687.687s-.304.687-.687.687z"/><path d="M28.659 32a.701.701 0 0 1-.489-.198l-5.217-5.217-2.866 2.866a.674.674 0 0 1-.621.185.678.678 0 0 1-.502-.423l-6.63-16.337a.718.718 0 0 1 .145-.753.689.689 0 0 1 .753-.145l16.35 6.63c.211.092.37.277.423.502s-.026.462-.185.621l-2.879 2.866 5.217 5.217a.702.702 0 0 1 0 .977l-3.011 3.011a.701.701 0 0 1-.489.198zm-5.706-7.079c.172 0 .357.066.489.198l5.217 5.217 2.034-2.034-5.217-5.217c-.132-.132-.198-.304-.198-.489s.079-.357.198-.489l2.615-2.615-13.867-5.626 5.626 13.867 2.615-2.615a.701.701 0 0 1 .489-.198zM8.677 12.969H6.405c-.251 0-.462-.211-.462-.462s.211-.462.462-.462h2.272c.251 0 .462.211.462.462s-.211.462-.462.462zM15.452 10.209a.459.459 0 0 1-.33-.132.446.446 0 0 1 0-.647l1.558-1.558a.446.446 0 0 1 .647 0 .446.446 0 0 1 0 .647l-1.558 1.558a.462.462 0 0 1-.317.132zM8.228 17.433a.459.459 0 0 1-.33-.132.446.446 0 0 1 0-.647l1.558-1.558a.446.446 0 0 1 .647 0 .446.446 0 0 1 0 .647l-1.545 1.558a.52.52 0 0 1-.33.132zM12.573 9.073a.467.467 0 0 1-.462-.462V6.339c0-.251.211-.462.462-.462s.462.211.462.462v2.272a.467.467 0 0 1-.462.462zM9.786 10.209a.459.459 0 0 1-.33-.132L7.898 8.519a.446.446 0 0 1 0-.647.446.446 0 0 1 .647 0l1.558 1.558a.446.446 0 0 1 0 .647.462.462 0 0 1-.317.132z"/></svg>