<svg xmlns="http://www.w3.org/2000/svg" width="32" height="32"><path d="M15.577 2.538h.215c.178.126.366.228.531.366 1.113.86 2.213 1.72 3.326 2.58a.518.518 0 0 0 .279.088h4.351c.088 0 .178.013.253.038.253.101.304.329.316.569v3.175c0 .088 0 .164.088.228 1.012.784 2.024 1.581 3.035 2.365.557.43 1.113.872 1.682 1.303.076.063.139.178.265.088V27.49c-.013 1.138-.91 1.897-1.923 1.948H3.991c-.265 0-.519-.076-.759-.19-.658-.329-1.063-.847-1.125-1.606v-.215-14.089c.051.013.114.038.152.051.178-.152.329-.278.493-.417A1233.17 1233.17 0 0 1 7.14 9.393c.101-.088.139-.164.139-.291 0-.987.013-1.986-.013-2.972 0-.304.24-.569.569-.569 1.278.013 2.555.013 3.832 0a.41.41 0 0 0 .24-.076c.797-.645 1.581-1.29 2.378-1.935.417-.342.86-.671 1.29-1.012zm.48 4.034H8.481c-.228 0-.228 0-.228.215v9.131c0 .101.025.164.126.215.215.101.417.228.632.342.91.456 1.822.898 2.732 1.34 1.48.721 2.972 1.43 4.452 2.15a.274.274 0 0 0 .279 0c.405-.215.822-.417 1.226-.632 1.973-1.012 3.934-2.024 5.906-3.035.139-.076.19-.152.19-.316v-9.03-.202c.013-.19.013-.19-.178-.19-2.516.013-5.034.013-7.563.013zM3.878 28.387h24.294c-.063-.088-.114-.139-.152-.19-.569-.595-1.138-1.176-1.707-1.77-.898-.936-1.808-1.872-2.707-2.808-.531-.544-1.063-1.088-1.581-1.631-.708-.721-1.404-1.455-2.1-2.188-.063-.076-.126-.076-.215-.025-1.012.544-2.024 1.075-3.035 1.619-.228.126-.43.139-.671.013-1.151-.595-2.302-1.176-3.452-1.758-.101-.051-.164-.051-.24.038-.405.43-.822.86-1.226 1.278-.62.645-1.252 1.29-1.884 1.935-.973 1.012-1.948 2.011-2.922 3.023-.759.784-1.517 1.556-2.276 2.34a.299.299 0 0 0-.126.126zm7.563-9.282c-2.783-1.391-5.552-2.757-8.322-4.136v12.723c2.783-2.87 5.539-5.716 8.322-8.587zm9.308.127c2.719 2.808 5.413 5.603 8.132 8.423V15.021c-2.707 1.404-5.413 2.808-8.132 4.211zM3.625 13.565c1.226.658 2.415 1.303 3.629 1.96v-4.92c-1.226.987-2.415 1.96-3.629 2.959zm21.209 2.062c1.214-.682 2.39-1.353 3.605-2.024-1.214-.948-2.39-1.859-3.605-2.808v4.831zM13.426 5.56h4.641c-.013-.025-.013-.025-.025-.038-.746-.581-1.505-1.164-2.251-1.758-.088-.063-.139-.038-.215.013-.215.178-.417.342-.632.519-.493.417-.987.835-1.517 1.265zM3.979 29.463v-.025h24.004v.025H3.98zM2.095 27.641H2.07V13.35h.025v14.291z"/><path d="M29.93 27.49h-.025v-.215-13.937h.025V27.49zM21.065 9.43v.923c0 .025-.038.063-.076.076s-.088 0-.139 0h-9.712c-.215 0-.215 0-.215-.215v-.671c0-.088.025-.126.126-.126H20.849c.063.013.126.013.215.013zM16.019 12.187h4.857c.19 0 .19 0 .19.202v.682c0 .088-.025.139-.126.126H11.14c-.215 0-.215 0-.215-.215 0-.202.013-.417 0-.62-.013-.126.038-.178.164-.178.632.013 1.252 0 1.884 0h3.048zM16.006 15.07h4.87c.202 0 .202 0 .202.202v.682c0 .088-.025.139-.126.126H11.152c-.215 0-.215 0-.215-.215v-.581c0-.215 0-.215.215-.215h4.857z"/></svg>