<svg xmlns="http://www.w3.org/2000/svg" width="32" height="32"><path d="M28.718 8.011v.012L17.055 20.365l-2.07-3.435a5.667 5.667 0 0 1-3.19 3.061l5.061 4.605 15.822-12.841V3.834l-.573.601-3.388 3.576z"/><path d="M-.957-.788v33.683h33.638V13.007l-.573.463-6.744 5.471.865.864-8.919 8.93-7.772-7.773a6.4 6.4 0 0 1-6.311-6.404 6.4 6.4 0 0 1 6.405-6.404 6.409 6.409 0 0 1 6.067 4.335l1.612-1.6 3.765 3.763L32.68 2.432v-3.22H-.956z"/><path d="M12.97 11.18a4.754 4.754 0 0 0-6.744 0 4.742 4.742 0 0 0-1.392 3.379c0 1.308.527 2.5 1.392 3.365s2.057 1.402 3.377 1.402c1.31 0 2.502-.538 3.367-1.402s1.401-2.057 1.401-3.365a4.76 4.76 0 0 0-1.401-3.379z"/></svg>