<svg xmlns="http://www.w3.org/2000/svg" width="32" height="32"><path d="M10.75 13.113c-1.1-.6-1.6-1.6-1.8-2.8-.2-.8-.1-1.6.3-2.4.6-1.2 1.8-1.5 2.8-.8 1.3.9 1.7 2.2 1.8 3.6 0 .6-.1 1.2-.4 1.7-.6 1-1.7 1.3-2.7.7zm3.8 5.399c-.9-.6-1.8-.8-3-.8s-2.3.4-3.2 1.2c-1.2 1.2-1.1 2.8.3 3.7 1.1.8 2.3 1 3.6.7 1-.2 1.8-.5 2.5-1.2 1.1-1.1 1-2.6-.2-3.6zM32 0v32H0V0h32zM16.25 17.712c-.4-.5-.8-.9-1.3-1.3-.3-.3-.8-.6-1.1-1-.5-.5-.5-.9 0-1.4.3-.3.6-.5.9-.8.7-.7 1.3-1.4 1.4-2.4.1-.6.1-1.2 0-1.8 0-.9-.4-1.7-1.3-2.1-.1 0-.1 0-.1-.1.1 0 .1-.1.2-.1.3-.1.7-.1 1-.2s.7-.1 1-.3c0-.1.1-.2.1-.3s-.1-.1-.2-.1h-4.5c-.6 0-1.2.1-2.1.3-.5.1-1.1.3-1.6.6-2.1 1.1-2.6 2.8-2.3 4.8.2 1.7 1.3 2.6 2.9 3 .5.1.9.1 1.4.1.2 0 .3.1.3.3 0 .6-.1 1.1.5 1.5.2.1.3.3.2.5 0 .2-.2.1-.4.1-1.4 0-2.8.2-4.1.9-.9.5-1.6 1.2-1.8 2.2-.4 1.9.5 3.5 2.3 4.2 1.4.6 3 .7 4.5.5 1.2-.2 2.2-.5 3.2-1.2 1.9-1.3 2.3-4.2.9-5.9zm10.5-8.3h-3.5v-3.6h-1v3.6h-3.5v1h3.5v3.5h1v-3.5h3.5v-1z"/></svg>