<svg xmlns="http://www.w3.org/2000/svg" width="64" height="64"><g fill-rule="evenodd" clip-rule="evenodd" fill="#333"><path d="M48.457 26.969c-.041-1.579-.101-3.164-.263-4.736-.152-1.503-.681-2.887-1.695-4.056-1.421-1.637-3.295-2.325-5.369-2.452-2.362-.143-4.728-.178-7.095-.207-2.356-.029-4.711-.02-7.066.026a59.447 59.447 0 0 0-4.736.259c-1.503.154-2.887.684-4.056 1.699-1.635 1.418-2.325 3.292-2.45 5.367-.145 2.362-.18 4.731-.209 7.097-.029 2.354-.02 4.71.029 7.066.03 1.579.098 3.164.257 4.735.154 1.503.684 2.888 1.699 4.057 1.418 1.635 3.292 2.325 5.367 2.452 2.362.142 4.731.178 7.097.206 2.354.029 4.711.03 7.064-.03 1.738-.046 3.493-.078 5.205-.347 2.928-.46 4.906-2.156 5.694-5.06.255-.94.387-1.935.425-2.91.1-2.71.119-5.425.172-8.139h-.062c.001-1.674.033-3.351-.008-5.027zM31.971 42.343c-5.701-.009-10.318-4.64-10.312-10.352.003-5.724 4.638-10.342 10.37-10.334 5.703.011 10.318 4.64 10.316 10.353-.003 5.721-4.641 10.342-10.374 10.333zm10.766-18.651c-1.331.001-2.433-1.106-2.428-2.443a2.434 2.434 0 0 1 2.41-2.414 2.42 2.42 0 0 1 2.446 2.416 2.436 2.436 0 0 1-2.428 2.441z"/><path d="M32.066 25.305c-3.747-.003-6.761 2.975-6.761 6.679s2.998 6.712 6.689 6.712c3.663 0 6.699-2.997 6.702-6.621.002-3.731-2.971-6.768-6.63-6.77z"/><path d="M0 0v64h64V0H0zm52.125 38.629c-.021.125-.061.252-.061.377-.046 1.556-.118 3.108-.497 4.627-.861 3.429-2.85 5.921-6.119 7.336-1.772.768-3.656.988-5.565 1.066-.419.019-.836.06-1.254.09H25.371c-.125-.021-.25-.059-.377-.062-1.554-.046-3.108-.118-4.627-.499-3.427-.858-5.921-2.846-7.334-6.115-.767-1.772-.988-3.656-1.066-5.563-.018-.421-.059-.838-.091-1.256V25.372c.023-.125.061-.25.064-.377.046-1.556.116-3.108.499-4.627.859-3.427 2.848-5.921 6.116-7.334 1.772-.767 3.655-.99 5.565-1.066.418-.018.834-.061 1.252-.091H38.63c.127.021.25.061.377.064 1.558.046 3.108.116 4.627.497 3.427.861 5.921 2.848 7.334 6.118.77 1.772.99 3.655 1.068 5.563.019.42.062.836.09 1.254l-.001 13.256z"/></g></svg>