<svg xmlns="http://www.w3.org/2000/svg" width="32" height="32"><path d="M11.416 10.362c.878 0 1.405.562 1.405 1.335 0 .738-.562 1.335-1.44 1.335-.843 0-1.405-.597-1.405-1.335 0-.773.562-1.335 1.44-1.335zm-1.3 11.346v-7.657h2.529v7.658h-2.529zm8.782-7.833c1.686 0 2.915 1.089 2.915 3.442v4.356h-2.529v-4.075c0-1.019-.386-1.721-1.3-1.721-.702 0-1.124.457-1.3.913-.07.176-.07.386-.07.632v4.285h-2.529s.035-6.955 0-7.658h2.529v1.089c.316-.527.948-1.264 2.283-1.264zM0 0h32v32H0V0zm24.001 22.806L24 9.195c0-.667-.527-1.194-1.229-1.194l-13.542.012C8.562 8.013 8 8.54 8 9.207l-.001 13.609c0 .668.527 1.194 1.229 1.194L22.772 24c.667 0 1.229-.527 1.229-1.194z"/></svg>