<svg xmlns="http://www.w3.org/2000/svg" width="32" height="32"><path d="M14.549 16.924c-.528 0-1.188-.264-1.583-.66s-.66-1.056-.66-1.583l-3.563 3.563c.264.396.528.924.924 1.32s.924.792 1.451 1.056l3.431-3.695zM27.215 1.882a5.655 5.655 0 0 0-8.049 0l-9.632 9.632c-1.583 1.583-1.979 3.958-1.32 5.938L20.617 5.049c.924-.924 2.375-.924 3.299 0s.924 2.375 0 3.299l-.792 1.056-11.347 11.611c1.979.66 4.222.264 5.806-1.32l9.632-9.632c2.243-2.375 2.243-5.938 0-8.181zm-8.048 13.854c.396.396.66 1.056.66 1.583l3.563-3.563c-.264-.528-.528-.924-.924-1.32s-.924-.792-1.32-1.056l-3.563 3.695c.528 0 1.056.264 1.583.66zm4.618-1.187l-5.014 4.882-7.389 7.389c-.924.924-2.375.924-3.299 0s-.924-2.375 0-3.299l2.771-2.771 6.465-6.729 2.903-2.903c-1.979-.66-4.222-.264-5.806 1.32L4.784 22.07c-2.243 2.243-2.243 5.806 0 8.049s5.806 2.243 8.049 0l9.632-9.632c1.583-1.715 1.979-3.958 1.32-5.938z"/></svg>