<svg xmlns="http://www.w3.org/2000/svg" width="32" height="32"><path d="M9.56 10.253V9.135l-.275.567c.031.218.125.41.275.551zm1.468-.549l-.275-.57v1.12a.91.91 0 0 0 .275-.55zm.638 1.325a2.09 2.09 0 0 1-.68.485l1.356 2.89.399.002h.552l-1.627-3.378zm-4.638 3.36l.95.003 1.349-2.878a2.1 2.1 0 0 1-.68-.487l-1.629 3.38h.026l-.016-.018zm3.584 1.211H9.71l.449.5.453-.5zm-1.319-1.204l1.73.005-.866-1.847-.863 1.842zm-.777 1.657l-.312.664h.906l-.594-.664zm-2.612.666h.984l.523-1.119h-.967l-.54 1.119zM26.445 4.001H2.003V28h30.005V9.267l-5.563-5.266zm-10.093 14l-12.39-.003 6.04-12.812 6.35 12.815zM30.021 26H4v-2h26.021v2zM30 22H4v-2h26v2zm.01-4H18v-1.999h12.01V18zM18 14v-2.005h12.01V14H18zm-4.13 1.6h-.968l.523 1.119h.985l-.54-1.119zm-2.662 1.119h.902l-.309-.657-.592.657zM.008 6.004h1.23V28H.008V6.004z"/></svg>