<svg xmlns="http://www.w3.org/2000/svg" width="32" height="32"><path d="M32.001 0H0v32h9.751c0-.023.006-.043.006-.067a7.823 7.823 0 0 0-.073-.748 10.273 10.273 0 0 0-.128-.891l.041.02c-.046-1.115-.009-2.452.276-3.665l2.053-8.689s-.51-1.016-.51-2.523c0-2.364 1.373-4.128 3.078-4.128 1.45 0 2.149 1.087 2.149 2.394 0 1.458-.929 3.637-1.408 5.659-.398 1.691.85 3.073 2.518 3.073 3.024 0 5.059-3.881 5.059-8.481 0-3.495-2.355-6.113-6.637-6.113-4.838 0-7.854 3.608-7.854 7.639 0 1.39.412 2.371 1.052 3.129.295.348.335.489.231.89-.079.292-.253.999-.325 1.278-.104.404-.435.549-.799.399-2.229-.909-3.267-3.351-3.267-6.093 0-4.532 3.82-9.963 11.399-9.963 6.088 0 10.096 4.407 10.096 9.135 0 6.257-3.478 10.933-8.605 10.933-1.721 0-3.34-.933-3.896-1.99 0 0-.927 3.675-1.124 4.385-.331 1.207-.974 2.41-1.57 3.36a2.6 2.6 0 0 0-.335.345 7.3 7.3 0 0 0-.791.71h21.614v-32z"/></svg>