<svg xmlns="http://www.w3.org/2000/svg" width="32" height="32"><path d="M0 0v31.903h.096v.155H32V0H0zm14.428 17.991a6.616 6.616 0 0 0-4.703-1.955v-2.715a9.326 9.326 0 0 1 6.628 2.755 9.37 9.37 0 0 1 2.756 6.631h-2.728v-.005a6.635 6.635 0 0 0-1.953-4.712zm-.924 2.817a1.878 1.878 0 0 1-.554 1.329h-.002a1.892 1.892 0 0 1-3.228-1.329c0-.518.215-.989.554-1.329a1.882 1.882 0 0 1 1.336-.554c.525 0 .992.21 1.338.554.344.34.554.81.556 1.329zm-3.775-9.609V8.484a14.171 14.171 0 0 1 10.045 4.175 14.18 14.18 0 0 1 4.171 10.048H21.22c-.002-6.342-5.157-11.503-11.492-11.508z"/></svg>