<svg xmlns="http://www.w3.org/2000/svg" width="32" height="32"><path d="M16.456 14.924c-.396 0-.713.304-.713.674V31.01c0 .37.317.674.713.674s.713-.304.713-.674V15.598c0-.37-.317-.674-.713-.674zM18.595 2.721l-.026-.211-.053-.211-.066-.198-.079-.198-.106-.185-.119-.172-.132-.158-.145-.145-.158-.132-.172-.119L17.354.9l-.198-.079-.198-.066-.211-.04-.198-.013h-.251l-.211.026-.211.066-.198.066-.198.079-.185.106-.172.119-.158.132-.145.145-.132.158-.119.172-.092.185-.079.198-.066.198-.04.211-.013.198v.251l.026.211.053.211.066.198.106.198.106.185.119.172.132.158.145.145.158.132.172.119.185.092.185.079v1.347c0 .396.317.713.713.713s.713-.317.713-.713V4.886l.053-.013.198-.079.185-.106.172-.119.158-.132.145-.145.132-.158.119-.172.092-.185.079-.198.066-.198.04-.211.013-.198v-.079-.04l-.013-.132zm-1.426.158v-.04.079l-.013.092-.013.066-.053.132-.079.106-.106.106-.053.04-.066.04-.132.053-.132.026h-.132l-.092-.013-.066-.013L16.1 3.5l-.106-.079-.106-.106-.079-.106-.053-.132-.026-.132v-.132l.013-.092.013-.066.053-.132.079-.106.106-.106.106-.079.132-.053.132-.026h.132l.092.013.066.013.132.053.106.079.106.106.079.106.053.132.026.132v.079l.013.013z"/><path d="M25.634 15.809H5.296c-.74 0-1.321-.581-1.321-1.321V7.343c0-.74.581-1.321 1.321-1.321h20.338c.343 0 .687.145.924.396l2.655 2.655c.106.106.436.436.383 2.1-.026 1.083-.211 1.413-.396 1.598l-2.641 2.641a1.244 1.244 0 0 1-.924.396zM5.296 7.343v7.145h20.325l2.589-2.589c.106-.383.092-1.585 0-1.968l-2.589-2.589s-.013 0 0 0H5.296zm22.9 4.609zm0-2.073z"/><path d="M22.768 10.565l-.357-1.136h-.013l-.37 1.136h.74zm-2.575 1.955v-.806h.277l.806-2.324h-.357v-.806h3.077v.806h-.357l.779 2.324h.277v.806h-1.968v-.806h.436l-.172-.502h-1.175l-.172.502h.436v.806h-1.889z"/></svg>