<svg xmlns="http://www.w3.org/2000/svg" width="32" height="32"><path d="M4.402 12.591h-.48c-.453 0-.827.48-.827 1.093s.373 1.093.827 1.093h.533c-.053-.427-.08-.853-.08-1.307 0-.293 0-.587.027-.88zm.506 4.907c-.453 0-.827.48-.827 1.093s.373 1.093.827 1.093h.907a.714.714 0 0 0 .32-.08c-.4-.667-.747-1.36-1.04-2.107h-.187zm2.854 4.16c-.24.187-.373.533-.373.907 0 .613.373 1.093.827 1.093h.907c.267 0 .48-.16.64-.4a10.55 10.55 0 0 1-2-1.6zm14.613 1.493a.72.72 0 0 0 .453.16h.907c.453 0 .827-.48.827-1.093 0-.267-.08-.533-.213-.72a9.697 9.697 0 0 1-1.973 1.653zm3.84-3.733h.907c.453 0 .827-.48.827-1.093s-.373-1.093-.827-1.093h-.16a11.93 11.93 0 0 1-.987 2.133c.107.027.16.053.24.053zm1.84-7.2h-.507c.053.427.08.827.08 1.253 0 .32-.027.613-.027.907h.48c.453 0 .827-.48.827-1.093-.027-.587-.4-1.067-.853-1.067zm-.453-3.787c0-.613-.373-1.093-.827-1.093h-.907-.027c.427.667.773 1.387 1.067 2.16.4-.08.693-.533.693-1.067zm-3.307-3.733c0-.613-.373-1.093-.827-1.093h-.907a.714.714 0 0 0-.32.08c.693.453 1.36.96 1.947 1.547.053-.16.107-.347.107-.533zm-4.507-2.453c0-.613-.373-1.093-.827-1.093h-.907c-.373 0-.693.32-.8.773.88.107 1.707.293 2.507.56.027-.08.027-.16.027-.24zm-5.653-1.147h-.907c-.453 0-.827.48-.827 1.093 0 .08 0 .16.027.24a11.21 11.21 0 0 1 2.533-.507c-.107-.48-.427-.827-.827-.827zM9.468 3.045h-.907c-.453 0-.827.48-.827 1.093 0 .347.133.667.32.853a11.86 11.86 0 0 1 2.053-1.547c-.16-.24-.373-.4-.64-.4zm-3.36 3.893h-.907c-.453 0-.827.48-.827 1.093s.373 1.093.827 1.093c.293-.747.693-1.467 1.12-2.133a.495.495 0 0 0-.213-.053zm4.054 16.587c-.027-.027-.053-.027-.08-.053l.08.053zm10.933.373l.08-.027c-.053 0-.053.027-.08.027zm-10.213 0c-.027 0-.027-.027-.053-.027l.053.027zm10.933-.373c-.027.027-.08.027-.107.053l.107-.053zm-10.933.373a11.705 11.705 0 0 0 5.093 1.173c1.84 0 3.573-.427 5.093-1.173l-5.013-9.52-5.173 9.52zm5.839.8h-1.307v-7.573h1.307v7.573zm9.601-11.387c0-.613.373-1.093.827-1.093h.373a11.575 11.575 0 0 0-.64-2.72c-.053 0-.08.027-.133.027h-.88c-.453 0-.827-.48-.827-1.093 0-.587.373-1.067.827-1.093a13.138 13.138 0 0 0-1.707-2.107c-.133.32-.427.56-.72.56h-.907c-.453 0-.827-.48-.827-1.093 0-.453.213-.853.533-1.013-.773-.48-1.6-.907-2.48-1.2-.08.48-.427.853-.827.853h-.907c-.453 0-.827-.48-.827-1.093 0-.107.027-.213.053-.32-.427-.053-.853-.08-1.28-.08-.347 0-.693.027-1.04.053.027.08.027.187.027.267 0 .613-.373 1.093-.827 1.093h-.907c-.4 0-.747-.373-.827-.853-.827.267-1.6.613-2.32 1.04.107.187.187.427.187.693 0 .613-.373 1.093-.827 1.093h-.907a.658.658 0 0 1-.507-.24c-.64.587-1.2 1.253-1.707 2 .347.133.587.533.587 1.04 0 .613-.373 1.093-.827 1.093h-.88c-.427 1.093-.72 2.24-.8 3.467h.427c.453 0 .827.48.827 1.093s-.373 1.093-.827 1.093h-.373c.107.96.32 1.867.64 2.72h.693c.453 0 .827.48.827 1.093 0 .453-.213.853-.507 1.013.48.747 1.013 1.44 1.627 2.08.133-.107.293-.187.453-.187h.907c.453 0 .827.48.827 1.093a1.4 1.4 0 0 1-.187.693c.107.08.213.16.347.213l5.92-10.907 5.813 10.933c.187-.107.373-.24.56-.347-.24-.187-.4-.533-.4-.933 0-.613.373-1.093.827-1.093h.933c.24 0 .48.133.613.373.64-.64 1.173-1.387 1.653-2.16-.347-.133-.613-.533-.613-1.04 0-.613.373-1.093.827-1.093h.747c.32-.907.507-1.84.587-2.827h-.4c-.453-.027-.827-.507-.827-1.093zm.346-2.933l.32 1.253-7.36 1.867-.32-1.253 7.36-1.867zm-21.386.88l.32-1.253 7.333 1.893-.32 1.253-7.333-1.893zm.32 5.44l-.32-1.253 7.36-1.84.32 1.253-7.36 1.84zm2.133 4.213l-.8-1.04 6-4.613.8 1.04-6 4.613zm5.387-9.333L7.229 6.805l.827-1.013 5.867 4.773-.8 1.013zm1.013-.987l-3.333-6.8 1.173-.587 3.333 6.827-1.173.56zm2.586-.506h-1.307V2.512h1.307v7.573zm.267 0l3.227-6.853 1.173.56-3.227 6.853-1.173-.56zm7.334-3.787l.8 1.04-6.027 4.613-.8-1.04 6.027-4.613zm-.081 14.747l-5.893-4.773.827-1.013 5.893 4.773-.827 1.013zm2.427-4.16l-7.333-1.893.32-1.253 7.333 1.893-.32 1.253zM2.005 28H30v1.992H2.005V28zm8.877-4.102l-2.213 4.107H7.656l2.453-4.533c.08.053.773.427.773.427zm10.213 0l2.186 4.107h.933l-2.4-4.48-.72.373z"/></svg>