<svg xmlns="http://www.w3.org/2000/svg" width="32" height="32"><path d="M21.824 6.141c.106.141.176.282.176.459v16.766a.676.676 0 0 1-.176.459c-.141.106-.282.176-.459.176l-10.733.007a.672.672 0 0 1-.459-.176c-.106-.141-.176-.282-.176-.459L10 6.602c0-.141.071-.318.176-.423.141-.106.282-.176.459-.176l10.73-.002s.317.035.459.141zM16 24.885c.423 0 .811.176 1.094.459.317.282.459.67.459 1.094s-.141.776-.459 1.094c-.282.318-.67.459-1.094.459s-.776-.141-1.094-.459c-.318-.282-.459-.67-.459-1.094s.141-.776.459-1.094c.282-.317.67-.459 1.094-.459zM0 0h32v32H0V0zm24.021 4.54c0-.706-.247-1.305-.741-1.799S22.221 2 21.551 2H10.47c-.67 0-1.235.212-1.729.741S8 3.835 8 4.54l.009 22.899c0 .706.247 1.305.741 1.799s1.058.741 1.729.741L21.552 30c.67 0 1.235-.247 1.729-.741.494-.529.741-1.094.741-1.799l-.001-22.919z"/></svg>