<svg xmlns="http://www.w3.org/2000/svg" width="32" height="32"><path d="M24.197 5.206v6.355c0 2.774-.593 4.221-1.826 5.43-1.257 1.257-2.917 1.921-5.24 1.921-3.723 0-6.355-2.348-6.355-6.118V7.53c0-1.518-.047-4.576-.166-5.715.948 0 1.802-.024 2.585-.119-.071.688-.095 2.585-.095 3.509v6.829c0 3.533 1.755 4.814 4.481 4.814 2.703 0 4.292-1.66 4.292-4.316V7.529c0-1.518-.047-4.576-.19-5.715.948 0 1.826-.024 2.632-.119-.095.688-.119 2.585-.119 3.509zM2.662 22.43c.42-.93.697-1.56.941-2.191l.708-.089L6.9 25.838c.321.697.73 1.593 1.073 2.257l-1.538.089-.896-2.069H2.407l-.011.033c-.221.542-.564 1.416-.786 1.948H.105l2.556-5.666zm.166 2.655h2.279l-1.14-2.7-1.14 2.7zm8.612-.763a2.059 2.059 0 0 0-1.328-.476c-.918 0-1.549.719-1.549 1.638 0 1.129.775 1.715 1.627 1.715.586 0 .996-.166 1.516-.631l-.044 1.25c-.553.332-.985.476-1.693.476-1.616 0-2.722-1.173-2.722-2.634 0-1.627 1.162-2.91 2.822-2.91.598 0 1.217.177 1.671.498l-.299 1.073zm5.122 0a2.059 2.059 0 0 0-1.328-.476c-.918 0-1.549.719-1.549 1.638 0 1.129.775 1.715 1.627 1.715.586 0 .996-.166 1.516-.631l-.044 1.25c-.553.332-.985.476-1.693.476-1.616 0-2.722-1.173-2.722-2.634 0-1.627 1.162-2.91 2.822-2.91.598 0 1.217.177 1.671.498l-.299 1.073zm5.119 1.405l-3.054.088c.078.93.575 1.405 1.505 1.405.808 0 1.405-.321 1.914-.697l-.033 1.151c-.598.387-1.25.62-2.025.62-1.793 0-2.656-1.228-2.656-2.656 0-1.638 1.073-2.888 2.7-2.888 1.571 0 2.246 1.151 2.246 2.567l-.598.409zm-.609-.774c-.089-.775-.409-1.195-1.096-1.195-.741 0-1.217.542-1.328 1.273l2.423-.078zm5.82-1.804l-.343 1.029a2.334 2.334 0 0 0-1.273-.398c-.443 0-.797.155-.797.542 0 .752 2.623.598 2.623 2.235 0 1.096-.941 1.737-2.136 1.737-.586 0-1.427-.177-1.859-.454l.055-1.173c.465.321 1.184.598 1.804.598.52 0 .874-.199.874-.553 0-.896-2.611-.631-2.611-2.324 0-.907.786-1.638 1.992-1.638.664 0 1.306.188 1.671.398zm4.553 0l-.343 1.029a2.334 2.334 0 0 0-1.273-.398c-.443 0-.797.155-.797.542 0 .752 2.623.598 2.623 2.235 0 1.096-.941 1.737-2.136 1.737-.586 0-1.427-.177-1.859-.454l.055-1.173c.465.321 1.184.598 1.804.598.52 0 .874-.199.874-.553 0-.896-2.611-.631-2.611-2.324 0-.907.786-1.638 1.992-1.638.664 0 1.306.188 1.671.398z"/></svg>