<svg xmlns="http://www.w3.org/2000/svg" width="32" height="32"><path d="M14.293 14.4H12.08v-.56h-.027c-.24.32-.96.747-2.08.747-1.253 0-2.213-.56-2.213-1.947V9.387h2.293v2.667c0 .64.347.907.88.907.72 0 1.067-.453 1.067-1.2V9.388h2.293v5.013zm1.387-3.493c.133-.693.427-1.12.987-1.36.56-.267 1.387-.347 2.587-.347 2.347 0 3.253.533 3.253 2.027v2.427c0 .373.107.613.213.773h-2.347a1.45 1.45 0 0 1-.08-.507c-.507.48-1.28.693-2.507.693-1.547 0-2.507-.4-2.507-1.707 0-.907.64-1.493 2.347-1.573l1.92-.08c.453-.027.613-.133.613-.4 0-.32-.4-.48-1.067-.48-.533 0-1.04.08-1.147.56h-2.267zm4.56 1.2c-.373.107-1.04.16-1.84.213-.427.027-.613.187-.613.507 0 .347.293.56.853.56.773 0 1.627-.187 1.627-1.04v-.24zM3.52 16.933c0-.16-.107-.293-.24-.4a.606.606 0 0 0-.427-.16c-.267 0-.587.053-.587.4 0 .16.107.213.24.267.32.133 1.067.187 1.733.4s1.227.587 1.227 1.44c0 1.44-1.36 1.813-2.613 1.813-1.2 0-2.533-.48-2.56-1.813H2.16c0 .187.08.32.24.453.107.08.293.16.533.16.267 0 .667-.107.667-.4s-.16-.4-1.093-.533C1.014 18.293.4 17.813.4 16.933c0-1.307 1.413-1.627 2.427-1.627 1.12 0 2.453.32 2.507 1.627H3.521zm8.16 2.507c0 .4.027.827.24 1.147h-2a1.52 1.52 0 0 1-.08-.48h-.027c-.427.48-1.013.613-1.653.613-.987 0-1.813-.48-1.813-1.547 0-1.627 1.92-1.573 2.907-1.76.267-.053.533-.133.533-.453 0-.347-.32-.48-.64-.48-.613 0-.72.32-.747.533H6.56c.027-.72.4-1.147.907-1.387s1.147-.293 1.76-.293c2.453 0 2.453 1.013 2.453 2.027v2.08zm-1.867-1.173c-.24.107-.507.187-.773.24-.427.107-.667.213-.667.56 0 .24.267.48.613.48.453 0 .8-.267.827-.8v-.48zm6.667 2.32h-2.32l-1.68-5.147h2.08l.8 3.147h.027l.827-3.147h2l-1.733 5.147zm6.453 0h-2.32l-1.68-5.147h2.08l.8 3.147h.027l.827-3.147h2l-1.733 5.147zm6.56-.4c-.16.453-.347 1.04-.64 1.44-.507.64-1.307.64-2.08.64h-.907v-1.573h.453c.187 0 .453.027.587-.053.107-.053.187-.16.187-.4s-.747-2.133-.853-2.453l-.88-2.373h2.107l.827 2.96h.027l.827-2.96h2.027l-1.68 4.773z"/></svg>