<svg xmlns="http://www.w3.org/2000/svg" width="32" height="32"><path d="M18.639 14.639c-4.055 0-7.262-3.301-7.262-7.262 0-2.169.943-4.055 2.452-5.376H6.001v27.998l7.998-7.458 8.021 7.438-.021-16.458c-.938.896-2.323 1.119-3.36 1.119zm0-13.297c-3.301 0-5.941 2.641-5.941 5.941s2.641 5.941 5.941 5.941c3.301 0 5.942-2.641 5.942-5.941s-2.641-5.941-5.942-5.941zm3.207 7.922l-1.32 1.32-1.886-1.98-1.98 1.98-1.226-1.226 1.98-1.981-1.98-1.98 1.226-1.226 1.98 1.981 1.98-1.981 1.226 1.226-1.98 1.981 1.98 1.886z"/></svg>