<svg xmlns="http://www.w3.org/2000/svg" width="32" height="32"><path d="M14.024 18.901l.004-5.729 5.454 2.897-5.458 2.831zM0 0h32v32.035H0V0zm26.479 17.055v-1.582c0-1.723-.211-3.411-.211-3.411s-.211-1.442-.844-2.075c-.809-.809-1.688-.844-2.11-.879C20.395 8.897 16 8.897 16 8.897s-4.396 0-7.314.211c-.422.035-1.301.035-2.11.879-.633.633-.844 2.075-.844 2.075s-.211 1.723-.211 3.411v1.582c0 1.723.211 3.411.211 3.411s.211 1.442.844 2.075c.809.844 1.864.809 2.321.914 1.653.176 7.103.211 7.103.211s4.396 0 7.314-.246c.422-.035 1.301-.035 2.11-.879.633-.633.844-2.075.844-2.075s.211-1.723.211-3.411z"/></svg>