<svg version="1.1" id="Layer_1" xmlns="http://www.w3.org/2000/svg" xmlns:xlink="http://www.w3.org/1999/xlink" x="0px" y="0px"
	 viewBox="0 0 392.449 65.202" style="enable-background:new 0 0 392.449 65.202;" xml:space="preserve">
<polygon style="fill:#FFFFFF;" points="13.717,0 13.708,21.157 15.899,21.152 7.277,44.05 0,44.041 0,65.202 70.63,65.202 
	70.63,44.012 63.302,44.003 54.755,21.17 56.9,21.18 56.9,0.006 "/>
<g>
	<path style="fill:#AB0520;" d="M35.302,7.906L50.43,47.134c0,0,1.939,4.773,5.087,4.773H44.502c0,0,0.553,0.081,1.104-0.838
		c0.316-0.524,0.05-1.312,0.05-1.312L42.25,41h-6.948h-6.918l-3.412,8.757c0,0-0.26,0.788,0.055,1.312
		c0.549,0.919,1.101,0.838,1.101,0.838H15.114c3.146,0,5.086-4.773,5.086-4.773L35.302,7.906z"/>
</g>
<polygon style="fill:#0C234B;" points="35.316,7.857 48.957,7.857 48.957,13.313 43.29,13.313 58.19,51.715 62.596,51.715 
	62.596,57.365 44.13,57.365 44.13,51.868 38.946,51.868 38.946,62.647 68.093,62.647 68.093,46.576 61.548,46.587 51.056,18.616 
	54.351,18.616 54.351,2.554 35.316,2.554 16.281,2.554 16.281,18.616 19.577,18.616 9.084,46.552 2.539,46.576 2.539,62.647 
	31.688,62.647 31.688,51.868 26.502,51.868 26.502,57.365 8.035,57.365 8.035,51.715 12.442,51.715 27.342,13.313 21.675,13.313 
	21.675,7.857 "/>
<g>
	<path style="fill:#0C234B;" d="M76.519,57.98c0.533,0.521,0.799,1.159,0.799,1.915c0,0.753-0.265,1.39-0.797,1.912
		c-0.532,0.52-1.183,0.78-1.955,0.78c-0.771,0-1.42-0.26-1.953-0.78c-0.53-0.522-0.796-1.159-0.796-1.912
		c0-0.756,0.267-1.394,0.798-1.915c0.533-0.522,1.183-0.781,1.951-0.781C75.336,57.199,75.986,57.458,76.519,57.98 M76.131,58.304
		c-0.424-0.433-0.947-0.649-1.565-0.649c-0.617,0-1.137,0.216-1.562,0.649c-0.426,0.433-0.638,0.964-0.638,1.591
		c0,0.626,0.212,1.157,0.638,1.589c0.425,0.431,0.945,0.647,1.562,0.647c0.616,0,1.137-0.216,1.564-0.647
		c0.426-0.432,0.639-0.963,0.639-1.589C76.769,59.268,76.557,58.737,76.131,58.304 M73.374,58.336h0.247h1.001
		c0.337,0,0.6,0.075,0.792,0.223c0.191,0.149,0.287,0.357,0.287,0.621c0,0.287-0.096,0.515-0.288,0.678
		c-0.143,0.121-0.327,0.199-0.552,0.229l0.896,1.364h-0.282H75.19l-0.807-1.346l-0.52,0.002v1.344h-0.244h-0.245V58.336z
		 M73.863,59.692h0.663c0.231,0,0.399-0.041,0.506-0.123c0.107-0.082,0.159-0.211,0.159-0.387c0-0.155-0.052-0.267-0.159-0.341
		c-0.107-0.072-0.275-0.109-0.506-0.109h-0.663V59.692z"/>
</g>
<polygon style="fill:#FFFFFF;" points="35.29,36.842 40.619,36.842 35.395,23.082 29.985,36.842 "/>
<rect x="86.4" y="0" style="fill:#0C234B;" width="1.264" height="65.202"/>
<g>
	<path style="fill:#0C234B;" d="M390.472,39.096c0.537,0,0.942,0.041,1.216,0.124c0.273,0.083,0.527,0.232,0.761,0.447v-2.856
		c-0.303,0.127-0.923,0.19-1.86,0.19h-2.461v-4.717h-1.23v0.396c0,1.777-0.391,3.076-1.172,3.896
		c-0.655,0.733-1.524,1.192-2.608,1.377v1.143h2.168v6.987c0,1.016,0.029,1.777,0.088,2.285c0.059,0.508,0.166,0.926,0.322,1.253
		c0.156,0.327,0.401,0.666,0.733,1.018c0.888,0.928,1.967,1.391,3.237,1.391c0.4,0,0.781-0.063,1.143-0.19l1.64-2.241
		c-0.468,0.175-0.908,0.263-1.318,0.263c-1.035,0-1.846-0.361-2.432-1.084c-0.224-0.283-0.376-0.625-0.454-1.025
		s-0.117-1.045-0.117-1.934v-6.723H390.472z M368.83,37.001h-2.036c0.41,0.313,0.691,0.571,0.842,0.776
		c0.152,0.205,0.249,0.454,0.293,0.747c0.044,0.293,0.066,0.826,0.066,1.597v8.364c0,0.762-0.022,1.292-0.066,1.59
		s-0.141,0.549-0.293,0.754c-0.151,0.205-0.432,0.464-0.842,0.776h5.244c-0.4-0.322-0.676-0.583-0.827-0.783
		c-0.152-0.2-0.252-0.462-0.301-0.784c-0.049-0.322-0.073-0.84-0.073-1.553v-6.386c0-0.801,0.142-1.402,0.425-1.802
		c0.312-0.43,0.732-0.767,1.26-1.011c0.527-0.244,1.108-0.366,1.743-0.366c0.654,0,1.272,0.124,1.853,0.373
		c0.581,0.249,1.023,0.574,1.326,0.975c0.244,0.293,0.419,0.686,0.527,1.179c0.107,0.493,0.161,1.16,0.161,1.999v5.039
		c0,0.684-0.024,1.192-0.073,1.524c-0.049,0.332-0.152,0.603-0.308,0.813s-0.439,0.471-0.849,0.783h5.288
		c-0.557-0.439-0.896-0.817-1.018-1.135c-0.123-0.317-0.184-0.979-0.184-1.985v-5.376c0-1.201-0.053-2.102-0.161-2.702
		c-0.107-0.601-0.302-1.126-0.586-1.575c-0.302-0.439-0.703-0.832-1.201-1.179c-0.498-0.347-1.072-0.613-1.721-0.799
		c-0.65-0.185-1.296-0.278-1.941-0.278c-0.937,0-1.758,0.183-2.461,0.549c-0.703,0.367-1.445,1.004-2.226,1.912V36.4
		C370.319,36.801,369.699,37.001,368.83,37.001 M354.84,39.389c0.732-0.616,1.635-0.923,2.71-0.923c2.236,0,3.579,1.182,4.028,3.545
		h-8.188C353.624,40.878,354.107,40.004,354.84,39.389 M364.903,43.476c0-0.997-0.181-1.917-0.542-2.762
		c-0.361-0.844-0.864-1.574-1.509-2.19c-0.644-0.615-1.406-1.093-2.285-1.435c-0.879-0.342-1.836-0.513-2.871-0.513
		c-1.055,0-2.029,0.154-2.922,0.462c-0.894,0.307-1.677,0.764-2.351,1.369c-0.518,0.469-0.972,1.023-1.363,1.663
		c-0.39,0.64-0.691,1.318-0.9,2.036c-0.211,0.718-0.315,1.443-0.315,2.175c0,1.494,0.378,2.832,1.135,4.014s1.821,2.1,3.193,2.754
		c1.372,0.654,2.918,0.981,4.636,0.981c0.508,0,1.013-0.024,1.517-0.073c0.502-0.049,0.981-0.13,1.435-0.242
		c0.454-0.112,0.93-0.261,1.428-0.446l1.714-3.018c-0.576,0.391-1.133,0.706-1.67,0.945c-0.537,0.239-1.111,0.415-1.721,0.527
		c-0.61,0.113-1.248,0.169-1.912,0.169c-1.24,0-2.334-0.235-3.281-0.704c-0.947-0.468-1.68-1.147-2.197-2.036
		c-0.518-0.888-0.806-1.943-0.864-3.164h11.645V43.476z M325.149,37.001h-2.197c0.41,0.313,0.691,0.571,0.842,0.776
		c0.151,0.205,0.249,0.454,0.293,0.747c0.044,0.293,0.066,0.826,0.066,1.597v8.364c0,0.762-0.022,1.292-0.066,1.59
		s-0.142,0.549-0.293,0.754c-0.151,0.205-0.432,0.464-0.842,0.776h5.244c-0.391-0.293-0.664-0.544-0.82-0.754
		c-0.157-0.21-0.259-0.478-0.308-0.806c-0.049-0.327-0.073-0.847-0.073-1.56v-5.61c0-0.645,0.039-1.135,0.117-1.472
		c0.078-0.337,0.22-0.657,0.425-0.96c0.302-0.449,0.717-0.795,1.245-1.04c0.527-0.244,1.103-0.366,1.728-0.366
		c0.489,0,0.974,0.093,1.458,0.278c0.483,0.186,0.876,0.445,1.179,0.777c0.645,0.674,0.967,1.753,0.967,3.237v5.156
		c0,0.694-0.025,1.209-0.073,1.546c-0.049,0.337-0.147,0.605-0.293,0.805c-0.147,0.201-0.425,0.457-0.835,0.769h5.273
		c-0.566-0.449-0.913-0.829-1.04-1.142c-0.127-0.313-0.19-0.972-0.19-1.978V43.08c0-0.732,0.019-1.243,0.058-1.531
		c0.039-0.288,0.132-0.573,0.279-0.857c0.293-0.546,0.727-0.979,1.303-1.296c0.576-0.317,1.201-0.476,1.875-0.476
		c1.211,0,2.154,0.41,2.827,1.23c0.284,0.381,0.489,0.831,0.616,1.348c0.126,0.518,0.19,1.216,0.19,2.095v4.892
		c0,0.694-0.024,1.209-0.073,1.546s-0.149,0.608-0.3,0.813c-0.152,0.205-0.438,0.459-0.857,0.761h5.493
		c-0.401-0.165-0.701-0.356-0.901-0.571c-0.2-0.215-0.337-0.517-0.41-0.908c-0.073-0.391-0.11-0.938-0.11-1.641v-5.669
		c0-1.015-0.056-1.813-0.169-2.395c-0.112-0.581-0.305-1.091-0.578-1.53c-0.42-0.713-1.072-1.277-1.956-1.692
		s-1.872-0.623-2.966-0.623c-0.684,0-1.311,0.093-1.882,0.278c-0.572,0.186-1.097,0.474-1.575,0.865
		c-0.479,0.39-0.987,0.937-1.524,1.64c-0.595-0.966-1.274-1.672-2.036-2.116c-0.761-0.445-1.689-0.667-2.783-0.667
		c-1.006,0-1.865,0.191-2.578,0.571c-0.713,0.381-1.397,1.021-2.051,1.919V36.4C326.506,36.801,325.94,37.001,325.149,37.001
		 M319.451,39.096c0.537,0,0.942,0.041,1.216,0.124c0.273,0.083,0.527,0.232,0.762,0.447v-2.856c-0.303,0.127-0.923,0.19-1.861,0.19
		h-2.461v-4.717h-1.23v0.396c0,1.777-0.391,3.076-1.172,3.896c-0.654,0.733-1.523,1.192-2.607,1.377v1.143h2.168v6.987
		c0,1.016,0.029,1.777,0.087,2.285c0.059,0.508,0.166,0.926,0.323,1.253c0.156,0.327,0.4,0.666,0.732,1.018
		c0.889,0.928,1.968,1.391,3.237,1.391c0.401,0,0.782-0.063,1.143-0.19l1.641-2.241c-0.469,0.175-0.909,0.263-1.319,0.263
		c-1.035,0-1.845-0.361-2.431-1.084c-0.225-0.283-0.376-0.625-0.454-1.025c-0.079-0.4-0.118-1.045-0.118-1.934v-6.723H319.451z
		 M306.279,50.822c-0.152-0.2-0.252-0.462-0.301-0.784c-0.049-0.322-0.073-0.84-0.073-1.553V43.27c0-1.298,0.225-2.26,0.674-2.885
		c0.273-0.401,0.654-0.716,1.142-0.945c0.489-0.229,1.016-0.344,1.582-0.344c0.645,0,1.143,0.171,1.495,0.512v-2.915
		c-0.44-0.078-0.806-0.117-1.099-0.117c-0.82,0-1.553,0.208-2.197,0.623c-0.645,0.415-1.177,1.018-1.597,1.809V36.4
		c-0.371,0.401-0.986,0.601-1.846,0.601h-2.197c0.41,0.313,0.691,0.571,0.842,0.776c0.152,0.205,0.249,0.454,0.293,0.747
		c0.044,0.293,0.066,0.826,0.066,1.597v8.364c0,0.762-0.022,1.292-0.066,1.59s-0.141,0.549-0.293,0.754
		c-0.151,0.205-0.432,0.464-0.842,0.776h5.244C306.706,51.283,306.43,51.022,306.279,50.822 M295.497,49.979
		c0.162,0.44,0.481,0.811,0.96,1.114c0.381,0.234,0.781,0.398,1.201,0.49c0.42,0.093,1.011,0.169,1.773,0.228l1.377-2.066
		c-0.87-0.029-1.5-0.2-1.89-0.513c-0.362-0.263-0.586-0.549-0.674-0.857c-0.088-0.307-0.132-0.91-0.132-1.809v-4.087
		c0-1.162-0.036-1.97-0.11-2.424c-0.073-0.454-0.246-0.906-0.52-1.355c-0.888-1.416-2.671-2.124-5.346-2.124
		c-0.762,0-1.494,0.069-2.198,0.205l-2.094,3.179c1.035-0.498,1.85-0.832,2.446-1.003c0.595-0.171,1.221-0.257,1.875-0.257
		c0.586,0,1.111,0.083,1.575,0.249c0.463,0.166,0.822,0.403,1.076,0.711c0.254,0.307,0.381,0.661,0.381,1.062
		c0,0.566-0.237,0.996-0.71,1.289c-0.474,0.293-1.428,0.581-2.864,0.864c-1.983,0.381-3.369,0.791-4.16,1.23
		c-0.537,0.284-0.967,0.721-1.289,1.311c-0.323,0.591-0.484,1.214-0.484,1.868c0,1.377,0.537,2.549,1.612,3.516
		c0.917,0.82,2.168,1.23,3.75,1.23c0.615,0,1.196-0.063,1.743-0.19l1.86-2.359c-0.898,0.274-1.689,0.411-2.373,0.411
		c-1.055,0-1.877-0.23-2.468-0.689c-0.591-0.459-0.886-1.089-0.886-1.89c0-1.249,0.761-2.06,2.285-2.431
		c1.142-0.264,1.877-0.44,2.204-0.528c0.327-0.087,0.625-0.178,0.894-0.271c0.268-0.092,0.583-0.227,0.945-0.402v4.087
		C295.256,48.803,295.336,49.54,295.497,49.979 M276.324,52.03c1.426,0,2.722-0.346,3.889-1.04c1.167-0.693,2.081-1.643,2.74-2.849
		s0.988-2.561,0.988-4.065c0-1.064-0.175-2.053-0.527-2.966c-0.351-0.913-0.845-1.697-1.479-2.351
		c-0.665-0.664-1.473-1.194-2.425-1.59c-0.952-0.395-1.902-0.593-2.849-0.593c-0.674,0-1.343,0.091-2.007,0.271
		c-0.664,0.181-1.267,0.442-1.809,0.784c-0.542,0.342-1.013,0.752-1.413,1.23V36.4c-0.391,0.401-1.011,0.601-1.861,0.601h-2.182
		c0.41,0.313,0.691,0.571,0.842,0.776c0.151,0.205,0.249,0.454,0.293,0.747c0.044,0.293,0.066,0.826,0.066,1.597v14.898
		c0,0.742-0.032,1.281-0.095,1.618c-0.064,0.337-0.174,0.606-0.33,0.806s-0.415,0.412-0.776,0.637h5.244
		c-0.371-0.225-0.635-0.439-0.791-0.644c-0.156-0.206-0.264-0.477-0.322-0.813c-0.059-0.337-0.088-0.872-0.088-1.604V43.358
		c0-0.712,0.056-1.289,0.168-1.728c0.112-0.44,0.315-0.845,0.608-1.216c0.43-0.527,0.974-0.945,1.633-1.252
		c0.66-0.308,1.346-0.462,2.058-0.462c0.957,0,1.797,0.24,2.52,0.718c0.723,0.479,1.284,1.155,1.685,2.029
		c0.4,0.874,0.6,1.858,0.6,2.951c0,1.143-0.195,2.129-0.586,2.959c-0.39,0.831-0.954,1.46-1.692,1.89
		c-0.737,0.43-1.628,0.645-2.673,0.645c-0.615,0-1.182-0.064-1.699-0.191c-0.518-0.127-1.133-0.351-1.846-0.674l1.714,2.578
		C274.713,51.889,275.514,52.03,276.324,52.03 M255.624,39.389c0.733-0.616,1.636-0.923,2.71-0.923c2.237,0,3.579,1.182,4.029,3.545
		h-8.189C254.409,40.878,254.892,40.004,255.624,39.389 M265.688,43.476c0-0.997-0.181-1.917-0.542-2.762
		c-0.362-0.844-0.864-1.574-1.509-2.19c-0.644-0.615-1.406-1.093-2.285-1.435c-0.879-0.342-1.836-0.513-2.871-0.513
		c-1.055,0-2.029,0.154-2.922,0.462c-0.894,0.307-1.678,0.764-2.352,1.369c-0.517,0.469-0.971,1.023-1.362,1.663
		s-0.691,1.318-0.901,2.036s-0.315,1.443-0.315,2.175c0,1.494,0.379,2.832,1.136,4.014c0.756,1.182,1.821,2.1,3.193,2.754
		c1.372,0.654,2.917,0.981,4.636,0.981c0.508,0,1.013-0.024,1.516-0.073c0.503-0.049,0.982-0.13,1.436-0.242
		c0.454-0.112,0.93-0.261,1.428-0.446l1.714-3.018c-0.576,0.391-1.133,0.706-1.67,0.945c-0.537,0.239-1.111,0.415-1.721,0.527
		c-0.611,0.113-1.248,0.169-1.912,0.169c-1.24,0-2.334-0.235-3.281-0.704c-0.947-0.468-1.68-1.147-2.197-2.036
		c-0.518-0.888-0.806-1.943-0.865-3.164h11.646V43.476z M236.624,32.855c1.367,0,2.593,0.203,3.677,0.608
		c1.084,0.406,1.982,1.004,2.695,1.795c0.683,0.742,1.218,1.645,1.604,2.71c0.386,1.064,0.579,2.168,0.579,3.31
		c0,2.764-1.031,4.908-3.091,6.431c-0.723,0.527-1.565,0.913-2.527,1.157c-0.962,0.244-2.127,0.366-3.494,0.366
		c-0.82,0-1.601-0.068-2.343-0.205V33.192C234.837,32.968,235.804,32.855,236.624,32.855 M239.429,51.371
		c1.265-0.156,2.322-0.43,3.171-0.82c1.202-0.528,2.261-1.277,3.179-2.249c0.918-0.971,1.628-2.097,2.132-3.376
		c0.502-1.279,0.754-2.603,0.754-3.97c0-1.035-0.137-2.019-0.41-2.952c-0.274-0.932-0.677-1.796-1.209-2.592
		s-1.174-1.497-1.926-2.102c-0.713-0.606-1.479-1.101-2.3-1.487c-0.82-0.386-1.716-0.669-2.688-0.85
		c-0.972-0.18-2.048-0.271-3.23-0.271c-1.025,0-1.855,0.01-2.49,0.029c-0.576,0.02-1.274,0.03-2.095,0.03h-3.193
		c0.39,0.205,0.688,0.452,0.893,0.739c0.206,0.289,0.345,0.684,0.418,1.187c0.073,0.503,0.11,1.208,0.11,2.117v12.597
		c0,1.358-0.093,2.291-0.278,2.798c-0.079,0.264-0.162,0.449-0.25,0.557c-0.087,0.107-0.385,0.391-0.893,0.849h5.112
		C236.434,51.605,238.164,51.527,239.429,51.371 M218.445,39.096c0.546,0,0.92,0.032,1.12,0.095c0.2,0.064,0.388,0.203,0.564,0.417
		v-2.797c-0.351,0.127-0.723,0.19-1.113,0.19h-3.208v-2.022c0-0.947,0.097-1.567,0.293-1.86c0.371-0.615,1.02-0.923,1.948-0.923
		c0.566,0,1.108,0.171,1.626,0.513l2.256-2.461c-0.879-0.146-1.602-0.22-2.168-0.22c-1.143,0-2.127,0.123-2.952,0.367
		c-0.825,0.244-1.53,0.625-2.116,1.142c-0.625,0.537-1.072,1.109-1.341,1.714c-0.268,0.606-0.403,1.343-0.403,2.212v1.538
		l-1.582,2.095h1.582v9.389c0,0.684-0.024,1.194-0.073,1.531c-0.049,0.337-0.149,0.611-0.3,0.82
		c-0.152,0.211-0.427,0.467-0.828,0.769h5.406c-0.225-0.136-0.381-0.253-0.469-0.351s-0.235-0.313-0.44-0.645
		c-0.117-0.224-0.207-0.466-0.271-0.725c-0.063-0.258-0.107-0.617-0.131-1.076c-0.025-0.459-0.037-0.928-0.037-1.407v-8.305H218.445
		z M204.215,39.447c0.786,0.498,1.396,1.197,1.831,2.095c0.434,0.899,0.652,1.934,0.652,3.105c0,1.036-0.208,1.949-0.623,2.74
		c-0.415,0.791-0.999,1.406-1.75,1.845c-0.753,0.44-1.602,0.66-2.549,0.66c-0.713,0-1.38-0.144-2-0.433
		c-0.62-0.287-1.169-0.705-1.648-1.252c-0.478-0.547-0.845-1.187-1.098-1.919c-0.254-0.732-0.381-1.499-0.381-2.3
		c0-1.015,0.202-1.928,0.608-2.739c0.405-0.81,0.974-1.438,1.706-1.882c0.733-0.445,1.572-0.667,2.52-0.667
		C202.518,38.7,203.428,38.949,204.215,39.447 M199.857,36.767c-0.645,0.127-1.255,0.32-1.831,0.578
		c-0.577,0.259-1.123,0.584-1.641,0.974c-0.928,0.723-1.655,1.619-2.183,2.688c-0.527,1.07-0.791,2.19-0.791,3.362
		c0,1.426,0.349,2.725,1.048,3.897c0.698,1.171,1.67,2.092,2.915,2.761c1.245,0.669,2.624,1.003,4.138,1.003
		c1.553,0,2.976-0.346,4.27-1.04c1.294-0.693,2.309-1.638,3.047-2.834c0.737-1.196,1.106-2.517,1.106-3.963
		c0-1.054-0.21-2.067-0.63-3.039s-1.03-1.819-1.831-2.542c-1.475-1.357-3.301-2.036-5.479-2.036
		C201.214,36.576,200.501,36.64,199.857,36.767 M173.709,39.389c0.732-0.616,1.635-0.923,2.71-0.923
		c2.236,0,3.579,1.182,4.028,3.545h-8.188C172.493,40.878,172.976,40.004,173.709,39.389 M183.772,43.476
		c0-0.997-0.181-1.917-0.542-2.762c-0.361-0.844-0.864-1.574-1.509-2.19c-0.644-0.615-1.406-1.093-2.285-1.435
		c-0.879-0.342-1.836-0.513-2.871-0.513c-1.055,0-2.029,0.154-2.922,0.462c-0.894,0.307-1.677,0.764-2.351,1.369
		c-0.518,0.469-0.972,1.023-1.363,1.663c-0.39,0.64-0.691,1.318-0.9,2.036c-0.211,0.718-0.315,1.443-0.315,2.175
		c0,1.494,0.378,2.832,1.135,4.014s1.821,2.1,3.193,2.754c1.372,0.654,2.918,0.981,4.636,0.981c0.508,0,1.013-0.024,1.517-0.073
		c0.502-0.049,0.981-0.13,1.435-0.242c0.454-0.112,0.93-0.261,1.428-0.446l1.714-3.018c-0.576,0.391-1.133,0.706-1.67,0.945
		c-0.537,0.239-1.111,0.415-1.721,0.527c-0.61,0.113-1.248,0.169-1.912,0.169c-1.24,0-2.334-0.235-3.281-0.704
		c-0.947-0.468-1.68-1.147-2.197-2.036c-0.518-0.888-0.806-1.943-0.864-3.164h11.645V43.476z M144.018,37.001h-2.197
		c0.41,0.313,0.691,0.571,0.842,0.776c0.151,0.205,0.249,0.454,0.293,0.747c0.044,0.293,0.066,0.826,0.066,1.597v8.364
		c0,0.762-0.022,1.292-0.066,1.59s-0.142,0.549-0.293,0.754c-0.151,0.205-0.432,0.464-0.842,0.776h5.244
		c-0.391-0.293-0.664-0.544-0.82-0.754c-0.157-0.21-0.259-0.478-0.308-0.806c-0.049-0.327-0.073-0.847-0.073-1.56v-5.61
		c0-0.645,0.039-1.135,0.117-1.472c0.078-0.337,0.22-0.657,0.425-0.96c0.302-0.449,0.717-0.795,1.245-1.04
		c0.527-0.244,1.103-0.366,1.728-0.366c0.489,0,0.974,0.093,1.458,0.278c0.483,0.186,0.876,0.445,1.179,0.777
		c0.645,0.674,0.967,1.753,0.967,3.237v5.156c0,0.694-0.025,1.209-0.073,1.546c-0.049,0.337-0.147,0.605-0.293,0.805
		c-0.147,0.201-0.425,0.457-0.835,0.769h5.273c-0.566-0.449-0.913-0.829-1.04-1.142s-0.19-0.972-0.19-1.978V43.08
		c0-0.732,0.019-1.243,0.058-1.531c0.039-0.288,0.132-0.573,0.279-0.857c0.293-0.546,0.727-0.979,1.303-1.296
		c0.576-0.317,1.201-0.476,1.875-0.476c1.211,0,2.154,0.41,2.827,1.23c0.284,0.381,0.489,0.831,0.616,1.348
		c0.126,0.518,0.19,1.216,0.19,2.095v4.892c0,0.694-0.024,1.209-0.073,1.546s-0.149,0.608-0.3,0.813
		c-0.152,0.205-0.438,0.459-0.857,0.761h5.493c-0.401-0.165-0.701-0.356-0.901-0.571c-0.2-0.215-0.337-0.517-0.41-0.908
		c-0.073-0.391-0.11-0.938-0.11-1.641v-5.669c0-1.015-0.056-1.813-0.169-2.395c-0.112-0.581-0.305-1.091-0.578-1.53
		c-0.42-0.713-1.072-1.277-1.956-1.692s-1.872-0.623-2.966-0.623c-0.684,0-1.311,0.093-1.882,0.278
		c-0.572,0.186-1.097,0.474-1.575,0.865c-0.479,0.39-0.987,0.937-1.524,1.64c-0.595-0.966-1.274-1.672-2.036-2.116
		c-0.761-0.445-1.689-0.667-2.783-0.667c-1.006,0-1.865,0.191-2.578,0.571c-0.713,0.381-1.397,1.021-2.051,1.919V36.4
		C145.375,36.801,144.809,37.001,144.018,37.001 M135.456,49.979c0.161,0.44,0.481,0.811,0.96,1.114
		c0.38,0.234,0.781,0.398,1.201,0.49c0.42,0.093,1.011,0.169,1.772,0.228l1.377-2.066c-0.869-0.029-1.499-0.2-1.889-0.513
		c-0.362-0.263-0.586-0.549-0.674-0.857c-0.088-0.307-0.132-0.91-0.132-1.809v-4.087c0-1.162-0.037-1.97-0.11-2.424
		c-0.073-0.454-0.247-0.906-0.52-1.355c-0.889-1.416-2.671-2.124-5.347-2.124c-0.761,0-1.494,0.069-2.197,0.205l-2.095,3.179
		c1.035-0.498,1.851-0.832,2.447-1.003c0.595-0.171,1.22-0.257,1.875-0.257c0.586,0,1.11,0.083,1.574,0.249
		c0.464,0.166,0.823,0.403,1.077,0.711c0.254,0.307,0.381,0.661,0.381,1.062c0,0.566-0.237,0.996-0.711,1.289
		c-0.473,0.293-1.428,0.581-2.863,0.864c-1.983,0.381-3.37,0.791-4.161,1.23c-0.537,0.284-0.966,0.721-1.289,1.311
		c-0.322,0.591-0.483,1.214-0.483,1.868c0,1.377,0.537,2.549,1.611,3.516c0.918,0.82,2.168,1.23,3.75,1.23
		c0.616,0,1.196-0.063,1.744-0.19l1.86-2.359c-0.899,0.274-1.69,0.411-2.373,0.411c-1.055,0-1.878-0.23-2.468-0.689
		c-0.591-0.459-0.887-1.089-0.887-1.89c0-1.249,0.762-2.06,2.285-2.431c1.143-0.264,1.878-0.44,2.205-0.528
		c0.327-0.087,0.625-0.178,0.894-0.271c0.268-0.092,0.583-0.227,0.944-0.402v4.087C135.214,48.803,135.295,49.54,135.456,49.979
		 M118.276,49.291c0.654,0.879,1.321,1.58,2,2.102c0.678,0.522,1.462,0.935,2.351,1.238v-18.15c0-0.683,0.046-1.252,0.139-1.706
		c0.092-0.454,0.261-0.83,0.505-1.128c0.244-0.298,0.591-0.593,1.04-0.886h-5.669c0.664,0.43,1.111,0.893,1.341,1.391
		c0.229,0.498,0.344,1.275,0.344,2.329v12.378l-11.734-14.926c-0.41-0.557-0.659-0.948-0.747-1.172h-4.629
		c0.42,0.273,0.75,0.564,0.989,0.871c0.239,0.308,0.41,0.684,0.513,1.128c0.102,0.445,0.154,1.018,0.154,1.721v13.404
		c0,0.674-0.047,1.238-0.139,1.692c-0.093,0.454-0.262,0.832-0.506,1.135c-0.244,0.303-0.591,0.6-1.04,0.893h5.64
		c-0.342-0.234-0.621-0.466-0.835-0.695c-0.215-0.23-0.379-0.479-0.491-0.747c-0.112-0.269-0.195-0.598-0.249-0.989
		c-0.054-0.391-0.081-0.82-0.081-1.289V35.228L118.276,49.291z"/>
	<path style="fill:#0C234B;" d="M215.329,20.354h5.113v-1.108h-3.78v-3.347h3.225v-1.063h-3.225v-2.717h3.78v-1.108h-5.113V20.354z
		 M209.883,20.474c1.381,0,2.16-0.285,2.819-0.524v-4.379h-2.894v1.033h1.636v2.522c-0.405,0.15-0.796,0.24-1.426,0.24
		c-1.966,0-3.181-1.201-3.181-3.556c0-2.295,0.975-3.811,3.196-3.811c0.916,0,1.65,0.225,2.205,0.525v-1.169
		c-0.48-0.225-1.109-0.464-2.28-0.464c-3.121,0-4.559,2.204-4.559,4.919C205.399,18.75,207.107,20.474,209.883,20.474
		 M198.499,20.354h5.113v-1.108h-3.78v-3.347h3.225v-1.063h-3.225v-2.717h3.78v-1.108h-5.113V20.354z M191.554,20.354h4.933v-1.093
		h-3.6v-8.25h-1.333V20.354z M184.609,20.354h4.934v-1.093h-3.6v-8.25h-1.334V20.354z M178.159,19.366
		c-1.906,0-2.746-1.501-2.746-3.676c0-2.176,0.84-3.691,2.746-3.691c1.905,0,2.761,1.5,2.761,3.676
		C180.92,17.85,180.064,19.366,178.159,19.366 M178.159,20.474c2.88,0,4.184-2.263,4.184-4.799c0-2.671-1.304-4.784-4.184-4.784
		c-2.881,0-4.184,2.263-4.184,4.799C173.975,18.361,175.278,20.474,178.159,20.474 M170.373,20.474c0.9,0,1.65-0.135,2.295-0.419
		v-1.214c-0.525,0.285-1.2,0.495-2.07,0.495c-1.995,0-3.12-1.35-3.12-3.526c0-2.341,0.975-3.781,2.985-3.781
		c0.945,0,1.605,0.21,2.04,0.48V11.28c-0.39-0.179-1.125-0.389-2.145-0.389c-2.88,0-4.303,2.188-4.303,4.919
		C166.055,18.556,167.583,20.474,170.373,20.474 M155.645,20.354h1.333v-4.44h3.51v-1.048h-3.51v-2.747h3.9v-1.108h-5.233V20.354z
		 M149.194,19.366c-1.906,0-2.746-1.501-2.746-3.676c0-2.176,0.84-3.691,2.746-3.691c1.906,0,2.761,1.5,2.761,3.676
		C151.955,17.85,151.1,19.366,149.194,19.366 M149.194,20.474c2.881,0,4.184-2.263,4.184-4.799c0-2.671-1.303-4.784-4.184-4.784
		c-2.881,0-4.184,2.263-4.184,4.799C145.01,18.361,146.313,20.474,149.194,20.474 M134.48,20.354h5.114v-1.108h-3.78v-3.347h3.225
		v-1.063h-3.225v-2.717h3.78v-1.108h-5.114V20.354z M121.835,20.354h1.215l0.735-5.924c0.075-0.63,0.15-1.62,0.18-2.054h0.03
		c0.075,0.42,0.27,1.244,0.435,1.829l1.71,6.149h1.53l1.725-6.104c0.165-0.615,0.315-1.365,0.42-1.859h0.03
		c0.045,0.494,0.075,1.259,0.165,1.949l0.795,6.014h1.245l-1.245-9.343h-1.695l-1.68,6.059c-0.165,0.63-0.36,1.544-0.48,2.204
		h-0.015c-0.105-0.66-0.3-1.604-0.48-2.234l-1.695-6.029h-1.71L121.835,20.354z M112.25,20.354h1.35l0.81-2.325h3.96l0.78,2.325
		h1.455l-3.315-9.343h-1.575L112.25,20.354z M114.785,16.936l0.99-2.835c0.24-0.675,0.525-1.515,0.645-1.98h0.03
		c0.09,0.42,0.345,1.17,0.555,1.815l1.005,3H114.785z M103.296,20.354h1.213v-6.179c0-0.495-0.03-0.855-0.03-1.26h0.03
		c0.225,0.45,0.495,0.96,0.78,1.425l3.767,6.014h1.423v-9.343h-1.213v6.179c0,0.495,0.015,0.899,0.03,1.319h-0.045
		c-0.21-0.465-0.525-1.049-0.795-1.469l-3.767-6.029h-1.393V20.354z"/>
</g>
</svg>
