<svg xmlns="http://www.w3.org/2000/svg" width="1224.001" height="783.771" viewBox="0 0 1224.001 783.771"><style>.st0{opacity:.6;fill:#fff}.st1{opacity:.5;fill:#ebf5f6}.st2{opacity:0;fill:#fff}.st3,.st4{opacity:.3;fill:#fff}.st4{opacity:.08}.st5{opacity:.2;fill:#ebf5f6}.st6{display:inline;fill:#eef1f1}.st7{opacity:.05;fill:#fff}.st8,.st9{opacity:.15;fill:#fff}.st9{opacity:.02}.st10{opacity:.7;fill:#ebf5f6}.st11,.st12{opacity:.35;fill:#fff}.st12{opacity:.5}.st13,.st14{opacity:.4;fill:#ebf5f6}.st14{fill:url(#SVGID_3_)}.st15,.st16{opacity:.55;fill:#fff}.st16{opacity:.2}.st17{fill:url(#SVGID_1_)}.st18{fill:url(#SVGID_2_)}.st19{opacity:.1;fill:#ebf5f6}.st20,.st21{opacity:.65;fill:#fff}.st21{opacity:.7}.st22{opacity:.6;fill:#ebf5f6}.st23{display:inline;fill:#d8e5e4}.st24{opacity:.4;fill:#fff}.st25{opacity:.3;fill:#ebf5f6}.st26{display:inline;opacity:.4;fill:#fff}.st27,.st28{opacity:.1;fill:#fff}.st28{opacity:.06}.st29{display:none}.st30{opacity:.05;fill:#ebf5f6}.st31{opacity:.16;fill:#fff}.st32{opacity:.15;fill:#ebf5f6}.st33{opacity:.03;fill:#fff}</style><g id="Layer_2" class="st29"><path class="st23" d="M0-.167h1224v784H0z"/></g><g id="Layer_1"><path class="st25" d="M510.065 223.833l-50.997-56.074-51.005-55.927-50.993 56.002-51.005 55.999h101.998zM918.065 223.833l-50.997-56.074-51.005-55.927-50.993 56.002-51.005 55.999h101.998z"/><path class="st5" d="M408.065 335.833l-50.997-56.074-51.005-55.927-50.993 56.002-51.005 55.999h101.998zM816.065 335.833l-50.997-56.074-51.005-55.927-50.993 56.002-51.005 55.999h101.998z"/><path class="st22" d="M510.065 447.833l-50.997-56.074-51.005-55.927-50.993 56.002-51.005 55.999h101.998z"/><path class="st25" d="M714.065 447.833l-50.997-56.074-51.005-55.927-50.993 56.002-51.005 55.999h101.998zM1122.065 447.833l-50.997-56.074-51.005-55.927-50.993 56.002-51.005 55.999h101.998z"/><path class="st19" d="M204.065 559.833l-50.997-56.074-51.005-55.927-50.992 56.002L.065 559.833h101.998z"/><path class="st1" d="M612.065 559.833l-50.997-56.074-51.005-55.927-50.993 56.002-51.005 55.999h101.998z"/><path class="st10" d="M408.065 111.833l-50.997-56.074L306.063-.168 255.07 55.834l-51.005 55.999h101.998z"/><path class="st13" d="M612.065 111.833l-50.997-56.074L510.063-.168 459.07 55.834l-51.005 55.999h101.998z"/><path class="st1" d="M1224.065 111.833l-50.997-56.074-51.005-55.927-50.993 56.002-51.005 55.999h101.998z"/><path class="st5" d="M.063 447.833h-101.998l51.005-55.999L.063 335.832l51.005 55.927 50.997 56.074z"/><path class="st19" d="M1020.065 559.833l-50.997-56.074-51.005-55.927-50.993 56.002-51.005 55.999h101.998z"/><path class="st32" d="M510.065 671.833l-50.997-56.074-51.005-55.927-50.993 56.003-51.005 55.998h101.998z"/><path class="st5" d="M714.065 671.833l-50.997-56.074-51.005-55.927-50.993 56.003-51.005 55.998h101.998z"/><path class="st19" d="M918.065 671.833l-50.997-56.074-51.005-55.927-50.993 56.003-51.005 55.998h101.998z"/><path class="st30" d="M1326.065 671.833l-50.997-56.074-51.005-55.927-50.993 56.003-51.005 55.998h101.998zM102.065 671.833l-50.997-56.074L.063 559.832l-50.993 56.003-51.005 55.998H.063z"/><path class="st5" d="M204.065 783.833l-50.997-56.074-51.005-55.927-50.992 56.003L.065 783.833h101.998zM612.065 783.833l-50.997-56.074-51.005-55.927-50.993 56.003-51.005 55.998h101.998zM816.065 783.833l-50.997-56.074-51.005-55.927-50.993 56.003-51.005 55.998h101.998z"/><linearGradient id="SVGID_1_" gradientUnits="userSpaceOnUse" x1="612.065" y1="783.833" x2="612.065" y2="-.168"><stop offset="0" stop-color="#fff" stop-opacity="0"/><stop offset=".164" stop-color="#f4fafa" stop-opacity=".164"/><stop offset=".406" stop-color="#edf6f7" stop-opacity=".406"/><stop offset="1" stop-color="#ebf5f6"/></linearGradient><path class="st17" d="M714.065 223.833l-50.997-56.074-51.005-55.927-50.993 56.003-51.005 55.998h204zm-102 112l-50.997-56.074-51.005-55.927-50.993 56.003-51.005 55.998h204zm101.998-224H612.065l51.005-55.998L714.063-.168l51.005 55.927 50.997 56.074H714.063zm-407.998 112l-50.997-56.074-51.005-55.927-50.993 56.003-51.005 55.998h204zm-102-112l-50.997-56.074L102.063-.168 51.071 55.835.065 111.833h204zm713.998 0H816.065l51.005-55.998L918.063-.168l51.005 55.927 50.997 56.074H918.063zm102 112H918.065l51.005-55.998 50.993-56.003 51.005 55.927 50.997 56.074h-102.002zm204 0h-101.998l51.005-55.998 50.993-56.003 51.005 55.927 50.997 56.074h-102.002zm-1224 0h-101.998l51.005-55.998L.063 111.832l51.005 55.927 50.997 56.074H.063zm102 112H.065l51.005-55.998 50.993-56.003 51.005 55.927 50.997 56.074H102.063zm816 0H816.065l51.005-55.998 50.993-56.003 51.005 55.927 50.997 56.074H918.063zm204 0h-101.998l51.005-55.998 50.993-56.003 51.005 55.927 50.997 56.074h-102.002zm-918 112H102.065l51.005-55.998 50.993-56.003 51.005 55.927 50.997 56.074H204.063zm612 0H714.065l51.005-55.998 50.993-56.003 51.005 55.927 50.997 56.074H816.063zm408 0h-101.998l51.005-55.998 50.993-56.003 51.005 55.927 50.997 56.074h-102.002zm-918 112H204.065l51.005-55.998 50.993-56.003 51.005 55.927 50.997 56.074H306.063zm408 0H612.065l51.005-55.998 50.993-56.003 51.005 55.927 50.997 56.074H714.063zm408 0h-101.998l51.005-55.998 50.993-56.003 51.005 55.927 50.997 56.074h-102.002zm-918 112H102.065l51.005-55.998 50.993-56.003 51.005 55.927 50.997 56.074H204.063zm816 0H918.065l51.005-55.998 50.993-56.003 51.005 55.927 50.997 56.074h-102.002zm-714 112H204.065l51.005-55.998 50.993-56.003 51.005 55.927 50.997 56.074H306.063zm612 0H816.065l51.005-55.998 50.993-56.003 51.005 55.927 50.997 56.074H918.063zm204 0h-101.998l51.005-55.998 50.993-56.003 51.005 55.927 50.997 56.074h-102.002z"/></g></svg>