<svg xmlns="http://www.w3.org/2000/svg" width="143" height="779.709" viewBox="0 0 143 779.709"><style>.st0{opacity:.7;fill:url(#SVGID_1_)}</style><g id="Layer_1"><linearGradient id="SVGID_1_" gradientUnits="userSpaceOnUse" x1="71.501" y1="779.833" x2="71.501" y2="-.141"><stop offset="0" stop-color="#fff" stop-opacity="0"/><stop offset="1" stop-color="#fff"/></linearGradient><path class="st0" d="M142.916 701.833l-35.671-39.012-35.675-39.016-35.667 39.017L.229 701.833h142.687zM143 545.768l-35.713 39.035-35.722 39.03H143v-78.065zM0 623.833h71.548l-35.779-39.03L0 545.768v78.065zm143 77.968l-35.713 39.019-35.722 39.014H143v-78.033zM0 779.833h71.548L35.77 740.819 0 701.801v78.032zm143-234l-35.67-39.034-35.675-39.028-35.667 39.033L.313 545.833H143zm-.084-156l-35.671-38.937-35.675-38.979-35.667 38.96L.229 389.833h142.687zM143 233.918l-35.713 38.959-35.722 38.955H143v-77.914zM0 311.833h71.548L35.77 272.878 0 233.918v77.915zM143 77.897l-35.665 38.97-35.675 38.966H143V77.897zM0 155.833h71.643l-35.827-38.966L0 77.897v77.936zm143 234.118l-35.713 38.943-35.722 38.939H143v-77.882zM0 467.833h71.548L35.77 428.894 0 389.951v77.882zm143-234l-35.67-38.959-35.675-38.99-35.667 38.976L.313 233.833H143zm0-156l-35.67-38.976L71.655-.141 35.988 38.848.313 77.833H143z"/></g></svg>