<svg xmlns="http://www.w3.org/2000/svg" width="1893" height="159"><path fill="none" d="M1674.787 119.14l-.01-.009zM691.675 79.43l5.226 5.69-5.226-5.69zM1856.686 79.43l-36.475-39.708zM1747.529 39.662L1711.104.01l36.425 39.652zM1727.639 61.252l-16.619 18.16zM1804.412 101.705l-20.459-22.275zM1674.777 119.13l-36.468-39.703 36.468 39.703zM1711.104 79.43l-18.879 20.632 18.879-20.632zM1601.932 119.125l-36.463-39.695zM728.133 119.125l-.014.015.014-.015zM764.453 79.43l-11.988 13.101zM582.284 39.722L545.97 79.409l36.314-39.687zM1638.365 158.731l3.321-3.63zM1638.264 158.731l-25.129-27.354zM618.786 79.409l-36.455-39.687zM815.545 135.083l-14.646-15.943zM1890.424 119.065l2.726-.003-2.726.003zM545.976.01l-36.334 39.709L473.166.01l36.476 39.709zM1784.002 158.731l3.32-3.63zM800.937 119.14l-36.479-39.71zM691.678 79.424l-5.602-6.1 5.602 6.1zM1711.182 158.731l4.697-5.133zM36.107.01L-.22 39.711l-.005-.005.005.006zM400.345 79.414l-36.461-39.692zM254.695 79.43l-36.32 39.695 36.32-39.695zM36.212 79.419L-.229 119.062l36.441-39.643zM36.297 158.731l36.295-39.666zM109.125 158.731l16.61-18.151zM291.191 119.125L254.729 79.43zM888.408 135.141L873.71 119.14zM509.496 39.732l-36.308 39.682-32.053-34.892 32.053 34.893zM1019.375 119.14l-36.477-39.71zM837.312 79.426l-23.526-25.61 23.526 25.61 24.397-26.663zM910.083 79.43l36.478 39.709 36.332-39.709-36.332 39.709zM1019.273 39.722L982.938 79.43l36.335-39.708zM473.173 79.43l-.014.015.014-.015zM691.641 79.43l-7.962 8.703 7.962-8.703zM1092.055 39.732l-36.311 39.684zM946.513 39.71L910.042.01l36.471 39.7zM1820.498 119.065l36.27-39.638zM910.042.01l-36.334 39.709L837.232.01l36.476 39.71zM229.034 130.825l-10.763-11.716zM1783.822 79.43l-36.474-39.708zM109.046 79.413l-21.03-22.894 21.03 22.894zM837.271 79.43l-36.334 39.71 36.334-39.71zM1047.09 69.994l-27.807-30.272zM837.232.01l-36.32 39.693zM1783.947 79.43l-36.334 39.71 36.334-39.71zM72.697 119.062L36.25 79.43zM145.464 39.657L109.044.01l36.42 39.647zM218.378 119.109l-36.462-39.695zM139.253 46.431l-30.164 32.963-.013-.014.013.014zM218.221 39.701l-.009.01L181.742.01l36.47 39.701zM1747.594 119.131l-36.467-39.701zM36.241 79.419l.005.006-.005-.006zM145.556 119.094L109.123 79.43zM181.871 79.426L158.34 53.811l23.531 25.615.028-.03zM291.156 39.718L254.68.01l36.476 39.708zM1128.533 158.731l-25.129-27.354zM1492.699 158.731l3.936-4.303zM1399.861 57.769l-16.574-18.047zM1383.277 39.722l-36.334 39.708 36.334-39.708zM910.077 79.43l-36.329 39.706-36.472-39.706 36.472 39.706 36.329-39.706zM1346.977 79.43l-26.647 29.125 26.647-29.125zM1492.566 79.43l-36.474-39.708zM1456.082 39.722l-16.514 18.047 16.514-18.047zM1383.461 119.14l-36.479-39.71zM1419.824 79.43l-36.334 39.71 36.334-39.71zM1346.982 158.731l-15.679-17.07zM1456.309 119.14l-36.479-39.71zM1274.248 158.731l20.645-22.559zM1310.453 39.722l-36.334 39.708 36.334-39.708zM1274.125.01l-36.324 39.701L1201.328.01l36.473 39.701zM764.535 158.731l21.637-23.648zM1225.762 52.675l-24.45 26.721-23.294-25.361 23.294 25.362zM655.325 119.121l-36.478-39.71 36.478 39.71zM910.16 158.731l21.907-23.941zM1529.115 119.13l-36.451-39.685zM1346.938 79.43l-36.475-39.708zM1492.609 79.445l-36.308 39.685 36.308-39.685zM837.345 158.731l21.638-23.648z"/><path opacity=".8" fill="#FFF" d="M1821.338 40.832h.078L1783.805-1.1 1746.4 40.766l.057.066h74.873l.004-.008z"/><path fill="#FFF" d="M1894.275 40.821l-37.541-41.916-37.474 41.922 74.978.009-.013-.015z"/><path opacity=".9" fill="#FFF" d="M1711.102-1.1l-37.461 41.932h74.818l.004-.008.006.008h.129l.058-.066z"/><path opacity=".8" fill="#FFF" d="M1747.473 39.722h.111l-.055-.06z"/><path opacity=".4" fill="#FFF" d="M1747.473 39.722h.111l-.055-.06z"/><path opacity=".8" fill="#FFF" d="M1675.652 40.832h.203L1638.275-1.1l-37.435 41.932h74.775l.018-.024z"/><path fill="#FFF" d="M1602.854 40.832h.162L1565.434-1.1 1528 40.828v.004h74.844l.006-.008z"/><path opacity=".9" fill="#FFF" d="M1492.619-1.1l-37.435 41.932h75.013l.002-.004z"/><path fill="#FFF" d="M1529.1 39.721l-.002.001h.002v-.001z"/><path opacity=".9" fill="#FFF" d="M1529.1 39.721l-.002.001h.002v-.001z"/><path opacity=".8" fill="#FFF" d="M1457.182 40.824l.004.008h.175L1419.779-1.1l-37.433 41.932h74.83z"/><path opacity=".85" fill="#FFF" d="M1384.379 40.824l.004.008h.14L1346.941-1.1l-37.433 41.932h74.865z"/><path opacity=".9" fill="#FFF" d="M1311.559 40.824l.005.008h.145L1274.123-1.1l-37.428 41.918.01.014h74.85z"/><path opacity=".8" fill="#FFF" d="M1201.326-1.1l-37.437 41.932h74.822l.019-.024.02.024h.143l.009-.014z"/><path opacity=".9" fill="#FFF" d="M1237.791 39.722h.02l-.01-.011z"/><path opacity=".4" fill="#FFF" d="M1237.791 39.722h.02l-.01-.011z"/><path opacity=".9" fill="#FFF" d="M1165.965 40.832h.103L1128.488-1.1l-37.433 41.928.002.004h74.869l.017-.024z"/><path opacity=".8" fill="#FFF" d="M1055.676-1.1l-37.438 41.932h75.016v-.004z"/><path opacity=".9" fill="#FFF" d="M1092.154 39.721v.001h.002l-.002-.001z"/><path opacity=".4" fill="#FFF" d="M1092.154 39.721v.001h.002l-.002-.001z"/><path fill="#FFF" d="M945.419 40.832h74.958l.004-.008.006.008h.037L982.836-1.1l-37.427 41.917z"/><path opacity=".8" fill="#FFF" d="M872.606 40.832h74.952l.005-.008.004.008h.04l.011-.015L910.041-1.1l-37.437 41.927z"/><path fill="#FFF" d="M946.513 39.71l-.011.012h.022z"/><path opacity=".6" fill="#FFF" d="M946.513 39.71l-.011.012h.022z"/><path opacity=".9" fill="#FFF" d="M799.82 40.832h74.93l.003-.008.005.008h.058l.002-.005L837.229-1.1l-37.426 41.91z"/><path opacity=".6" fill="#FFF" d="M873.708 39.72l-.001.002h.004z"/><path opacity=".4" fill="#FFF" d="M873.708 39.72l-.001.002h.004z"/><path fill="#FFF" d="M729.112 40.832h.077L691.609-1.1l-37.435 41.932h74.93l.003-.008z"/><path opacity=".8" fill="#FFF" d="M801.945 40.832h.057l.018-.022L764.448-1.1l-37.444 41.932h74.932l.004-.008z"/><path opacity=".4" fill="#FFF" d="M800.912 39.703l-.017.019h.034z"/><path opacity=".98" fill="#FFF" d="M800.912 39.703l-.017.019h.034z"/><path opacity=".9" fill="#FFF" d="M656.313 40.832h.041L618.766-1.1l-37.427 41.916.011.016h74.955l.004-.008z"/><path opacity=".8" fill="#FFF" d="M545.974-1.1l-37.439 41.926.003.006h74.848l.024-.029.024.029h.105l.011-.016z"/><path opacity=".9" fill="#FFF" d="M582.444 39.709l-.012.013h.023l-.011-.013z"/><path opacity=".65" fill="#FFF" d="M582.444 39.709l-.012.013h.023l-.011-.013z"/><path opacity=".9" fill="#FFF" d="M473.164-1.1l-37.436 41.932h75.012l.003-.006z"/><path opacity=".65" fill="#FFF" d="M509.64 39.722h.005l-.003-.003z"/><path opacity=".7" fill="#FFF" d="M509.64 39.722h.005l-.003-.003z"/><path opacity=".9" fill="#FFF" d="M437.822 40.832h.092L400.333-1.1l-37.434 41.932h74.913l.005-.008z"/><path opacity=".8" fill="#FFF" d="M290.058 40.832h74.887l.018-.024.021.024h.085L327.487-1.1l-37.433 41.925z"/><path opacity=".9" fill="#FFF" d="M292.13 40.832h.123l.004-.007L254.678-1.1l-37.436 41.932h74.879l.004-.008z"/><path opacity=".4" fill="#FFF" d="M291.152 39.722h.007l-.003-.004z"/><path opacity=".9" fill="#FFF" d="M291.152 39.722h.007l-.003-.004z"/><path opacity=".8" fill="#FFF" d="M144.393 40.832h74.943l.01-.014L181.738-1.1l-37.407 41.862z"/><path opacity=".9" fill="#FFF" d="M146.527 40.832h.005l.062-.07L109.043-1.1 71.579 40.832h74.939l.005-.008z"/><path opacity=".6" fill="#FFF" d="M145.464 39.657l-.06.065h.12z"/><path opacity=".25" fill="#FFF" d="M145.464 39.657l-.06.065h.12z"/><path opacity=".8" fill="#FFF" d="M-1.313 40.832H73.68l.005-.008.004.008h.003L36.105-1.1-1.323 40.819z"/><path opacity=".9" fill="#FFF" d="M1855.43 80.547h39.008V38.654l-.036-.038z"/><path opacity=".9" fill="#FFF" d="M1782.852 80.538l.003.003h74.93l-37.576-41.931h-.008l-37.43 41.931h.079z"/><path opacity=".8" fill="#FFF" d="M1820.204 39.719h.006v.006h-.006z"/><path opacity=".2" fill="#FFF" d="M1820.204 39.719h.006v.006h-.006z"/><path fill="#FFF" d="M1747.338 38.61l-20.297 22.736-17.119 19.177.002.002h-.002l-.016.016h.102l.012-.013.013.013h74.887l-37.574-41.931z"/><path opacity=".4" fill="#FFF" d="M1747.341 39.719h.006v.006h-.006z"/><path opacity=".7" fill="#FFF" d="M1747.341 39.719h.006v.006h-.006z"/><path fill="#FFF" d="M1712.123 80.531l-37.566-41.928h-.037l-37.411 41.922.006.008h75.008v-.002z"/><path opacity=".4" fill="#FFF" d="M1674.559 39.722l-.02-.021-.018.021z"/><path opacity=".85" fill="#FFF" d="M1674.559 39.722l-.02-.021-.018.021z"/><path opacity=".7" fill="#FFF" d="M1711.019 79.413h.003v.002h-.003z"/><path opacity=".85" fill="#FFF" d="M1711.019 79.413h.003v.002h-.003z"/><path fill="#FFF" d="M1639.303 80.525l.008-.009-37.555-41.906h-.008l-37.43 41.931h.02l.014-.019.021.019h74.959l-.016-.016z"/><path fill="#FFF" d="M1601.751 39.719h.006v.006h-.006z"/><path opacity=".8" fill="#FFF" d="M1601.751 39.719h.006v.006h-.006z"/><path opacity=".85" fill="#FFF" d="M1638.205 79.414h.014l-.006-.008z"/><path opacity=".8" fill="#FFF" d="M1638.205 79.414h.014l-.006-.008z"/><path opacity=".9" fill="#FFF" d="M1491.539 80.522l.027.033h74.922l-37.58-41.931-37.435 41.931h.039z"/><path opacity=".85" fill="#FFF" d="M1418.658 80.541h.067l.004-.003.001.003h74.938L1456.09 38.61h-.01l-17.012 19.057-20.416 22.868z"/><path opacity=".7" fill="#FFF" d="M1456.082 39.722h.01l-.004-.005z"/><path opacity=".4" fill="#FFF" d="M1456.082 39.722h.01l-.004-.005z"/><path opacity=".9" fill="#FFF" d="M1345.879 80.538l.004.003h74.967l.005-.006-20.494-22.868-17.076-19.057h-.01l-37.433 41.931h.033z"/><path opacity=".8" fill="#FFF" d="M1383.277 39.722h.01l-.004-.005z"/><path opacity=".4" fill="#FFF" d="M1383.277 39.722h.01l-.004-.005zM1419.754 79.424l-.006.006h.012l-.006-.006z"/><path opacity=".4" fill="#FFF" d="M1419.754 79.424l-.006.006h.012l-.006-.006z"/><path fill="#FFF" d="M1273.094 80.541h74.941l-37.574-41.931h-.01l-37.43 41.931h.057l.008-.009z"/><path opacity=".9" fill="#FFF" d="M1310.453 39.722h.01l-.006-.005z"/><path opacity=".7" fill="#FFF" d="M1310.453 39.722h.01l-.006-.005z"/><path opacity=".9" fill="#FFF" d="M1237.611 38.615l-12.213 13.674-25.193 28.217.016.017h75l-37.571-41.908-.019-.022z"/><path fill="#FFF" d="M1178.414 53.723l-13.547-15.12h-.039l-37.424 41.93h75l.016-.016z"/><path opacity=".9" fill="#FFF" d="M1164.867 39.722l-.019-.021-.018.021z"/><path opacity=".8" fill="#FFF" d="M1164.867 39.722l-.019-.021-.018.021z"/><path fill="#FFF" d="M1201.297 79.414h.031l-.016-.017z"/><path opacity=".8" fill="#FFF" d="M1201.297 79.414h.031l-.016-.017z"/><path opacity=".85" fill="#FFF" d="M1054.639 80.538h-.016l.014.017h74.988l.014-.017-37.586-41.914-37.428 41.898z"/><path opacity=".9" fill="#FFF" d="M1019.271 38.61l-37.437 41.931h74.977l.019-.019.012.014.008-.009-8.918-9.949-28.651-31.968z"/><path fill="#FFF" d="M1019.277 39.717l-.004.005h.01z"/><path opacity=".6" fill="#FFF" d="M1019.277 39.717l-.004.005h.01z"/><path opacity=".95" fill="#FFF" d="M1055.758 79.43l-.014-.014-.008.009.006.005z"/><path opacity=".6" fill="#FFF" d="M1055.758 79.43l-.014-.014-.008.009.006.005z"/><path opacity=".9" fill="#FFF" d="M946.453 38.61l-37.43 41.93.001.001h74.968l.002-.003.004.003h.041L946.462 38.61z"/><path opacity=".6" fill="#FFF" d="M946.464 39.722l-.005-.005-.004.005z"/><path opacity=".9" fill="#FFF" d="M946.464 39.722l-.005-.005-.004.005z"/><path fill="#FFF" d="M911.176 80.539l.003-.004.003.004H911.226l-.001-.002-37.576-41.924-.005-.005-.004.005-12.294 13.769-25.135 28.152.004.005z"/><path opacity=".95" fill="#FFF" d="M838.374 80.538l.002.003h.034l.003-.004-24.238-27.045-13.338-14.882h-.008l-37.432 41.931h74.974z"/><path opacity=".98" fill="#FFF" d="M800.839 39.722l-.004-.005-.004.005z"/><path opacity=".7" fill="#FFF" d="M800.839 39.722l-.004-.005-.004.005z"/><path fill="#FFF" d="M837.312 79.426l-.003.004h.006z"/><path opacity=".7" fill="#FFF" d="M837.312 79.426l-.003.004h.006z"/><path fill="#FFF" d="M690.583 80.541h74.97l.003-.003.003.003h.033L728.013 38.61h-.009l-37.427 41.925z"/><path opacity=".9" fill="#FFF" d="M728.015 39.722l-.004-.005-.005.005z"/><path opacity=".85" fill="#FFF" d="M728.015 39.722l-.004-.005-.005.005z"/><path opacity=".9" fill="#FFF" d="M692.76 80.522l.016.018.005-.005-5.773-6.441-31.8-35.484h-.009l-37.433 41.931h74.977z"/><path opacity=".9" fill="#FFF" d="M655.209 39.722l-.004-.005-.004.005z"/><path opacity=".8" fill="#FFF" d="M655.209 39.722l-.004-.005-.004.005z"/><path opacity=".85" fill="#FFF" d="M691.684 79.43l-.006-.006-.004.005.001.001z"/><path opacity=".8" fill="#FFF" d="M691.684 79.43l-.006-.006-.004.005.001.001z"/><path opacity=".85" fill="#FFF" d="M582.28 38.601l-37.41 41.93h75.015l-37.555-41.93z"/><path opacity=".65" fill="#FFF" d="M582.308 39.696l-.024.026h.047z"/><path opacity=".95" fill="#FFF" d="M582.308 39.696l-.024.026h.047z"/><path opacity=".9" fill="#FFF" d="M472.084 80.535l.016-.017.032.037h74.956l-37.595-41.931-37.42 41.897z"/><path opacity=".8" fill="#FFF" d="M473.173 79.43l-.014.015h.023l.014-.015z"/><path fill="#FFF" d="M474.292 80.526L441.267 43.68l-4.544-5.07h-.009l-37.437 41.931h75.001z"/><path opacity=".8" fill="#FFF" d="M436.725 39.722l-.004-.005-.005.005z"/><path opacity=".75" fill="#FFF" d="M436.725 39.722l-.004-.005-.005.005z"/><path opacity=".8" fill="#FFF" d="M473.173 79.43h.023l.002-.003-.01-.012z"/><path opacity=".75" fill="#FFF" d="M473.173 79.43h.023l.002-.003-.01-.012z"/><path opacity=".85" fill="#FFF" d="M363.845 38.603l-37.416 41.93h.006l.003-.003.002.003h75.004l-37.561-41.93z"/><path opacity=".4" fill="#FFF" d="M363.884 39.722l-.019-.021-.018.021z"/><path opacity=".7" fill="#FFF" d="M363.884 39.722l-.019-.021-.018.021z"/><path opacity=".9" fill="#FFF" d="M253.615 80.522l.017.019h74.974L291.03 38.61h-.009l-37.43 41.931h.006z"/><path opacity=".9" fill="#FFF" d="M291.032 39.722l-.004-.005-.005.005z"/><path opacity=".95" fill="#FFF" d="M291.032 39.722l-.004-.005-.005.005z"/><path fill="#FFF" d="M218.219 38.615h-.02l-37.407 41.89.017.018h74.999l-37.589-41.93-.01.01z"/><path opacity=".6" fill="#FFF" d="M218.221 39.722l-.009-.011-.009.011z"/><path opacity=".85" fill="#FFF" d="M218.221 39.722l-.009-.011-.009.011z"/><path opacity=".9" fill="#FFF" d="M108.007 80.541h74.977l.003-.004-24.253-27.051-13.337-14.876h-.01l-6.325 7.084-31.09 34.809z"/><path opacity=".25" fill="#FFF" d="M145.399 39.722l-.004-.005-.004.005z"/><path opacity=".5" fill="#FFF" d="M145.399 39.722l-.004-.005-.004.005z"/><path fill="#FFF" d="M72.576 38.613L35.139 80.535l.004.004h74.996l.015-.018-21.671-24.173-15.899-17.735-.004-.005z"/><path opacity=".9" fill="#FFF" d="M37.472 80.535l.014-.015.016.015h.015L-1.471 38.604h-.02v41.931h38.963z"/><path fill="#FFF" d="M1783.953 78.32h-.008l-37.466 41.93h74.88l.071-.079h.064l-16.443-18.332z"/><path opacity=".2" fill="#FFF" d="M1783.947 79.43h.006l-.004-.003z"/><path opacity=".5" fill="#FFF" d="M1783.947 79.43h.006l-.004-.003z"/><path opacity=".8" fill="#FFF" d="M1819.316 120.212h72.202l2.814-.004-37.566-41.927z"/><path opacity=".9" fill="#FFF" d="M1711.102 78.314l-19.45 21.791-17.974 20.138v.001h74.836l.06-.068.063.068h.056l-37.568-41.93z"/><path opacity=".7" fill="#FFF" d="M1711.115 79.417l-.011.013h.023z"/><path opacity=".7" fill="#FFF" d="M1711.115 79.417l-.011.013h.023z"/><path opacity=".9" fill="#FFF" d="M1675.877 120.238l-37.57-41.92-37.436 41.93h74.813l.072-.078.07.078h.061l-.01-.009z"/><path opacity=".8" fill="#FFF" d="M1565.434 78.312l-37.42 41.93h74.851l.057-.063.055.063h.052l-37.562-41.93z"/><path opacity=".8" fill="#FFF" d="M1565.469 79.43l-.018-.019-.015.019z"/><path opacity=".2" fill="#FFF" d="M1565.469 79.43l-.018-.019-.015.019z"/><path opacity=".9" fill="#FFF" d="M1530.152 120.252h.063l-37.553-41.93h-.055l-37.408 41.93h74.83l.061-.067z"/><path opacity=".8" fill="#FFF" d="M1492.609 79.445h.055l-.027-.029z"/><path opacity=".8" fill="#FFF" d="M1492.609 79.445h.055l-.027-.029z"/><path opacity=".95" fill="#FFF" d="M1419.822 78.32l-37.431 41.93h74.806l.073-.079.07.079h.066l-37.578-41.93z"/><path opacity=".4" fill="#FFF" d="M1419.828 79.427l-.004.003h.006z"/><path opacity=".85" fill="#FFF" d="M1419.828 79.427l-.004.003h.006z"/><path fill="#FFF" d="M1309.564 120.243h-.013l-.006.007h74.834l.072-.079.07.079h.038l-37.579-41.93h-.005l-27.452 30.751-9.966 11.166z"/><path opacity=".4" fill="#FFF" d="M1346.977 79.43h.005l-.002-.003z"/><path opacity=".8" fill="#FFF" d="M1346.977 79.43h.005l-.002-.003z"/><path opacity=".85" fill="#FFF" d="M1311.711 120.246h.041l.006-.006-37.57-41.924h-.016l-37.428 41.93h74.838l.063-.072z"/><path opacity=".7" fill="#FFF" d="M1274.189 79.43l-.007-.009-.008.009z"/><path opacity=".4" fill="#FFF" d="M1274.189 79.43l-.007-.009-.008.009z"/><path opacity=".8" fill="#FFF" d="M1310.662 119.135l-.008-.007-.006.007z"/><path opacity=".4" fill="#FFF" d="M1310.662 119.135l-.008-.007-.006.007z"/><path opacity=".9" fill="#FFF" d="M1238.814 120.17l.073.078h.062l-37.582-41.93-37.431 41.93h74.808z"/><path fill="#FFF" d="M1128.533 78.337h-.029l-37.402 41.895.002.001h-.002l-.016.015h74.844l.072-.078.072.078h.028l-37.582-41.93-.002.003z"/><path opacity=".95" fill="#FFF" d="M1128.535 79.445l-.015-.015-.014.015z"/><path opacity=".4" fill="#FFF" d="M1128.535 79.445l-.015-.015-.014.015z"/><path fill="#FFF" d="M1055.754 78.328h-.037l.013-.016h-.025l-37.42 41.93h74.852l.054-.063.057.063h.053v-.002z"/><path opacity=".95" fill="#FFF" d="M1055.719 79.445h.037l-.014-.015h-.01z"/><path opacity=".6" fill="#FFF" d="M1055.719 79.445h.037l-.014-.015h-.01zM1055.732 79.43l.004-.005-.011-.014-.018.019z"/><path opacity=".6" fill="#FFF" d="M1055.732 79.43l.004-.005-.011-.014-.018.019z"/><path opacity=".95" fill="#FFF" d="M1055.742 79.43l-.006-.005-.004.005z"/><path opacity=".6" fill="#FFF" d="M1055.742 79.43l-.006-.005-.004.005z"/><path opacity=".6" fill="#FFF" d="M1055.742 79.43l-.006-.005-.004.005z"/><path opacity=".4" fill="#FFF" d="M1092.203 119.125l-.002-.001v.001z"/><path opacity=".6" fill="#FFF" d="M1092.203 119.125l-.002-.001v.001z"/><path opacity=".95" fill="#FFF" d="M982.891 78.32l-37.431 41.928.001.002h74.838l.07-.079.072.079h.034l-37.579-41.93z"/><path opacity=".9" fill="#FFF" d="M982.895 79.427l-.002.003h.005z"/><path opacity=".9" fill="#FFF" d="M982.895 79.427l-.002.003h.005z"/><path opacity=".95" fill="#FFF" d="M910.08 78.32h-.006l-37.427 41.924.004.006h74.83l.071-.079.072.079h.037l.001-.002z"/><path fill="#FFF" d="M910.077 79.43h.006l-.003-.003z"/><path opacity=".6" fill="#FFF" d="M910.077 79.43h.006l-.003-.003z"/><path opacity=".9" fill="#FFF" d="M946.56 119.14h.001v-.001z"/><path opacity=".6" fill="#FFF" d="M946.56 119.14h.001v-.001z"/><path opacity=".85" fill="#FFF" d="M874.74 120.171l.071.079h.034l.005-.006-37.576-41.924h-.005l-37.434 41.93h74.833z"/><path opacity=".7" fill="#FFF" d="M837.271 79.43h.005l-.003-.003z"/><path opacity=".8" fill="#FFF" d="M837.271 79.43h.005l-.003-.003z"/><path opacity=".6" fill="#FFF" d="M873.744 119.14h.008l-.004-.004z"/><path opacity=".8" fill="#FFF" d="M873.744 119.14h.008l-.004-.004z"/><path fill="#FFF" d="M764.451 78.32l-12.349 13.833-25.064 28.079.002.002h-.005l-.014.016h74.833l.072-.079.071.079h.039l-37.579-41.93z"/><path opacity=".85" fill="#FFF" d="M764.456 79.427l-.003.003h.005z"/><path opacity=".9" fill="#FFF" d="M764.456 79.427l-.003.003h.005z"/><path opacity=".95" fill="#FFF" d="M654.226 120.242h74.821l.056-.063.057.063h.075l.003-.002-32.181-35.917-5.383-6.011H691.638l-8.202 9.192-29.213 32.734z"/><path opacity=".8" fill="#FFF" d="M691.658 79.411l-.017.019h.032l.001-.001z"/><path opacity=".95" fill="#FFF" d="M691.658 79.411l-.017.019h.032l.001-.001z"/><path opacity=".85" fill="#FFF" d="M691.673 79.43h.002l-.001-.001z"/><path opacity=".8" fill="#FFF" d="M691.673 79.43h.002l-.001-.001z"/><path opacity=".95" fill="#FFF" d="M691.673 79.43h.002l-.001-.001z"/><path opacity=".9" fill="#FFF" d="M728.136 119.123l-.003.002h.005z"/><path opacity=".95" fill="#FFF" d="M728.136 119.123l-.003.002h.005z"/><path opacity=".9" fill="#FFF" d="M656.296 120.17l.057.063h.068l.004-.004-37.58-41.926-37.435 41.93h74.83z"/><path opacity=".95" fill="#FFF" d="M655.321 119.125h.007l-.003-.004z"/><path opacity=".95" fill="#FFF" d="M655.321 119.125h.007l-.003-.004z"/><path fill="#FFF" d="M508.587 120.233h74.827l.057-.063.056.063h.065l-37.587-41.93-37.428 41.92z"/><path opacity=".85" fill="#FFF" d="M510.638 120.187l.057.063h.081l.01-.012-37.543-41.918h-.065l-37.407 41.93h74.81z"/><path opacity=".8" fill="#FFF" d="M473.244 79.445l-.031-.034-.015.016.003.003h-.005l-.014.015z"/><path opacity=".6" fill="#FFF" d="M473.244 79.445l-.031-.034-.015.016.003.003h-.005l-.014.015z"/><path opacity=".8" fill="#FFF" d="M473.201 79.43l-.003-.003-.002.003z"/><path opacity=".75" fill="#FFF" d="M473.201 79.43l-.003-.003-.002.003z"/><path opacity=".6" fill="#FFF" d="M473.201 79.43l-.003-.003-.002.003z"/><path opacity=".9" fill="#FFF" d="M509.682 119.114l-.011.011h.021l-.01-.011z"/><path opacity=".6" fill="#FFF" d="M509.682 119.114l-.011.011h.021l-.01-.011z"/><path opacity=".95" fill="#FFF" d="M437.755 120.233l.057-.063.056.063h.062l-37.581-41.93-37.433 41.93h74.839z"/><path opacity=".95" fill="#FFF" d="M327.532 78.305l-37.432 41.93h74.831l.055-.064.056.064h.072l-37.577-41.93z"/><path opacity=".7" fill="#FFF" d="M327.534 79.414h.005l-.003-.003z"/><path opacity=".95" fill="#FFF" d="M327.534 79.414h.005l-.003-.003z"/><path opacity=".85" fill="#FFF" d="M292.166 120.179l.056.063h.069l-37.564-41.93h-.034l-37.417 41.93h74.833z"/><path opacity=".95" fill="#FFF" d="M254.695 79.43h.034l-.017-.019z"/><path opacity=".5" fill="#FFF" d="M254.695 79.43h.034l-.017-.019z"/><path opacity=".9" fill="#FFF" d="M181.881 78.306l.016-.018v-.001l-.03.032.004.004h-.007l-37.402 41.895h74.823l.041-.046.041.046h.11l-37.562-41.912z"/><path opacity=".85" fill="#FFF" d="M181.899 79.396l-.016.018h.033l-.017-.018z"/><path opacity=".7" fill="#FFF" d="M181.899 79.396l-.016.018h.033l-.017-.018z"/><path opacity=".5" fill="#FFF" d="M181.868 79.427h.005v.005h-.005z"/><path opacity=".7" fill="#FFF" d="M181.868 79.427h.005v.005h-.005z"/><path opacity=".5" fill="#FFF" d="M109.059 79.427l.03-.033-.013-.014-.03.033z"/><path opacity=".9" fill="#FFF" d="M109.06 78.796h-.031l-36.888 40.933h73.851l.026-.032.027.032h.111l-37.034-40.933z"/><path opacity=".5" fill="#FFF" d="M109.123 79.43l-.034-.036-.03.033.002.003z"/><path opacity=".5" fill="#FFF" d="M109.123 79.43l-.034-.036-.03.033.002.003z"/><path fill="#FFF" d="M109.056 79.43h.005l-.002-.003-.013-.014-.015.017z"/><path opacity=".5" fill="#FFF" d="M109.056 79.43h.005l-.002-.003-.013-.014-.015.017z"/><path opacity=".75" fill="#FFF" d="M36.25 78.286h-.005l.003-.003-.002-.002-.005-.006h-.03l-37.484 41.931h75.015z"/><path fill="#FFF" d="M36.248 79.427l-.003.003h.005l-.002-.003z"/><path opacity=".75" fill="#FFF" d="M36.248 79.427l-.003.003h.005l-.002-.003z"/><path opacity=".9" fill="#FFF" d="M36.212 79.419h.029l-.014-.016z"/><path opacity=".75" fill="#FFF" d="M36.212 79.419h.029l-.014-.016z"/><path opacity=".9" fill="#FFF" d="M1820.223 117.971l-33.938 38.085-3.426 3.844h75.016l-37.512-41.929z"/><path opacity=".5" fill="#FFF" d="M1820.227 119.14h.136l-.068-.075-.068.075z"/><path opacity=".9" fill="#FFF" d="M1820.227 119.14h.136l-.068-.075-.068.075z"/><path opacity=".8" fill="#FFF" d="M1747.414 117.965l-32.529 36.494-4.844 5.437h75.016l-37.518-41.931z"/><path opacity=".7" fill="#FFF" d="M1747.418 119.131h.121l-.06-.066z"/><path opacity=".4" fill="#FFF" d="M1747.418 119.131h.121l-.06-.066z"/><path opacity=".85" fill="#FFF" d="M1674.586 117.971l-33.936 38.085-3.425 3.844h75.015l-37.511-41.929z"/><path fill="#FFF" d="M1674.59 119.14h.139l-.069-.075z"/><path opacity=".8" fill="#FFF" d="M1674.59 119.14h.139l-.069-.075z"/><path fill="#FFF" d="M1601.881 117.963h-.113l-37.377 41.931h75.013l-25.916-28.959z"/><path opacity=".2" fill="#FFF" d="M1601.771 119.125h.11l-.055-.06z"/><path opacity=".9" fill="#FFF" d="M1601.771 119.125h.11l-.055-.06z"/><path opacity=".85" fill="#FFF" d="M1528.932 117.965l-33.313 37.374-4.06 4.557h75.013l-37.517-41.931z"/><path opacity=".8" fill="#FFF" d="M1529.055 119.13l-.061-.065-.058.065z"/><path opacity=".6" fill="#FFF" d="M1529.055 119.13l-.061-.065-.058.065z"/><path fill="#FFF" d="M1456.102 117.971l-37.364 41.929h75.014l-37.508-41.929z"/><path opacity=".85" fill="#FFF" d="M1456.105 119.14h.139l-.068-.075z"/><path opacity=".9" fill="#FFF" d="M1456.105 119.14h.139l-.068-.075zM1383.279 117.971l-37.363 41.929h75.016l-37.508-41.929z"/><path opacity=".8" fill="#FFF" d="M1383.285 119.14h.139l-.069-.075z"/><path opacity=".9" fill="#FFF" d="M1383.285 119.14h.139l-.069-.075z"/><path opacity=".85" fill="#FFF" d="M1310.609 117.967h-.13l-16.081 18.043-21.291 23.887h75.016l-16.172-18.075z"/><path opacity=".4" fill="#FFF" d="M1310.609 119.135l-.064-.07-.063.07z"/><path opacity=".6" fill="#FFF" d="M1310.609 119.135l-.064-.07-.063.07z"/><path opacity=".9" fill="#FFF" d="M1237.648 117.971l-37.363 41.929h75.016l-37.51-41.929z"/><path opacity=".7" fill="#FFF" d="M1237.652 119.14h.139l-.07-.075z"/><path opacity=".9" fill="#FFF" d="M1237.652 119.14h.139l-.07-.075z"/><path opacity=".8" fill="#FFF" d="M1164.832 117.971l-37.365 41.929h75.015l-37.507-41.929z"/><path opacity=".4" fill="#FFF" d="M1164.836 119.14h.139l-.071-.075z"/><path opacity=".4" fill="#FFF" d="M1164.836 119.14h.139l-.071-.075z"/><path fill="#FFF" d="M1092.15 117.997l-.056-.064-.057.064-37.377 41.866h75.016l-25.92-28.916z"/><path opacity=".85" fill="#FFF" d="M1019.199 117.971L981.834 159.9h75.016l-37.508-41.929z"/><path opacity=".9" fill="#FFF" d="M1019.203 119.14h.139l-.071-.075z"/><path opacity=".85" fill="#FFF" d="M1019.203 119.14h.139l-.071-.075z"/><path opacity=".9" fill="#FFF" d="M946.452 117.933l-.071.081-14.768 16.543-22.594 25.306h75.014l-37.51-41.849z"/><path opacity=".9" fill="#FFF" d="M873.71 117.971h-.143l-15.046 16.884-22.318 25.045h75.015l-22.349-24.984z"/><path opacity=".8" fill="#FFF" d="M873.572 119.14h.138l-.069-.075z"/><path opacity=".9" fill="#FFF" d="M873.572 119.14h.138l-.069-.075z"/><path fill="#FFF" d="M800.899 117.971h-.143l-15.047 16.884-22.315 25.045h75.015l-22.405-25.045z"/><path opacity=".9" fill="#FFF" d="M800.761 119.14h.138l-.069-.075z"/><path opacity=".7" fill="#FFF" d="M800.761 119.14h.138l-.069-.075z"/><path opacity=".9" fill="#FFF" d="M727.947 117.963l-37.378 41.931h75.015l-37.524-41.931z"/><path opacity=".95" fill="#FFF" d="M727.951 119.125h.109l-.055-.06z"/><path opacity=".7" fill="#FFF" d="M727.951 119.125h.109l-.055-.06z"/><path opacity=".8" fill="#FFF" d="M655.141 117.963l-37.378 41.931h75.015l-37.524-41.931z"/><path opacity=".95" fill="#FFF" d="M655.145 119.125h.109l-.054-.06z"/><path opacity=".85" fill="#FFF" d="M655.145 119.125h.109l-.054-.06z"/><path opacity=".9" fill="#FFF" d="M582.31 117.963l-37.377 41.931h75.015l-37.524-41.931z"/><path opacity=".9" fill="#FFF" d="M582.315 119.125h.109l-.054-.06z"/><path opacity=".8" fill="#FFF" d="M582.315 119.125h.109l-.054-.06z"/><path opacity=".85" fill="#FFF" d="M509.479 117.963l-37.378 41.931h75.015l-37.524-41.931z"/><path opacity=".6" fill="#FFF" d="M509.483 119.125h.109l-.054-.06z"/><path opacity=".95" fill="#FFF" d="M509.483 119.125h.109l-.054-.06z"/><path opacity=".9" fill="#FFF" d="M436.656 117.963l-37.378 41.931h75.015l-37.523-41.931z"/><path opacity=".95" fill="#FFF" d="M436.661 119.125h.109l-.055-.06z"/><path opacity=".85" fill="#FFF" d="M436.661 119.125h.109l-.055-.06z"/><path opacity=".9" fill="#FFF" d="M363.832 117.963l-37.377 41.931h75.014l-37.525-41.931z"/><path opacity=".95" fill="#FFF" d="M363.836 119.125h.109l-.054-.06z"/><path opacity=".9" fill="#FFF" d="M363.836 119.125h.109l-.054-.06zM291.011 117.963l-37.379 41.931h75.015l-37.523-41.931z"/><path opacity=".5" fill="#FFF" d="M291.015 119.125h.109l-.055-.06z"/><path opacity=".7" fill="#FFF" d="M291.015 119.125h.109l-.055-.06z"/><path opacity=".9" fill="#FFF" d="M218.271 117.955h-.083l-37.394 41.931h75.015l-26.438-29.532z"/><path opacity=".7" fill="#FFF" d="M218.191 119.109h.08l-.04-.044z"/><path opacity=".9" fill="#FFF" d="M218.191 119.109h.08l-.04-.044zM145.392 117.947l-20.277 22.73-17.131 19.201h75.015l-37.553-41.931z"/><path opacity=".5" fill="#FFF" d="M145.395 119.094h.052l-.026-.029z"/><path opacity=".8" fill="#FFF" d="M145.395 119.094h.052l-.026-.029zM35.156 159.863h75.015l-37.582-41.93z"/><path opacity=".9" fill="#FFF" d="M-1.513 117.938v41.925h39.008l-39.003-41.93z"/><path opacity=".95" fill="#FFF" d="M1893.107 119.065H1820.295l.068.075 36.369 39.591h.084l36.293-39.664zM655.328 119.125H655.254l36.382 39.606h.073l36.242-39.606zM752.465 92.531l11.988-13.101h-72.778l5.226 5.69 31.235 34.003z"/><path opacity=".9" fill="#FFF" d="M728.136 119.123l24.329-26.592-24.329 26.592zM728.136 119.123l24.329-26.592-24.329 26.592z"/><path opacity=".95" fill="#FFF" d="M696.901 85.12l31.235 34.003z"/><path opacity=".9" fill="#FFF" d="M696.901 85.12l31.235 34.003z"/><path opacity=".95" fill="#FFF" d="M946.561 119.14h-.038l36.368 39.591h.084l36.228-39.591zM800.761 119.14h-72.642l.014-.015h-.073l36.383 39.606h.092l21.637-23.648z"/><path opacity=".7" fill="#FFF" d="M786.172 135.083l14.589-15.943z"/><path opacity=".9" fill="#FFF" d="M786.172 135.083l14.589-15.943z"/><path opacity=".95" fill="#FFF" d="M1128.506 79.445h-72.75l36.445 39.679zM1019.385 119.125l36.322-39.695H982.898l36.477 39.71h-.033l36.367 39.591h.092l36.24-39.606z"/><path opacity=".6" fill="#FFF" d="M1055.707 79.43l-36.322 39.695 36.322-39.695z"/><path opacity=".9" fill="#FFF" d="M1055.707 79.43l-36.322 39.695 36.322-39.695z"/><path opacity=".95" fill="#FFF" d="M946.524 39.722h-.06l36.474 39.708 36.335-39.708z"/><path opacity=".9" fill="#FFF" d="M946.464 39.722l36.474 39.708-36.474-39.708z"/><path opacity=".9" fill="#FFF" d="M946.464 39.722l36.474 39.708-36.474-39.708z"/><path opacity=".95" fill="#FFF" d="M1092.186 119.14l.015-.015h-.051l11.254 12.252 25.129 27.354h.074l36.229-39.591z"/><path opacity=".4" fill="#FFF" d="M1092.201 119.125l-.015.015.015-.015z"/><path opacity=".9" fill="#FFF" d="M1092.201 119.125l-.015.015.015-.015z"/><path fill="#FFF" d="M1103.404 131.377l-11.254-12.252z"/><path opacity=".9" fill="#FFF" d="M1103.404 131.377l-11.254-12.252z"/><path opacity=".95" fill="#FFF" d="M145.561 119.109l36.307-39.679h-72.745l36.433 39.664h-.109l36.41 39.637h.078l36.256-39.622z"/><path opacity=".7" fill="#FFF" d="M181.868 79.43l-36.307 39.679 36.307-39.679z"/><path opacity=".9" fill="#FFF" d="M181.868 79.43l-36.307 39.679 36.307-39.679z"/><path opacity=".95" fill="#FFF" d="M181.899 79.396l36.304-39.674h-72.804l12.941 14.089 23.531 25.615z"/><path opacity=".5" fill="#FFF" d="M145.399 39.722l12.941 14.089-12.941-14.089z"/><path opacity=".9" fill="#FFF" d="M145.399 39.722l12.941 14.089-12.941-14.089z"/><path opacity=".7" fill="#FFF" d="M181.899 79.396z"/><path opacity=".9" fill="#FFF" d="M181.899 79.396zM-.229 79.419v39.643l36.441-39.643zM72.578 39.722H-.21l36.464 39.697h-.013l.005.006.002.002zM-.21 39.722l36.464 39.697L-.21 39.722zM-.21 39.722l36.464 39.697L-.21 39.722z"/><path opacity=".75" fill="#FFF" d="M36.246 79.425l.002.002z"/><path opacity=".9" fill="#FFF" d="M36.246 79.425l.002.002z"/><path opacity=".95" fill="#FFF" d="M145.395 119.094H72.74l36.291-39.664H36.25l36.447 39.632H-.229v.008l.004-.005 36.437 39.666h.085l36.295-39.666 36.437 39.666h.096l16.61-18.151z"/><path opacity=".5" fill="#FFF" d="M109.031 79.43L72.74 119.094l36.291-39.664z"/><path opacity=".9" fill="#FFF" d="M109.031 79.43L72.74 119.094l36.291-39.664z"/><path opacity=".8" fill="#FFF" d="M125.735 140.58l19.66-21.486z"/><path opacity=".9" fill="#FFF" d="M125.735 140.58l19.66-21.486z"/><path opacity=".8" fill="#FFF" d="M109.029 158.731l-36.437-39.666z"/><path opacity=".9" fill="#FFF" d="M109.029 158.731l-36.437-39.666zM36.212 158.731L-.225 119.065zM36.212 158.731L-.225 119.065z"/><path opacity=".94" fill="#FFF" d="M509.692 119.125h-.1l36.382 39.606h.1l36.241-39.606z"/><path opacity=".95" fill="#FFF" d="M291.199 119.125l36.335-39.711h-.006l36.319-39.692H291.032l36.475 39.708h-72.778l36.462 39.695h-.067l36.382 39.606h.09l36.24-39.606z"/><path opacity=".7" fill="#FFF" d="M363.847 39.722l-36.319 39.692 36.319-39.692z"/><path opacity=".9" fill="#FFF" d="M363.847 39.722l-36.319 39.692 36.319-39.692z"/><path opacity=".95" fill="#FFF" d="M327.507 79.43l-36.475-39.708z"/><path opacity=".9" fill="#FFF" d="M327.507 79.43l-36.475-39.708z"/><path opacity=".95" fill="#FFF" d="M327.534 79.414l-36.335 39.711 36.335-39.711z"/><path opacity=".9" fill="#FFF" d="M327.534 79.414l-36.335 39.711 36.335-39.711zM1894.443 117.934l-38.963 41.93h39.008V117.98zM1893.107 119.065h.043v-.003l-2.726.003z"/><path fill="#FFF" d="M1893.15 119.112v-.047h-.039l-.002.002-36.293 39.664 36.293-39.664z"/><path opacity=".9" fill="#FFF" d="M1893.15 119.112v-.047h-.039l-.002.002-36.293 39.664 36.293-39.664z"/><path opacity=".95" fill="#FFF" d="M1747.418 119.131h-72.641l.01.009h-.058l36.371 39.591h.082l4.697-5.133z"/><path opacity=".4" fill="#FFF" d="M1715.879 153.598l31.539-34.467z"/><path opacity=".9" fill="#FFF" d="M1715.879 153.598l31.539-34.467z"/><path opacity=".95" fill="#FFF" d="M1820.227 119.14h-72.614l36.334-39.71h-.076l36.332-39.708h-72.855l36.474 39.708h-72.695l36.467 39.701h-.055l36.377 39.6h.086l3.32-3.63z"/><path opacity=".2" fill="#FFF" d="M1820.203 39.722l-36.332 39.708 36.332-39.708z"/><path opacity=".9" fill="#FFF" d="M1820.203 39.722l-36.332 39.708 36.332-39.708zM1787.322 155.101l32.905-35.961zM1787.322 155.101l32.905-35.961z"/><path opacity=".95" fill="#FFF" d="M1674.59 119.14h-72.619l36.338-39.713 36.468 39.703 17.448-19.068 18.879-20.632h-.1l.016-.016h-72.801l.015.016h-72.765l36.463 39.695h-.051l11.254 12.252 25.129 27.354h.101l3.321-3.63z"/><path opacity=".7" fill="#FFF" d="M1711.02 79.414l-.016.016.016-.016z"/><path opacity=".9" fill="#FFF" d="M1711.02 79.414l-.016.016.016-.016z"/><path opacity=".8" fill="#FFF" d="M1638.234 79.43l-.015-.016z"/><path opacity=".9" fill="#FFF" d="M1638.234 79.43l-.015-.016z"/><path opacity=".7" fill="#FFF" d="M1692.225 100.062l-17.448 19.068z"/><path opacity=".9" fill="#FFF" d="M1692.225 100.062l-17.448 19.068z"/><path opacity=".8" fill="#FFF" d="M1641.686 155.101l32.904-35.961z"/><path opacity=".9" fill="#FFF" d="M1641.686 155.101l32.904-35.961zM1613.135 131.377l-11.254-12.252zM1613.135 131.377l-11.254-12.252z"/><path opacity=".95" fill="#FFF" d="M873.572 119.14h-72.673l14.646 15.943 21.723 23.648h.077l21.638-23.648z"/><path opacity=".9" fill="#FFF" d="M858.983 135.083l14.589-15.943zM858.983 135.083l14.589-15.943z"/><path opacity=".7" fill="#FFF" d="M837.268 158.731l-21.723-23.648z"/><path opacity=".9" fill="#FFF" d="M837.268 158.731l-21.723-23.648z"/><path opacity=".95" fill="#FFF" d="M1529.113 119.125l36.323-39.695h-.02l36.334-39.708h-145.465L1492.621.01l36.479 39.711L1565.436.01l36.48 39.712h-.158l36.455 39.684 36.308-39.684h-72.582L1638.277.01l36.479 39.712h-.197l36.461 39.69 16.619-18.16 19.701-21.53h-72.574L1711.104.01l36.425 39.652L1783.809.01l36.478 39.712h-.076l36.475 39.708h-72.733l20.459 22.275 15.945 17.36h.141l36.27-39.638 36.382 39.635V79.414h-36.433l36.4-39.665-.017-.02-72.702-.007L1856.734.01l36.403 39.706h.013V-.004H-.229v39.715l.004-.005.005.005L36.107.01l36.481 39.712h-.002l15.43 16.797 21.03 22.894.03-.033.013.014 30.164-32.963 6.138-6.709H72.708L109.044.01l36.42 39.647L181.742.01l36.47 39.701.009-.01L254.7 79.414h-72.784l36.462 39.695h-.107l10.763 11.716 25.634 27.906h.105l36.242-39.606h-72.64l36.32-39.695h-.006l36.334-39.708h-72.679L254.68.01l36.476 39.708L327.489.01l36.478 39.712h-.083l36.461 39.692h-72.806l36.476 39.711 36.336-39.714 36.48 39.714h-.061l36.383 39.606h.089l36.241-39.606h-72.607l36.306-39.68h-.023l.014-.015h-72.79l36.333-39.708h-72.717L400.335.01l36.479 39.712h-.089l4.41 4.8 32.053 34.892 36.308-39.682 36.479 39.713h-72.731l36.438 39.669 36.326-39.703 36.479 39.714h-.063l36.382 39.606h.099l36.24-39.606H582.51l36.337-39.714 36.478 39.71 28.354-30.988 7.962-8.703h-72.773l36.333-39.708H582.331l36.455 39.687H545.97l36.314-39.687H436.829L473.166.01l36.476 39.709L545.976.01l36.468 39.699L618.768.01l36.482 39.712h-.041l30.867 33.602 5.602 6.1 36.328-39.702h-72.733L691.611.01l36.479 39.712h-.075l36.476 39.708h-.033l36.479 39.71 36.334-39.71h-72.773l36.333-39.708h-72.72L764.45.01l36.462 39.693L837.232.01l36.476 39.709L910.042.01l36.471 39.7L982.838.01l36.48 39.712h-.035l27.807 30.272 8.654 9.422 36.311-39.684 36.465 39.697.001-.002 36.481 39.713h-.027l36.367 39.591h.084l36.226-39.591h-72.619l36.336-39.713 36.483 39.713h-.061l36.369 39.591h.088l20.645-22.559 15.589-17.037h-72.634l36.326-39.705h-.055l36.334-39.708H1237.652l36.461 39.692H1128.51l36.32-39.692H1019.338L1055.678.01l36.476 39.711L1128.49.01l36.479 39.712h-.102l13.151 14.313 23.294 25.361 24.45-26.721 11.853-12.953h-72.625L1201.328.01l36.473 39.701L1274.125.01l36.479 39.712h-.141l36.475 39.708h-72.749l36.465 39.698 9.676-10.573 26.647-29.125h-.034l36.334-39.708h-72.67L1346.943.01l36.481 39.712h-.137l16.574 18.047 19.893 21.654 19.814-21.654 16.514-18.047h-72.637L1419.781.01l36.481 39.712h-.17l36.474 39.708h-72.736l36.479 39.71h-.065l36.369 39.591h.086l3.936-4.303 32.301-35.298h-72.635l36.308-39.685h-.037l36.338-39.713 36.479 39.713h-72.725l36.451 39.685h-.06l36.377 39.601h.099l36.24-39.606z"/><path opacity=".8" fill="#FFF" d="M1783.809.01l-36.28 39.652z"/><path opacity=".9" fill="#FFF" d="M1783.809.01l-36.28 39.652z"/><path fill="#FFF" d="M1565.436.01L1529.1 39.721z"/><path opacity=".9" fill="#FFF" d="M1565.436.01L1529.1 39.721zM1529.1 39.721L1492.621.01l36.479 39.711z"/><path opacity=".9" fill="#FFF" d="M1529.1 39.721L1492.621.01l36.479 39.711zM1128.49.01l-36.336 39.711zM1128.49.01l-36.336 39.711z"/><path opacity=".4" fill="#FFF" d="M1092.154 39.721L1055.678.01l36.476 39.711z"/><path opacity=".9" fill="#FFF" d="M1092.154 39.721L1055.678.01l36.476 39.711z"/><path fill="#FFF" d="M982.838.01l-36.325 39.7z"/><path opacity=".9" fill="#FFF" d="M982.838.01l-36.325 39.7z"/><path opacity=".98" fill="#FFF" d="M800.912 39.703L764.45.01l36.462 39.693z"/><path opacity=".9" fill="#FFF" d="M800.912 39.703L764.45.01l36.462 39.693zM618.768.01l-36.324 39.699zM618.768.01l-36.324 39.699z"/><path opacity=".65" fill="#FFF" d="M582.444 39.709L545.976.01l36.468 39.699z"/><path opacity=".9" fill="#FFF" d="M582.444 39.709L545.976.01l36.468 39.699z"/><path opacity=".4" fill="#FFF" d="M327.489.01l-36.333 39.708z"/><path opacity=".9" fill="#FFF" d="M327.489.01l-36.333 39.708z"/><path opacity=".6" fill="#FFF" d="M181.742.01l-36.278 39.647z"/><path opacity=".9" fill="#FFF" d="M181.742.01l-36.278 39.647z"/><path opacity=".7" fill="#FFF" d="M1747.34 39.722l-19.701 21.53 19.701-21.53z"/><path opacity=".9" fill="#FFF" d="M1747.34 39.722l-19.701 21.53 19.701-21.53z"/><path opacity=".8" fill="#FFF" d="M1601.75 39.722l-36.334 39.708 36.334-39.708z"/><path opacity=".9" fill="#FFF" d="M1601.75 39.722l-36.334 39.708 36.334-39.708z"/><path opacity=".4" fill="#FFF" d="M1439.568 57.769l-19.814 21.654v.001z"/><path opacity=".9" fill="#FFF" d="M1439.568 57.769l-19.814 21.654v.001z"/><path opacity=".4" fill="#FFF" d="M1419.754 79.423l-19.893-21.654 19.893 21.655z"/><path opacity=".9" fill="#FFF" d="M1419.754 79.423l-19.893-21.654 19.893 21.655z"/><path fill="#FFF" d="M1237.615 39.722l-11.853 12.953 11.853-12.953z"/><path opacity=".9" fill="#FFF" d="M1237.615 39.722l-11.853 12.953 11.853-12.953z"/><path fill="#FFF" d="M1274.113 79.414l-36.461-39.692z"/><path opacity=".9" fill="#FFF" d="M1274.113 79.414l-36.461-39.692z"/><path opacity=".8" fill="#FFF" d="M1178.018 54.035l-13.151-14.313z"/><path opacity=".9" fill="#FFF" d="M1178.018 54.035l-13.151-14.313z"/><path opacity=".8" fill="#FFF" d="M1164.83 39.722l-36.32 39.692 36.32-39.692z"/><path opacity=".9" fill="#FFF" d="M1164.83 39.722l-36.32 39.692 36.32-39.692z"/><path opacity=".95" fill="#FFF" d="M1128.52 79.429l-36.465-39.697 36.465 39.698z"/><path opacity=".9" fill="#FFF" d="M1128.52 79.429l-36.465-39.697 36.465 39.698z"/><path opacity=".6" fill="#FFF" d="M1055.744 79.416l-8.654-9.422 8.654 9.422z"/><path opacity=".9" fill="#FFF" d="M1055.744 79.416l-8.654-9.422 8.654 9.422z"/><path opacity=".7" fill="#FFF" d="M800.831 39.722L764.498 79.43l36.333-39.708z"/><path opacity=".9" fill="#FFF" d="M800.831 39.722L764.498 79.43l36.333-39.708z"/><path opacity=".85" fill="#FFF" d="M764.491 79.43l-36.476-39.708z"/><path opacity=".9" fill="#FFF" d="M764.491 79.43l-36.476-39.708z"/><path opacity=".8" fill="#FFF" d="M655.201 39.722L618.868 79.43l36.333-39.708z"/><path opacity=".9" fill="#FFF" d="M655.201 39.722L618.868 79.43l36.333-39.708z"/><path opacity=".8" fill="#FFF" d="M686.076 73.324l-30.867-33.602z"/><path opacity=".9" fill="#FFF" d="M686.076 73.324l-30.867-33.602z"/><path opacity=".75" fill="#FFF" d="M441.135 44.522l-4.41-4.8z"/><path opacity=".9" fill="#FFF" d="M441.135 44.522l-4.41-4.8z"/><path opacity=".75" fill="#FFF" d="M436.716 39.722L400.383 79.43l36.333-39.708z"/><path opacity=".9" fill="#FFF" d="M436.716 39.722L400.383 79.43l36.333-39.708z"/><path opacity=".95" fill="#FFF" d="M291.023 39.722L254.689 79.43l36.334-39.708z"/><path opacity=".9" fill="#FFF" d="M291.023 39.722L254.689 79.43l36.334-39.708z"/><path opacity=".5" fill="#FFF" d="M145.391 39.722l-6.138 6.709 6.138-6.709z"/><path opacity=".9" fill="#FFF" d="M145.391 39.722l-6.138 6.709 6.138-6.709z"/><path fill="#FFF" d="M88.016 56.519l-15.43-16.797z"/><path opacity=".9" fill="#FFF" d="M88.016 56.519l-15.43-16.797z"/><path opacity=".5" fill="#FFF" d="M1820.357 119.065l-15.945-17.36z"/><path opacity=".9" fill="#FFF" d="M1820.357 119.065l-15.945-17.36z"/><path opacity=".2" fill="#FFF" d="M1565.436 79.43l-36.323 39.695 36.323-39.695z"/><path opacity=".9" fill="#FFF" d="M1565.436 79.43l-36.323 39.695 36.323-39.695z"/><path opacity=".8" fill="#FFF" d="M1320.33 108.555l-9.676 10.573z"/><path opacity=".9" fill="#FFF" d="M1320.33 108.555l-9.676 10.573z"/><path opacity=".4" fill="#FFF" d="M1274.174 79.43l-36.326 39.705 36.326-39.705z"/><path opacity=".9" fill="#FFF" d="M1274.174 79.43l-36.326 39.705 36.326-39.705z"/><path opacity=".4" fill="#FFF" d="M1128.521 79.427l-.001.002v.001z"/><path opacity=".9" fill="#FFF" d="M1128.521 79.427l-.001.002v.001z"/><path opacity=".95" fill="#FFF" d="M683.679 88.133l-28.354 30.988z"/><path opacity=".9" fill="#FFF" d="M683.679 88.133l-28.354 30.988zM546.008 79.411l-36.326 39.703zM546.008 79.411l-36.326 39.703z"/><path opacity=".6" fill="#FFF" d="M473.182 79.445l-36.306 39.68 36.306-39.68z"/><path opacity=".9" fill="#FFF" d="M473.182 79.445l-36.306 39.68 36.306-39.68z"/><path opacity=".95" fill="#FFF" d="M364.015 119.125l-36.476-39.711z"/><path opacity=".9" fill="#FFF" d="M364.015 119.125l-36.476-39.711z"/><path opacity=".5" fill="#FFF" d="M109.076 79.38l-.03.033z"/><path opacity=".9" fill="#FFF" d="M109.076 79.38l-.03.033z"/><path opacity=".6" fill="#FFF" d="M1528.936 119.13l-32.301 35.298 32.301-35.298z"/><path opacity=".9" fill="#FFF" d="M1528.936 119.13l-32.301 35.298 32.301-35.298z"/><path opacity=".6" fill="#FFF" d="M1310.482 119.135l-15.589 17.037 15.589-17.037z"/><path opacity=".9" fill="#FFF" d="M1310.482 119.135l-15.589 17.037 15.589-17.037zM254.668 158.731l-25.634-27.906zM254.668 158.731l-25.634-27.906z"/><path opacity=".95" fill="#FFF" d="M364.015 119.125h-.07l36.383 39.606h.091l36.242-39.606zM910.083 79.43l36.478 39.709 36.332-39.709h-72.77zM861.709 52.763l11.933-13.041h-72.803l12.947 14.094 23.526 25.61z"/><path fill="#FFF" d="M873.642 39.722l-11.933 13.041z"/><path opacity=".9" fill="#FFF" d="M873.642 39.722l-11.933 13.041z"/><path opacity=".7" fill="#FFF" d="M800.839 39.722l12.947 14.094-12.947-14.094z"/><path opacity=".9" fill="#FFF" d="M800.839 39.722l12.947 14.094-12.947-14.094z"/><path opacity=".95" fill="#FFF" d="M910.077 79.43h-72.801l36.472 39.706z"/><path fill="#FFF" d="M946.455 39.722h-72.804l36.473 39.707zM910.124 79.429l-36.473-39.707z"/><path opacity=".9" fill="#FFF" d="M910.124 79.429l-36.473-39.707z"/><path opacity=".95" fill="#FFF" d="M946.385 119.14H873.71l14.698 16.001 21.669 23.59h.083l21.907-23.941z"/><path fill="#FFF" d="M946.385 119.14l-14.318 15.65z"/><path opacity=".9" fill="#FFF" d="M946.385 119.14l-14.318 15.65zM910.077 158.731l-21.669-23.59zM910.077 158.731l-21.669-23.59z"/><path opacity=".95" fill="#FFF" d="M1383.49 119.14l36.334-39.71h-72.842l36.479 39.71h-.037l36.365 39.591h.088l36.228-39.591zM1310.643 119.14l.005-.005h-.039l20.694 22.526 15.679 17.07h.077l36.226-39.591z"/><path opacity=".8" fill="#FFF" d="M1310.648 119.135l-.005.005.005-.005z"/><path opacity=".9" fill="#FFF" d="M1310.648 119.135l-.005.005.005-.005z"/><path opacity=".6" fill="#FFF" d="M1331.303 141.661l-20.694-22.526z"/><path opacity=".9" fill="#FFF" d="M1331.303 141.661l-20.694-22.526z"/></svg>