<svg width="1130" height="252" viewBox="0 0 1130 252" xmlns="http://www.w3.org/2000/svg" xmlns:xlink="http://www.w3.org/1999/xlink"><defs><path id="a" d="M.653.92h31.366v62.693H.653z"/><path id="c" d="M.653.92h31.366v62.693H.653z"/></defs><g fill="none" fill-rule="evenodd" opacity=".5"><path fill="#FEFEFE" fill-opacity="0" d="M941.347 251.126l-31.364-31.348-31.367 31.348z"/><path fill="#C9E9EF" d="M878.625 251.126l-31.367-31.348-31.366 31.348z"/><path fill="#FEFEFE" fill-opacity="0" d="M565.001 251.126l31.366-31.348 31.366 31.348zM753.17 251.126l31.365-31.348 31.366 31.348zM941.337 251.126l31.365-31.348 31.366 31.348zM1066.781 251.126l31.367-31.348 31.365 31.348z"/><path fill="#C9E9EF" d="M1066.79 251.126l-31.365-31.348-31.366 31.348zM627.593 188.43l31.366 31.348 31.366-31.348z"/><path fill="#FFF" fill-opacity="0" d="M564.87 188.43l31.366 31.348L627.6 188.43zM690.315 188.43l31.366 31.348 31.366-31.348z"/><path fill="#C9E9EF" d="M753.038 188.43l31.366 31.349 31.366-31.349z"/><path fill="#FEFEFE" fill-opacity="0" d="M815.76 188.43l31.366 31.349 31.364-31.349zM941.205 188.43l31.367 31.348 31.365-31.348zM1129.383 188.43l-31.367 31.346-31.364-31.346z"/><path fill="#CADAD9" d="M1066.66 188.43l-31.367 31.349-31.365-31.349z"/><path d="M941.254 188.43l-31.365-31.347-31.362 31.347zM690.333 188.43l31.365-31.347 31.365 31.347zM753.063 188.43l31.366-31.347 31.366 31.347z" fill="#FEFEFE" fill-opacity="0"/><path fill="#C9E9EF" d="M815.795 188.43l31.365-31.347 31.366 31.347z"/><path fill="#FEFEFE" fill-opacity="0" d="M941.254 188.43l31.367-31.347 31.363 31.347zM1129.447 188.43l-31.365-31.347-31.367 31.347z"/><path fill="#FFF" fill-opacity="0" d="M1066.716 188.43l-31.365-31.347-31.367 31.347z"/><path fill="#FEFEFE" fill-opacity="0" d="M941.293 62.833L909.93 31.487l-31.364 31.346z"/><path fill="#C9E9EF" d="M627.687 62.833l31.364-31.346 31.365 31.346z"/><path fill="#FEFEFE" fill-opacity="0" d="M815.846 62.833l31.367-31.346 31.363 31.346z"/><path fill="#FEFEFE" fill-opacity="0" d="M815.857 62.833l-31.365-31.346-31.365 31.346z"/><path fill="#FFF" fill-opacity="0" d="M1129.455 62.836l-31.365-31.348-31.366 31.348z"/><path fill="#FEFEFE" fill-opacity="0" d="M1066.734 62.836l-31.364-31.348-31.364 31.348z"/><path fill="#FEFEFE" fill-opacity="0" d="M941.286 62.836l31.364-31.348 31.367 31.348z"/><path fill="#C9E9EF" d="M627.602 62.836l-31.366 31.347-31.366-31.347z"/><path fill="#FEFEFE" fill-opacity="0" d="M941.168 62.836l-31.365 31.347-31.365-31.347z"/><path fill="#FEFEFE" fill-opacity="0" d="M815.735 62.836L847.1 94.183l31.364-31.347z"/><path fill="#C9E9EF" d="M753.02 62.836l-31.364 31.347-31.366-31.347z"/><path fill="#CADAD9" d="M815.751 62.836l-31.366 31.347-31.364-31.347z"/><path fill="#FEFEFE" fill-opacity="0" d="M1129.434 62.837l-31.367 31.348-31.365-31.348z"/><g><path fill="#FEFEFE" fill-opacity="0" d="M1066.703 62.837l-31.365 31.346-31.364-31.346z"/><path fill="#C9E9EF" d="M627.602 125.53l-31.366-31.347 31.366-31.347z"/><path fill="#FEFEFE" fill-opacity="0" d="M564.87 125.53l31.366-31.346-31.366-31.348zM753.063 125.53L721.7 94.185l31.364-31.348zM815.795 125.53L784.43 94.185l31.365-31.348z"/><path fill="#C9E9EF" d="M690.333 62.836l-31.367 31.347 31.367 31.347z"/><path fill="#FFF" fill-opacity="0" d="M878.526 62.836l31.364 31.347-31.364 31.347z"/><path fill="#FEFEFE" fill-opacity="0" d="M878.526 62.836L847.16 94.183l31.367 31.347zM941.256 62.836l-31.367 31.347 31.367 31.347zM1129.45 62.836l-31.367 31.347 31.367 31.347zM1066.719 62.836l31.364 31.347-31.364 31.347z"/><path fill="#FFF" fill-opacity="0" d="M1066.719 62.836l-31.367 31.347 31.367 31.347z"/><path fill="#FEFEFE" fill-opacity="0" d="M1003.987 62.836l31.365 31.347-31.365 31.347z"/><path fill="#FEFEFE" fill-opacity="0" d="M1003.987 125.532l-31.365-31.348 31.365-31.348zM941.213 125.63L909.85 94.283l-31.366 31.347z"/><path fill="#C9E9EF" d="M690.315 125.638l31.366-31.349 31.367 31.349z"/><path fill="#FEFEFE" fill-opacity="0" d="M753.038 125.638l31.366-31.349 31.366 31.349zM878.49 125.659L847.128 94.31 815.76 125.66zM1066.66 125.727l-31.367-31.347-31.365 31.347zM941.205 125.654l31.367-31.347 31.365 31.347z"/><path fill="#C9E9EF" d="M564.87 125.735l31.366 31.348 31.365-31.348z"/><path fill="#FEFEFE" fill-opacity="0" d="M941.213 125.735l-31.364 31.348-31.366-31.348zM627.592 125.735l31.365 31.347 31.365-31.347z"/><path fill="#CADAD9" d="M878.49 125.735l-31.364 31.348-31.366-31.348z"/><path fill="#FEFEFE" fill-opacity="0" d="M1129.381 125.735l-31.365 31.346-31.366-31.346z"/><path fill="#FEFEFE" fill-opacity="0" d="M1066.658 125.735l-31.366 31.346-31.365-31.346z"/><path fill="#FEFEFE" fill-opacity="0" d="M941.204 125.735l31.368 31.347 31.365-31.347z"/></g><path fill="#BFC4D7" d="M690.284 251.534l31.367-31.347-31.367-31.348z"/><g><g transform="matrix(-1 0 0 1 596.866 187.92)"><mask id="b" fill="#fff"><use xlink:href="#a"/></mask><path fill="#C9E9EF" mask="url(#b)" d="M32.02 63.613L.653 32.266 32.02.92z"/></g><path fill="#FFF" fill-opacity="0" d="M627.573 251.534l-31.367-31.347 31.367-31.348z"/><path fill="#FEFEFE" fill-opacity="0" d="M627.567 251.534l31.364-31.347-31.364-31.348z"/></g><path fill="#FEFEFE" fill-opacity="0" d="M815.728 251.533l-31.366-31.347 31.366-31.346z"/><g><path fill="#FFF" fill-opacity="0" d="M941.166 188.84L909.8 220.187l31.366 31.346z"/><path fill="#C9E9EF" d="M878.44 188.84l31.366 31.347-31.366 31.346z"/><path fill="#FEFEFE" fill-opacity="0" d="M878.447 188.84l-31.367 31.347 31.367 31.346z"/></g><path fill="#FEFEFE" fill-opacity="0" d="M1129.321 188.839l-31.365 31.348 31.365 31.347z"/><path fill="#FFF" fill-opacity="0" d="M1066.596 188.839l31.367 31.348-31.367 31.347z"/><path fill="#FEFEFE" fill-opacity="0" d="M1003.884 251.534l-31.366-31.347 31.366-31.348zM1066.603 188.84l-31.367 31.347 31.367 31.346z"/><path fill="#FEFEFE" fill-opacity="0" d="M1003.877 251.534l31.367-31.347-31.367-31.348z"/><g><path fill="#FEFEFE" fill-opacity="0" d="M564.889 188.57l31.367-31.349-31.367-31.347zM627.608 188.586l31.365-31.347-31.365-31.348z"/><path fill="#C9E9EF" d="M753.045 188.602l31.365-31.347-31.365-31.348z"/><path fill="#FEFEFE" fill-opacity="0" d="M815.764 188.58l31.365-31.346-31.365-31.346zM878.48 188.58l31.369-31.346-31.368-31.346z"/><path fill="#FEFEFE" fill-opacity="0" d="M878.489 188.58l-31.366-31.346 31.366-31.346zM941.208 125.903L909.84 157.25l31.367 31.347z"/><path fill="#FFF" fill-opacity="0" d="M1129.363 125.92l-31.366 31.345 31.366 31.347z"/></g><path fill="#FEFEFE" fill-opacity="0" d="M1066.638 125.94l31.366 31.347-31.366 31.347zM1003.92 125.91l31.365 31.348-31.365 31.347z"/><path fill="#FFF" fill-opacity="0" d="M1066.645 125.91l-31.367 31.348 31.367 31.347z"/><path fill="#FEFEFE" fill-opacity="0" d="M941.2 188.618l31.369-31.347-31.37-31.348zM1003.926 188.43l-31.366-31.347 31.366-31.347z"/><g><path fill="#FEFEFE" fill-opacity="0" d="M1066.697.136l-31.367 31.348 31.367 31.347z"/><path fill="#FEFEFE" fill-opacity="0" d="M1066.694.136l31.367 31.348-31.367 31.347zM1003.968.136l-31.367 31.348 31.367 31.347z"/><path fill="#FEFEFE" fill-opacity="0" d="M1003.966.136l31.364 31.348-31.364 31.347z"/><path fill="#FFF" fill-opacity="0" d="M1129.423 62.846l-31.367-31.348L1129.423.151zM941.24 62.846l-31.365-31.348L941.24.151z"/><path fill="#FEFEFE" fill-opacity="0" d="M941.237 62.846l31.367-31.348L941.237.151zM878.51 62.846l31.369-31.348L878.51.151z"/><path fill="#FFF" fill-opacity="0" d="M878.513.129l-31.366 31.346 31.366 31.348zM753.057.136L721.69 31.484l31.367 31.347z"/><path fill="#C9E9EF" d="M753.055.136l31.365 31.348-31.365 31.347z"/><path fill="#FEFEFE" fill-opacity="0" d="M690.328.136l-31.367 31.348 31.367 31.347z"/><path fill="#FFF" fill-opacity="0" d="M815.784 62.846l-31.367-31.348L815.784.151z"/><path fill="#FFF" fill-opacity="0" d="M815.783 62.846l31.365-31.348L815.783.151z"/><path fill="#FEFEFE" fill-opacity="0" d="M564.87 62.846l31.367-31.348L564.87.151zM878.51.129l31.365 31.347L941.24.129zM1129.407.129l-31.365 31.347L1066.675.129z"/><path fill="#FEFEFE" fill-opacity="0" d="M1066.676.129l-31.367 31.347L1003.945.129z"/><path fill="#FEFEFE" fill-opacity="0" d="M941.227.129l31.364 31.348L1003.958.129zM878.395.129l-31.364 31.346L815.665.129z"/><path fill="#FFF" fill-opacity="0" d="M815.704.129l-31.366 31.347L752.973.129z"/><path fill="#FEFEFE" fill-opacity="0" d="M752.973.129l-31.367 31.347L690.241.129zM564.87.129l31.367 31.348L627.604.129z"/></g><g><g fill="#FEFEFE" fill-opacity="0"><path d="M188.653 251.126l31.364-31.348 31.367 31.348z"/><path d="M251.375 251.126l31.367-31.348 31.366 31.348zM564.999 251.126l-31.366-31.348-31.366 31.348z"/><path d="M376.83 251.126l-31.365-31.348-31.366 31.348zM188.663 251.126l-31.365-31.348-31.366 31.348z"/></g><path fill="#FEFEFE" fill-opacity="0" d="M63.219 251.126l-31.367-31.348L.487 251.126z"/><path fill="#C9E9EF" d="M63.21 251.126l31.365-31.348 31.366 31.348zM502.407 188.43l-31.366 31.348-31.365-31.348z"/><path fill="#FFF" fill-opacity="0" d="M439.685 188.43l-31.366 31.348-31.366-31.348z"/><path fill="#C9E9EF" d="M376.962 188.43l-31.366 31.349-31.366-31.349z"/><path fill="#FEFEFE" fill-opacity="0" d="M314.24 188.43l-31.366 31.349-31.364-31.349zM188.795 188.43l-31.367 31.348-31.365-31.348zM.617 188.43l31.367 31.346 31.364-31.346z"/><path fill="#FFF" fill-opacity="0" d="M63.34 188.43l31.367 31.349 31.365-31.349zM188.746 188.43l31.365-31.347 31.362 31.347z"/><path fill="#FEFEFE" fill-opacity="0" d="M439.667 188.43l-31.365-31.347-31.365 31.347z"/><path fill="#FEFEFE" fill-opacity="0" d="M376.937 188.43l-31.366-31.347-31.366 31.347z"/><path fill="#C9E9EF" d="M314.205 188.43l-31.365-31.347-31.366 31.347zM188.746 188.43l-31.367-31.347-31.363 31.347z"/><path fill="#FEFEFE" fill-opacity="0" d="M.553 188.43l31.365-31.347 31.367 31.347z"/><path fill="#FFF" fill-opacity="0" d="M63.284 188.43l31.365-31.347 31.367 31.347z"/><path fill="#C9E9EF" d="M502.302 62.833l31.366-31.346 31.365 31.346z"/><path fill="#FEFEFE" fill-opacity="0" d="M188.707 62.833l31.363-31.346 31.364 31.346z"/><path fill="#C9E9EF" d="M502.313 62.833L470.95 31.487l-31.365 31.346z"/><path fill="#FEFEFE" fill-opacity="0" d="M314.154 62.833l-31.367-31.346-31.363 31.346z"/><path fill="#FEFEFE" fill-opacity="0" d="M314.143 62.833l31.365-31.346 31.365 31.346z"/><path fill="#FFF" fill-opacity="0" d="M.545 62.836L31.91 31.488l31.366 31.348z"/><path fill="#FEFEFE" fill-opacity="0" d="M63.266 62.836L94.63 31.488l31.364 31.348z"/><path fill="#FEFEFE" fill-opacity="0" d="M188.714 62.836L157.35 31.488l-31.367 31.348zM188.832 62.836l31.365 31.347 31.365-31.347z"/><path fill="#FEFEFE" fill-opacity="0" d="M314.265 62.836L282.9 94.183l-31.364-31.347z"/><path fill="#C9E9EF" d="M376.98 62.836l31.364 31.347 31.366-31.347z"/><path fill="#CADAD9" d="M314.249 62.836l31.366 31.347 31.364-31.347z"/><path fill="#FEFEFE" fill-opacity="0" d="M.566 62.837l31.367 31.348 31.365-31.348z"/><g><path fill="#FEFEFE" fill-opacity="0" d="M63.297 62.837l31.365 31.346 31.364-31.346z"/><path fill="#FFF" fill-opacity="0" d="M188.795 62.837L157.43 94.185l-31.367-31.348z"/><path fill="#C9E9EF" d="M502.398 125.53l31.366-31.347-31.366-31.347z"/><path fill="#FEFEFE" fill-opacity="0" d="M565.13 125.53l-31.366-31.346 31.366-31.348zM376.937 125.53L408.3 94.185l-31.364-31.348zM314.205 125.53l31.365-31.346-31.365-31.348z"/><path fill="#C9E9EF" d="M439.667 62.836l31.367 31.347-31.367 31.347z"/><path fill="#FFF" fill-opacity="0" d="M251.474 62.836L220.11 94.183l31.364 31.347z"/><path fill="#FEFEFE" fill-opacity="0" d="M251.474 62.836l31.367 31.347-31.367 31.347zM188.744 62.836l31.367 31.347-31.367 31.347zM.55 62.836l31.367 31.347L.55 125.53zM63.281 62.836L31.917 94.183 63.28 125.53zM126.013 62.836L94.648 94.183l31.365 31.347zM126.013 125.532l31.365-31.348-31.365-31.348zM188.787 125.63l31.364-31.347 31.366 31.347zM439.685 125.638l-31.366-31.349-31.367 31.349z"/><path fill="#FEFEFE" fill-opacity="0" d="M376.962 125.638l-31.366-31.349-31.366 31.349zM251.51 125.659l31.363-31.349 31.367 31.349zM63.34 125.727L94.707 94.38l31.365 31.347z"/><path fill="#C9E9EF" d="M565.13 125.735l-31.366 31.348-31.365-31.348z"/><path fill="#FEFEFE" fill-opacity="0" d="M188.787 125.735l31.364 31.348 31.366-31.348zM502.408 125.735l-31.365 31.347-31.365-31.347z"/><path fill="#FFF" fill-opacity="0" d="M251.51 125.735l31.364 31.348 31.366-31.348z"/><path fill="#FEFEFE" fill-opacity="0" d="M.619 125.735l31.365 31.346 31.366-31.346z"/><path fill="#FEFEFE" fill-opacity="0" d="M63.342 125.735l31.366 31.346 31.365-31.346z"/><path fill="#FEFEFE" fill-opacity="0" d="M188.796 125.735l-31.368 31.347-31.365-31.347z"/></g><path fill="#BFC4D7" d="M439.716 251.534l-31.367-31.347 31.367-31.348z"/><g><g transform="translate(533.134 187.92)"><mask id="d" fill="#fff"><use xlink:href="#c"/></mask><path fill="#C9E9EF" mask="url(#d)" d="M32.02 63.613L.653 32.266 32.02.92z"/></g><path fill="#C9E9EF" d="M502.427 251.534l31.367-31.347-31.367-31.348z"/><path fill="#FEFEFE" fill-opacity="0" d="M502.433 251.534l-31.364-31.347 31.364-31.348z"/></g><path fill="#FEFEFE" fill-opacity="0" d="M314.272 251.533l31.366-31.347-31.366-31.346z"/><g fill="#FEFEFE" fill-opacity="0"><path d="M188.834 188.84l31.366 31.347-31.366 31.346z"/><path d="M251.56 188.84l-31.366 31.347 31.366 31.346z"/><path d="M251.553 188.84l31.367 31.347-31.367 31.346z"/></g><path fill="#FEFEFE" fill-opacity="0" d="M.679 188.839l31.365 31.348L.68 251.534zM126.116 251.534l31.366-31.347-31.366-31.348zM63.397 188.84l31.367 31.347-31.367 31.346z"/><path fill="#FEFEFE" fill-opacity="0" d="M126.123 251.534l-31.367-31.347 31.367-31.348z"/><g><path fill="#FEFEFE" fill-opacity="0" d="M565.111 188.57l-31.367-31.349 31.367-31.347zM502.392 188.586l-31.365-31.347 31.365-31.348z"/><path fill="#C9E9EF" d="M376.955 188.602l-31.365-31.347 31.365-31.348z"/><path fill="#FEFEFE" fill-opacity="0" d="M314.236 188.58l-31.365-31.346 31.365-31.346zM251.52 188.58l-31.369-31.346 31.368-31.346z"/><path fill="#FEFEFE" fill-opacity="0" d="M251.511 188.58l31.366-31.346-31.366-31.346zM188.792 125.903l31.367 31.347-31.367 31.347z"/><path fill="#FFF" fill-opacity="0" d="M.637 125.92l31.366 31.345L.637 188.612z"/></g><path fill="#FEFEFE" fill-opacity="0" d="M63.362 125.94l-31.366 31.347 31.366 31.347zM126.08 125.91l-31.365 31.348 31.364 31.347z"/><path fill="#FFF" fill-opacity="0" d="M63.355 125.91l31.367 31.348-31.367 31.347z"/><path fill="#FEFEFE" fill-opacity="0" d="M188.8 188.618l-31.369-31.347 31.37-31.348zM126.074 188.43l31.366-31.347-31.366-31.347z"/><g><path fill="#FEFEFE" fill-opacity="0" d="M63.303.136L94.67 31.484 63.303 62.83z"/><path fill="#FEFEFE" fill-opacity="0" d="M63.306.136L31.939 31.484 63.306 62.83zM126.032.136l31.367 31.348-31.367 31.347z"/><path fill="#FEFEFE" fill-opacity="0" d="M126.034.136L94.67 31.484l31.364 31.347z"/><path fill="#FFF" fill-opacity="0" d="M.577 62.846l31.367-31.348L.577.151zM188.76 62.846l31.365-31.348L188.76.151z"/><path fill="#FEFEFE" fill-opacity="0" d="M188.763 62.846l-31.367-31.348L188.763.151zM251.49 62.846L220.12 31.498 251.49.151z"/><path fill="#FFF" fill-opacity="0" d="M251.487.129l31.366 31.346-31.366 31.348z"/><path fill="#C9E9EF" d="M376.943.136l31.367 31.348-31.367 31.347z"/><path fill="#C9E9EF" d="M376.945.136L345.58 31.484l31.365 31.347z"/><path fill="#FEFEFE" fill-opacity="0" d="M439.672.136l31.367 31.348-31.367 31.347z"/><path fill="#CADAD9" d="M314.216 62.846l31.367-31.348L314.216.151z"/><path fill="#FFF" fill-opacity="0" d="M314.217 62.846l-31.365-31.348L314.217.151z"/><path fill="#C9E9EF" d="M565.13 62.846l-31.367-31.348L565.13.151z"/><path fill="#FEFEFE" fill-opacity="0" d="M251.49.129l-31.365 31.347L188.76.129zM.593.129l31.365 31.347L63.325.129z"/><path fill="#FEFEFE" fill-opacity="0" d="M63.324.129l31.367 31.347L126.055.129z"/><path fill="#FEFEFE" fill-opacity="0" d="M188.773.129L157.41 31.477 126.042.129zM251.605.129l31.364 31.346L314.335.129z"/><path fill="#FFF" fill-opacity="0" d="M314.296.129l31.366 31.347L377.027.129z"/><path fill="#FEFEFE" fill-opacity="0" d="M377.027.129l31.367 31.347L439.759.129zM565.13.129l-31.367 31.348L502.396.129z"/></g></g></g></svg>