<svg width="691" height="502" viewBox="0 0 691 502" xmlns="http://www.w3.org/2000/svg" xmlns:xlink="http://www.w3.org/1999/xlink"><defs><path id="a" d="M.653.92h31.366v62.693H.653z"/></defs><g fill="none" fill-rule="evenodd"><path fill="#FEFEFE" fill-opacity="0" d="M377.346 251.125l-31.365 31.347-31.366-31.347z"/><path fill="#FEFEFE" fill-opacity="0" d="M314.624 251.125l-31.367 31.347-31.365-31.347z"/><path fill="#082046" d="M1.001 251.125l31.366 31.348 31.366-31.348z"/><path fill="#082046" d="M63.724 251.125l31.366 31.347 31.366-31.347z"/><path fill="#FEFEFE" fill-opacity="0" d="M126.446 251.125l31.366 31.347 31.367-31.347z"/><path fill="#FEFEFE" fill-opacity="0" d="M189.17 251.125l31.365 31.348 31.366-31.348z"/><g fill="#FEFEFE" fill-opacity="0"><path d="M690.959 251.127l-31.367 31.347-31.365-31.347zM377.337 251.127l31.365 31.347 31.366-31.347z"/></g><path fill="#FEFEFE" fill-opacity="0" d="M628.237 251.127l-31.366 31.347-31.367-31.347z"/><g fill="#FEFEFE" fill-opacity="0"><path d="M502.782 251.127l31.367 31.347 31.365-31.347z"/><path d="M502.79 251.127l-31.365 31.348-31.366-31.348zM377.347 251.126l-31.364-31.348-31.367 31.348z"/><path d="M314.625 251.126l-31.367-31.348-31.366 31.348zM1.001 251.126l31.366-31.348 31.366 31.348z"/><path d="M189.17 251.126l31.365-31.348 31.366 31.348zM690.959 251.126l-31.367-31.346-31.365 31.346zM377.337 251.126l31.365-31.348 31.366 31.348z"/></g><path fill="#FFF" fill-opacity="0" d="M628.236 251.126l-31.366-31.348-31.367 31.348z"/><path fill="#FEFEFE" fill-opacity="0" d="M502.781 251.126l31.367-31.348 31.365 31.348z"/><path fill="#FFF" fill-opacity="0" d="M502.79 251.126l-31.365-31.348-31.366 31.348z"/><path fill="#FEFEFE" fill-opacity="0" d="M690.814 313.82l-31.364-31.347 31.364-31.348zM.91 313.82l31.368-31.347L.91 251.125z"/><path fill="#081E3F" d="M63.636 313.82l-31.367-31.347 31.367-31.348z"/><path fill="#FEFEFE" fill-opacity="0" d="M63.63 313.82l31.365-31.347-31.366-31.348z"/><path fill="#081B3F" d="M189.072 313.82l-31.367-31.347 31.367-31.348z"/><path fill="#082046" d="M126.351 313.82l-31.364-31.348 31.364-31.347z"/><path fill="#FEFEFE" fill-opacity="0" d="M126.345 313.82l31.367-31.347-31.367-31.348zM251.79 313.82l-31.367-31.347 31.367-31.348z"/><path fill="#FEFEFE" fill-opacity="0" d="M251.782 313.82l31.366-31.347-31.366-31.348zM628.092 251.125l31.365 31.348-31.365 31.348zM377.226 251.125l-31.367 31.348 31.367 31.348z"/><path fill="#FEFEFE" fill-opacity="0" d="M314.5 251.125l31.367 31.348-31.366 31.348zM628.1 251.125l-31.368 31.347L628.1 313.82zM502.656 251.125l31.365 31.347-31.365 31.347z"/><path fill="#FFF" fill-opacity="0" d="M502.663 251.125l-31.367 31.347 31.367 31.347z"/><path fill="#FEFEFE" fill-opacity="0" d="M377.218 313.82l31.367-31.347-31.367-31.348z"/><path fill="#FEFEFE" fill-opacity="0" d="M439.943 313.82l-31.365-31.347 31.365-31.348z"/><path fill="#FEFEFE" fill-opacity="0" d="M439.936 313.82l31.367-31.347-31.367-31.348z"/><path fill="#082046" d="M63.593 188.43l31.366 31.348 31.365-31.348z"/><path fill="#082046" d="M.87 188.43l31.366 31.348L63.6 188.43zM126.315 188.43l31.366 31.348 31.366-31.348z"/><path fill="#082046" d="M189.038 188.43l31.366 31.349 31.366-31.349z"/><path fill="#FEFEFE" fill-opacity="0" d="M251.76 188.43l31.366 31.349 31.364-31.349zM690.827 188.43L659.46 219.78l-31.365-31.349zM377.205 188.43l31.367 31.348 31.365-31.348zM565.383 188.43l-31.367 31.346-31.364-31.346z"/><path fill="#FFF" fill-opacity="0" d="M502.66 188.43l-31.367 31.349-31.365-31.349z"/><g fill="#FEFEFE" fill-opacity="0"><path d="M565.372 188.43l31.367 31.348 31.367-31.348zM377.254 188.43l-31.365-31.347-31.362 31.347z"/></g><path fill="#FEFEFE" fill-opacity="0" d="M126.333 188.43l31.365-31.347 31.365 31.347z"/><g fill="#FEFEFE" fill-opacity="0"><path d="M189.063 188.43l31.366-31.347 31.366 31.347zM251.795 188.43l31.365-31.347 31.366 31.347zM690.912 188.43l-31.367-31.347-31.364 31.347zM377.254 188.43l31.367-31.347 31.363 31.347zM565.447 188.43l-31.365-31.347-31.367 31.347z"/></g><path fill="#FFF" fill-opacity="0" d="M502.716 188.43l-31.365-31.347-31.367 31.347z"/><path fill="#FEFEFE" fill-opacity="0" d="M565.447 188.43l31.367-31.347 31.367 31.347z"/><path fill="#082046" d="M63.698 62.833L32.332 31.487.967 62.833z"/><path fill="#FEFEFE" fill-opacity="0" d="M377.293 62.833L345.93 31.487l-31.364 31.346zM690.896 62.834l-31.365-31.346-31.363 31.346z"/><path fill="#082046" d="M63.687 62.833L95.05 31.487l31.365 31.346z"/><path fill="#FEFEFE" fill-opacity="0" d="M251.846 62.833l31.367-31.346 31.363 31.346z"/><path fill="#FEFEFE" fill-opacity="0" d="M251.857 62.833l-31.365-31.346-31.365 31.346zM565.444 62.834l31.367-31.346 31.367 31.346zM502.734 62.836L471.37 31.488l-31.364 31.348z"/><path fill="#FEFEFE" fill-opacity="0" d="M377.286 62.836l31.364-31.348 31.367 31.348z"/><path fill="#082046" d="M63.602 62.836L32.236 94.183.87 62.836z"/><path fill="#FEFEFE" fill-opacity="0" d="M377.168 62.836l-31.365 31.347-31.365-31.347zM690.8 62.837l-31.365 31.348-31.364-31.348z"/><path fill="#FEFEFE" fill-opacity="0" d="M251.735 62.836L283.1 94.183l31.364-31.347z"/><path fill="#082046" d="M189.02 62.836l-31.364 31.347-31.366-31.347z"/><path fill="#081E3F" d="M251.751 62.836l-31.366 31.347-31.364-31.347z"/><path d="M565.434 62.837l-31.367 31.348-31.365-31.348z"/><g><path fill="#FEFEFE" fill-opacity="0" d="M565.37 62.837l31.366 31.347 31.367-31.347zM502.703 62.837l-31.365 31.346-31.364-31.346z"/><path fill="#081E3F" d="M377.205 62.837l31.365 31.348 31.367-31.348z"/><path fill="#FEFEFE" fill-opacity="0" d="M.87 125.53l31.366-31.346L.87 62.836zM690.91 125.53l-31.365-31.346 31.364-31.348zM189.063 125.53L157.7 94.185l31.364-31.348zM251.795 125.53L220.43 94.185l31.365-31.348z"/><path fill="#082046" d="M126.333 62.836L94.966 94.183l31.367 31.347z"/><path fill="#081E3F" d="M314.526 62.836l31.364 31.347-31.364 31.347z"/><path fill="#FEFEFE" fill-opacity="0" d="M314.526 62.836L283.16 94.183l31.367 31.347zM628.18 62.836l31.365 31.347-31.364 31.347zM377.256 62.836l-31.367 31.347 31.367 31.347zM565.45 62.836l-31.367 31.347 31.367 31.347zM565.45 62.836l31.367 31.347-31.367 31.347zM502.719 62.836l31.364 31.347-31.364 31.347zM439.987 62.836l31.365 31.347-31.365 31.347zM439.987 125.532l-31.365-31.348 31.365-31.348zM377.213 125.63L345.85 94.283l-31.366 31.347zM126.315 125.638l31.366-31.349 31.367 31.349z"/><path fill="#FEFEFE" fill-opacity="0" d="M189.038 125.638l31.366-31.349 31.366 31.349zM314.49 125.659L283.128 94.31 251.76 125.66zM690.827 125.531L659.46 94.183l-31.365 31.348zM628.106 125.735l-31.367-31.347-31.364 31.347zM502.66 125.727L471.292 94.38l-31.365 31.347zM377.205 125.654l31.367-31.347 31.365 31.347z"/><path fill="#082046" d="M.87 125.735l31.366 31.348L63.6 125.735z"/><path fill="#FEFEFE" fill-opacity="0" d="M377.213 125.735l-31.364 31.348-31.366-31.348zM63.592 125.735l31.365 31.347 31.365-31.347z"/><path fill="#081E3F" d="M314.49 125.735l-31.364 31.348-31.366-31.348z"/><path fill="#FEFEFE" fill-opacity="0" d="M690.827 125.735l-31.367 31.348-31.365-31.348zM565.381 125.735l-31.365 31.346-31.366-31.346z"/><path fill="#FEFEFE" fill-opacity="0" d="M565.37 125.735l31.367 31.346 31.367-31.346zM502.658 125.735l-31.366 31.346-31.365-31.346z"/><path fill="#FEFEFE" fill-opacity="0" d="M377.204 125.735l31.368 31.347 31.365-31.347z"/></g><path fill="#081B3F" d="M126.284 251.534l31.367-31.347-31.367-31.348z"/><g><g transform="matrix(-1 0 0 1 32.866 187.92)"><mask id="b" fill="#fff"><use xlink:href="#a"/></mask><path fill="#082046" mask="url(#b)" d="M32.02 63.613L.653 32.266 32.02.92z"/></g><path fill="#FEFEFE" fill-opacity="0" d="M690.758 251.533l-31.366-31.347 31.366-31.346zM63.567 251.534l31.364-31.347-31.364-31.348z"/></g><path fill="#FEFEFE" fill-opacity="0" d="M251.728 251.533l-31.366-31.347 31.366-31.346z"/><g fill="#FEFEFE" fill-opacity="0"><path d="M628.034 188.84l31.364 31.347-31.364 31.346zM377.166 188.84L345.8 220.187l31.366 31.346z"/><path d="M314.44 188.84l31.366 31.347-31.366 31.346z"/><path d="M314.447 188.84l-31.367 31.347 31.367 31.346z"/></g><path fill="#FEFEFE" fill-opacity="0" d="M565.321 188.839l-31.365 31.348 31.365 31.347z"/><path fill="#FFF" fill-opacity="0" d="M502.596 188.839l31.367 31.348-31.367 31.347z"/><path fill="#FEFEFE" fill-opacity="0" d="M439.884 251.534l-31.366-31.347 31.366-31.348zM502.603 188.84l-31.367 31.347 31.367 31.346z"/><path fill="#FEFEFE" fill-opacity="0" d="M439.877 251.534l31.367-31.347-31.367-31.348z"/><g><path fill="#FEFEFE" fill-opacity="0" d="M628.039 251.534l-31.365-31.347 31.365-31.348z"/><path fill="#FEFEFE" fill-opacity="0" d="M565.315 251.534l31.367-31.347-31.367-31.348zM.889 188.57l31.367-31.349L.889 125.874zM690.8 188.57l-31.366-31.349 31.366-31.347zM63.608 188.586l31.365-31.347-31.365-31.348z"/><path fill="#082046" d="M189.045 188.602l31.365-31.347-31.365-31.348z"/><path fill="#FEFEFE" fill-opacity="0" d="M251.764 188.58l31.365-31.346-31.365-31.346zM314.48 188.58l31.369-31.346-31.368-31.346z"/><path fill="#FEFEFE" fill-opacity="0" d="M314.489 188.58l-31.366-31.346 31.366-31.346zM628.075 125.735l31.365 31.348-31.365 31.346zM377.208 125.903L345.84 157.25l31.367 31.347z"/><path fill="#FFF" fill-opacity="0" d="M565.363 125.92l-31.366 31.345 31.366 31.347z"/></g><path fill="#FEFEFE" fill-opacity="0" d="M502.638 125.94l31.366 31.347-31.366 31.347zM439.92 125.91l31.365 31.348-31.365 31.347z"/><path fill="#FFF" fill-opacity="0" d="M502.645 125.91l-31.367 31.348 31.367 31.347z"/><path fill="#FEFEFE" fill-opacity="0" d="M377.2 188.618l31.369-31.347-31.37-31.348zM439.926 188.43l-31.366-31.347 31.366-31.347z"/><g fill-opacity="0"><path fill="#FFF" d="M628.08 125.91l-31.365 31.348 31.365 31.347z"/><path fill="#FEFEFE" d="M565.356 188.605l31.367-31.347-31.367-31.347zM.87 439.253l31.366-31.347L63.6 439.253zM377.216 439.253l-31.364-31.347-31.365 31.347z"/><path fill="#FEFEFE" d="M63.593 439.253l31.366-31.346 31.365 31.346z"/><path fill="#FEFEFE" d="M126.316 439.253l31.366-31.347 31.366 31.347zM314.494 439.253l-31.366-31.348-31.364 31.348zM565.378 439.256l31.367-31.348 31.363 31.348z"/><path fill="#FEFEFE" d="M690.832 439.256l-31.364-31.348-31.367 31.348zM565.385 439.256l-31.364-31.348-31.367 31.348z"/></g><g><path fill="#FEFEFE" fill-opacity="0" d="M628.151.129l-31.364 31.346 31.364 31.348z"/><path fill="#FEFEFE" fill-opacity="0" d="M628.149.129l31.367 31.346-31.367 31.348zM690.88.143l-31.367 31.348 31.367 31.347zM502.697.136L471.33 31.484l31.367 31.347z"/><path fill="#FEFEFE" fill-opacity="0" d="M502.694.136l31.367 31.348-31.367 31.347zM439.968.136l-31.367 31.348 31.367 31.347z"/><path fill="#FEFEFE" fill-opacity="0" d="M439.966.136l31.364 31.348-31.364 31.347z"/><path fill="#081E3F" d="M377.24 62.846l-31.365-31.348L377.24.151z"/><path fill="#FEFEFE" fill-opacity="0" d="M377.237 62.846l31.367-31.348L377.237.151zM314.51 62.846l31.369-31.348L314.51.151z"/><path fill="#081E3F" d="M314.513.129l-31.366 31.346 31.366 31.348z"/><path fill="#082046" d="M189.057.136L157.69 31.484l31.367 31.347z"/><path fill="#082046" d="M189.055.136l31.365 31.348-31.365 31.347z"/><path fill="#FEFEFE" fill-opacity="0" d="M126.328.136L94.961 31.484l31.367 31.347z"/><path fill="#081E3F" d="M251.784 62.846l-31.367-31.348L251.784.151z"/><path fill="#082046" d="M251.783 62.846l31.365-31.348L251.783.151z"/><path fill="#FEFEFE" fill-opacity="0" d="M.87 62.846l31.367-31.348L.87.151zM690.83.129l-31.365 31.347L628.098.129zM314.51.129l31.365 31.347L377.24.129zM628.098.129l-31.365 31.346L565.366.129z"/><path fill="#FEFEFE" fill-opacity="0" d="M565.407.129l-31.365 31.347L502.675.129z"/><path fill="#FEFEFE" fill-opacity="0" d="M502.676.129l-31.367 31.347L439.945.129z"/><path fill="#FEFEFE" fill-opacity="0" d="M377.227.129l31.364 31.348L439.958.129zM314.395.129l-31.364 31.346L251.665.129zM188.973.129l-31.367 31.347L126.241.129zM.87.129l31.367 31.348L63.604.129zM63.698 376.522l-31.366-31.346L.967 376.522zM377.293 376.522l-31.363-31.346-31.364 31.346zM690.896 376.523l-31.365-31.346-31.363 31.346z"/><path fill="#FEFEFE" fill-opacity="0" d="M251.846 376.522l31.367-31.346 31.363 31.346z"/><path fill="#FEFEFE" fill-opacity="0" d="M251.857 376.522l-31.365-31.346-31.365 31.346zM565.455 376.524l-31.365-31.348-31.366 31.348z"/><path fill="#FEFEFE" fill-opacity="0" d="M565.444 376.523l31.367-31.346 31.367 31.346zM502.734 376.524l-31.364-31.347-31.364 31.347z"/><path fill="#FEFEFE" fill-opacity="0" d="M377.286 376.524l31.364-31.348 31.367 31.348zM63.602 376.524l-31.366 31.348L.87 376.524zM690.8 376.526l-31.365 31.348-31.364-31.348z"/><path fill="#FEFEFE" fill-opacity="0" d="M63.578 376.524l31.363 31.348 31.366-31.348zM251.735 376.524l31.365 31.348 31.364-31.348z"/><path fill="#FEFEFE" fill-opacity="0" d="M189.02 376.524l-31.364 31.348-31.366-31.348z"/></g><path d="M251.751 376.524l-31.366 31.348-31.364-31.348z"/><g><path fill="#FEFEFE" fill-opacity="0" d="M565.434 376.526l-31.367 31.348-31.365-31.348z"/><path fill="#FEFEFE" fill-opacity="0" d="M565.37 376.526l31.366 31.347 31.367-31.347zM502.703 376.526l-31.365 31.346-31.364-31.346zM377.205 376.526l31.365 31.348 31.367-31.348z"/><path fill="#081E3F" d="M63.602 439.219l31.363-31.348-31.363-31.347z"/><path fill="#FEFEFE" fill-opacity="0" d="M63.602 439.219L32.236 407.87l31.366-31.347zM.87 439.22l31.366-31.348L.87 376.525zM690.91 439.22l-31.365-31.348 31.364-31.347zM189.063 439.22l31.366-31.348-31.366-31.347z"/></g><path d="M189.063 439.22L157.7 407.871l31.364-31.347z"/><g><path fill="#FEFEFE" fill-opacity="0" d="M251.795 439.22l31.364-31.348-31.364-31.347z"/><path fill="#081E3F" d="M126.333 376.524l31.365 31.348-31.365 31.347z"/></g><path d="M126.333 376.524l-31.367 31.348 31.367 31.347z"/><g fill="#FEFEFE" fill-opacity="0"><path d="M314.526 376.524l31.364 31.348-31.364 31.347zM628.18 376.524l31.365 31.348-31.364 31.347z"/><path d="M628.18 376.524l-31.364 31.346 31.365 31.348zM565.45 376.524l-31.367 31.348 31.367 31.347zM502.719 376.524l31.364 31.348-31.364 31.347z"/></g><path d="M502.719 376.524l-31.367 31.348 31.367 31.347z"/><g fill-opacity="0"><path fill="#FEFEFE" d="M377.256 439.22l31.367-31.348-31.367-31.347z"/><path fill="#FEFEFE" d="M439.987 439.22l-31.365-31.348 31.365-31.347zM628.149 313.817l31.367 31.346-31.367 31.348zM690.88 313.831l-31.367 31.349 31.367 31.347zM502.694 313.825l31.367 31.347-31.367 31.347zM439.968 313.825l-31.367 31.347 31.367 31.347z"/><path fill="#FEFEFE" d="M439.966 313.825l31.364 31.347-31.364 31.347z"/><path fill="#FFF" d="M565.423 376.535l-31.367-31.348 31.367-31.348zM565.423 376.535l31.367-31.348-31.367-31.348z"/></g><path fill="#FEFEFE" fill-opacity="0" d="M377.24 376.535l-31.365-31.348 31.365-31.348z"/><g><path fill="#FEFEFE" fill-opacity="0" d="M314.513 313.817l-31.366 31.346 31.366 31.348zM189.057 313.825l-31.367 31.347 31.367 31.347z"/><path fill="#FEFEFE" fill-opacity="0" d="M189.055 313.825l31.365 31.347-31.365 31.347zM126.328 313.825l-31.367 31.347 31.367 31.347z"/><path fill="#FEFEFE" fill-opacity="0" d="M126.327 313.825l31.365 31.347-31.365 31.347z"/><path fill="#081E3F" d="M251.784 376.535l-31.367-31.348 31.367-31.348z"/><path fill="#FEFEFE" fill-opacity="0" d="M251.783 376.535l31.365-31.348-31.365-31.348z"/><path fill="#081E3F" d="M63.6 376.535l-31.365-31.348L63.6 313.839z"/><path fill="#FEFEFE" fill-opacity="0" d="M63.597 376.535l31.367-31.348-31.367-31.348zM.87 376.535l31.367-31.348L.87 313.839zM690.83 313.817l-31.365 31.347-31.367-31.347z"/></g><path fill="#FEFEFE" fill-opacity="0" d="M314.51 313.817l31.365 31.347 31.365-31.347z"/><g fill="#FEFEFE" fill-opacity="0"><path d="M628.098 313.817l-31.365 31.346-31.367-31.346z"/><path d="M565.407 313.817l-31.365 31.347-31.367-31.347z"/><path d="M502.676 313.817l-31.367 31.347-31.364-31.347z"/></g><path fill="#FEFEFE" fill-opacity="0" d="M377.227 313.817l31.364 31.348 31.367-31.348zM314.395 313.817l-31.364 31.346-31.366-31.346z"/><g fill="#FEFEFE" fill-opacity="0"><path d="M251.704 313.817l-31.366 31.347-31.365-31.347zM188.973 313.817l-31.367 31.347-31.365-31.347z"/><path d="M63.522 313.817l31.366 31.348 31.365-31.348z"/><path d="M.87 313.817l31.367 31.348 31.367-31.348z"/></g><g fill="#FEFEFE" fill-opacity="0"><path d="M.975 501.961l31.363-31.346 31.365 31.346z"/></g><g><path fill="#081E3F" d="M63.719 439.256l31.364 31.346-31.364 31.347z"/><path fill="#FEFEFE" fill-opacity="0" d="M.99 439.27l31.367 31.35L.99 501.964z"/></g><path fill="#FEFEFE" fill-opacity="0" d="M126.447 501.973L95.08 470.626l31.367-31.347z"/><g fill="#FEFEFE" fill-opacity="0"><path d="M1.042 439.256l31.363 31.347 31.367-31.347zM63.773 439.256l31.363 31.346 31.367-31.346z"/></g></g></svg>