<svg xmlns="http://www.w3.org/2000/svg" xml:space="preserve" viewBox="0 0 32 32"><path d="M23.8 31.6 15.7 26l-7.4 5.6 1.5-13.3 1.3-.2.6 1.6 1.7-.7 1 1.4 1.4-1.1 1.4 1.1 1.1-1.4 1.6.7.7-1.6 1.3.2zm1-21.6 1.1-1.3-1.3-1 .7-1.5-1.5-.6.2-1.5-1.6-.2-.1-1.6-1.6.2-.7-1.4-1.5.6-.9-1.3-1.3 1-1.3-1-1 1.3-1.5-.6-.6 1.5-1.6-.2-.3 1.5-1.7.2.2 1.6-1.5.6.6 1.5-1.3 1 1 1.3-1 1.3 1.3 1-.7 1.5 1.5.6-.4 1.4 1.6.1.1 1.6 1.6-.2.6 1.5 1.5-.6 1 1.3 1.3-1 1.3 1 1-1.3 1.5.6.6-1.5 1.6.2.2-1.6 1.6-.2-.2-1.6 1.5-.6-.6-1.5 1.3-1zm-3 .2c-.1 3.2-2.7 5.8-6 5.8-3.1 0-5.7-2.5-5.7-5.6v-.3c.1-3.2 2.7-5.8 6-5.8 3.1 0 5.7 2.5 5.7 5.6z"/></svg>