<svg xmlns="http://www.w3.org/2000/svg" xml:space="preserve" viewBox="0 0 32 32"><path d="M16.6 25v1.8h-1.3V25c-1.4-.1-2.8-.7-3.8-1.7l1.3-1.7c.7.7 1.6 1.2 2.5 1.4v-2.5c-1.7-.4-3.5-1-3.5-3.2 0-1.6 1.3-3 3.5-3.2v-1.8h1.3V14c1.3.1 2.6.6 3.5 1.4l-1.3 1.7c-.6-.6-1.4-.9-2.3-1v2.3c2 .4 3.8 1.1 3.8 3.3.1 1.7-1.1 3.1-3.7 3.3m-1.3-7v-2c-.8 0-1.3.5-1.3 1s.5.8 1.3 1m2.6 3.9c0-.6-.6-.9-1.3-1.1v2.3c.9-.2 1.3-.7 1.3-1.2m13.3-11H.7L15.9.7zM1.9 12.2h3.2v14.6H1.9zm29.3 15.9v3.2H.7v-3.2zm-4.5-15.9h3.2v14.6h-3.2zm-4.4 0h3.2v14.6h-3.2zm-15.9 0h3.2v14.6H6.4z"/></svg>