<svg xmlns="http://www.w3.org/2000/svg" width="35" height="32"><path d="M17.351 31.559a.76.76 0 0 1-.62-.345 162 162 0 0 1-4.741-8.434c-3.17-6.091-4.782-10.35-4.782-12.624a10.15 10.15 0 0 1 3.059-7.152 10.02 10.02 0 0 1 7.221-2.88 10.146 10.146 0 0 1 10.033 10.019v.014c0 2.274-1.612 6.532-4.796 12.624a162 162 0 0 1-4.741 8.434.77.77 0 0 1-.634.345zm0-30.002a8.65 8.65 0 0 0-6.078 2.481c-1.668 1.626-2.591 3.804-2.632 6.133 0 1.392.799 4.617 4.63 11.948a162 162 0 0 0 4.079 7.318 161 161 0 0 0 4.079-7.318c3.831-7.332 4.63-10.543 4.63-11.948-.028-2.288-.937-4.438-2.55-6.05s-3.762-2.522-6.05-2.55c-.028-.014-.069-.014-.11-.014z"/><path d="M34.04 31.986H.717c-.4 0-.717-.317-.717-.717s.317-.717.717-.717H34.04c.4 0 .717.317.717.717s-.317.717-.717.717M17.364 4.41c-3.115 0-5.65 2.536-5.65 5.65s2.536 5.65 5.65 5.65 5.65-2.536 5.65-5.65-2.536-5.65-5.65-5.65m2.853 8.145a7 7 0 0 1-.152-.345c-.179.841-1.006 1.268-1.24 1.392-.069-.055-.276-.634-.703-.648-.4 0-.799.455-.827.51-.028-.055-.413-.51-.799-.496-.441.014-.662.593-.744.648-.234-.124-1.034-.551-1.171-1.378 0 0-.152.331-.165.345-1.419-1.847 0-3.183.124-3.321.289-.358.165-.51.138-.634a1.65 1.65 0 0 1-.055-.73c.069-.207.124-.413.152-.634a2.4 2.4 0 0 0-.096-.551l.427-.165a.66.66 0 0 0 .207.386c.124.096.358.221.634.4.138.083.262.193.372.303a5 5 0 0 1 1.13-.138c.372 0 .758.055 1.13.138.124-.11.248-.221.386-.303.289-.179.524-.303.648-.4a.76.76 0 0 0 .221-.413l.413.165c-.055.179-.11.358-.124.551.028.221.069.427.124.634.028.248 0 .496-.083.73-.041.124-.179.276.096.634.124.138 1.475 1.461-.041 3.321z"/></svg>