<svg xmlns="http://www.w3.org/2000/svg" xml:space="preserve" viewBox="0 0 32 32"><path d="M24.2 12.7c.5.4.6 1.1.2 1.6-.3.4-.9.6-1.4.4-3.9-2.3-10.3-2.5-13.9-1.4-.6.2-1.2-.1-1.4-.7s.1-1.2.7-1.4c4.3-1.4 11.4-1.1 15.8 1.5m-1.5 4.1c-4.1-2.3-9-2.9-13.5-1.6-.5.1-.8.7-.6 1.2s.7.8 1.2.6c3.8-1.2 8.7-.6 12 1.4.4.3 1 .1 1.3-.3.1-.5 0-1.1-.4-1.3m-1.4 3.5c-3.2-1.9-7.1-2.4-11.7-1.3-.4.1-.7.5-.6.9s.5.7.9.6q6.3-1.5 10.5 1.2c.4.2.8.1 1-.3.3-.4.2-.9-.1-1.1M32 0v32H0V0zm-4 16c0-6.6-5.4-12-12-12S4 9.4 4 16s5.4 12 12 12 12-5.4 12-12"/></svg>