<svg xmlns="http://www.w3.org/2000/svg" width="32" height="32"><path d="M.147 0H32v32H.147zm22.276 12.441a5.7 5.7 0 0 0 1.614-1.692 5.9 5.9 0 0 1-1.894.529 3.4 3.4 0 0 0 1.438-1.833 6.2 6.2 0 0 1-2.07.811 3.15 3.15 0 0 0-2.386-1.057 3.3 3.3 0 0 0-3.298 3.313c0 .247 0 .493.07.74a9.27 9.27 0 0 1-6.771-3.454 3.34 3.34 0 0 0-.456 1.656c0 1.163.596 2.15 1.473 2.749a3.55 3.55 0 0 1-1.473-.423v.035a3.29 3.29 0 0 0 2.631 3.242c-.281.07-.596.106-.877.106-.21 0-.421-.035-.631-.07a3.34 3.34 0 0 0 3.087 2.291 6.55 6.55 0 0 1-4.069 1.41c-.246 0-.526 0-.772-.035a9.23 9.23 0 0 0 5.052 1.48c6.034 0 9.331-5.004 9.331-9.374v-.423z"/></svg>