<svg xmlns="http://www.w3.org/2000/svg" width="1024" height="1024"><path d="M0 0v1024h1024V0zm860.8 339.2c-3.2 73.6-54.4 169.6-150.4 294.4-99.2 131.2-185.6 195.2-256 195.2-41.6 0-80-38.4-108.8-118.4-19.2-73.6-38.4-147.2-60.8-217.6-22.4-80-44.8-118.4-70.4-118.4-6.4 0-25.6 12.8-57.6 35.2l-35.2-44.8c35.2-32 73.6-64 108.8-96 48-41.6 86.4-64 108.8-67.2 57.6-6.4 92.8 35.2 105.6 118.4 12.8 89.6 25.6 147.2 28.8 169.6 16 76.8 35.2 112 54.4 112 16 0 38.4-25.6 70.4-73.6s48-86.4 51.2-112c3.2-41.6-12.8-64-51.2-64-19.2 0-35.2 3.2-54.4 12.8 35.2-118.4 105.6-176 208-172.8 76.8 3.2 115.2 51.2 108.8 147.2"/></svg>