<svg xmlns="http://www.w3.org/2000/svg" xml:space="preserve" viewBox="0 0 32 32"><path d="M16.4 4.8c1.6 0 3.2.3 4.7.9.5-.5 1-.9 1.6-1.3 1.2-.7 2.2-1.3 2.7-1.7s.8-1 1-1.6l1.8.7q-.3 1.2-.3 2.4c0 1 .6 2 .6 2.5.1.7-.3 2.2-.7 3.2-.2.5-.7 1.2.4 2.7.5.6 6.1 6.2-.2 14 0-.1-.8-2.4-.8-2.4-.8 3.6-4 6.3-5 6.9-.3-.2-1.3-2.5-3.1-2.5-1.6 0-3.3 1.7-3.4 1.9-.1-.2-1.8-1.9-3.5-1.9-1.8 0-2.8 2.3-3.1 2.5-2.3-1.7-3.8-4.1-4.4-6.9 0 0-1.1 2.4-1.1 2.5-6-7.8 0-13.4.5-14 1.2-1.5.7-2.2.6-2.7-.3-1.1-.7-2.7-.6-3.4.3-.8.5-1.6.7-2.5V1.8l1.8-.7c.1.6.4 1.2.9 1.6s1.5.9 2.6 1.7c.6.4 1.1.8 1.6 1.2 1.4-.5 3-.8 4.7-.8"/></svg>