<?xml version="1.0" encoding="UTF-8" standalone="no"?>
<svg id="svg2" xmlns="http://www.w3.org/2000/svg" height="24" width="24" version="1.1" viewBox="0 0 24 24">
  <path id="path4" fill="#0074bd" d="m11.83 9l3.17 3.16v-0.16a3 3 0 0 0 -3 -3h-0.17m-4.3 0.8l1.55 1.55c-0.05 0.21-0.08 0.42-0.08 0.65a3 3 0 0 0 3 3c0.22 0 0.44-0.03 0.65-0.08l1.55 1.55c-0.67 0.33-1.41 0.53-2.2 0.53a5 5 0 0 1 -5 -5c0-0.79 0.2-1.53 0.53-2.2m-5.53-5.53l2.28 2.28 0.45 0.45c-1.65 1.3-2.95 3-3.73 5 1.73 4.39 6 7.5 11 7.5 1.55 0 3.03-0.3 4.38-0.84l0.43 0.42 2.92 2.92 1.27-1.27-17.73-17.73m8.73 4a5 5 0 0 1 5 5c0 0.64-0.13 1.26-0.36 1.82l2.93 2.93c1.5-1.25 2.7-2.89 3.43-4.75-1.73-4.39-6-7.5-11-7.5-1.4 0-2.74 0.25-4 0.7l2.17 2.15c0.57-0.22 1.18-0.35 1.83-0.35z"/>
</svg>
