<svg xmlns="http://www.w3.org/2000/svg" width="36" height="36" fill="none"><path fill="#55565B" fill-rule="evenodd" d="M21.105 2.6c3.925.002 7.128 3.19 7.128 7.106 0 3.894-3.168 7.063-7.064 7.099l-.48.004-1.124.008c-.654.003-1.379.004-1.893-.002v15.532a1.038 1.038 0 0 1-.642.972 1.047 1.047 0 0 1-1.37-.572 1.038 1.038 0 0 1-.076-.4v-16.46a1.04 1.04 0 0 1 0-.243V4.696h-2.386v27.65a1.04 1.04 0 0 1-1.044 1.054 1.047 1.047 0 0 1-.969-.653 1.04 1.04 0 0 1-.075-.4V4.697H7.685a1.047 1.047 0 0 1-1.084-.99 1.04 1.04 0 0 1 .992-1.093M21.105 2.6c-2.896-.044-5.802-.025-8.702-.007-1.575.01-3.149.02-4.718.02a1.048 1.048 0 0 0-.092 0m13.662 2.074c-.052.007-.104.01-.157.01h-3.426v10.028h3.43c2.791 0 5.043-2.242 5.043-5.02a5.025 5.025 0 0 0-4.89-5.018Z" clip-rule="evenodd"/></svg>